<?xml version="1.0" encoding="utf-8"?>
<!-- Generator: Adobe Illustrator 16.0.0, SVG Export Plug-In . SVG Version: 6.00 Build 0)  -->
<!DOCTYPE svg PUBLIC "-//W3C//DTD SVG 1.1//EN" "http://www.w3.org/Graphics/SVG/1.1/DTD/svg11.dtd">
<svg version="1.1" id="icons" xmlns="http://www.w3.org/2000/svg" xmlns:xlink="http://www.w3.org/1999/xlink" x="0px" y="0px"
	 width="64px" height="64px" viewBox="0 0 64 64" enable-background="new 0 0 64 64" xml:space="preserve">
<g>
	<g>
		<g>
			<path fill="#CCD1D9" d="M28.131,5.71l10.381,17.98l-3.461,2l-6.76-11.7c0.59-1.2,0.93-2.561,0.93-3.99
				C29.221,8.45,28.83,6.99,28.131,5.71z"/>
		</g>
		<g>
			<path fill="#5D9CEC" d="M54.242,46.94c1.1,1.92,0.449,4.35-1.461,5.46c-1.92,1.1-4.35,0.449-5.471-1.46V50.93l-14-24.239l1.74-1
				l3.461-2l1.73-1l14,24.239V46.94z"/>
		</g>
		<g>
			<path fill="#E6E9ED" d="M28.131,5.71c0.699,1.28,1.09,2.74,1.09,4.29c0,1.43-0.34,2.79-0.93,3.99
				c-1.471,2.97-4.53,5.01-8.07,5.01c-1.85,0-3.561-0.56-4.99-1.521c-2.42-1.609-4.01-4.359-4.01-7.479c0-4.971,4.03-9,9-9
				c3.33,0,6.24,1.811,7.79,4.5L28.131,5.71z M25.221,10c0-2.76-2.25-5-5-5c-2.76,0-5,2.24-5,5s2.24,5,5,5
				C22.971,15,25.221,12.76,25.221,10z"/>
		</g>
		<g>
			<path fill="#CCD1D9" d="M15.23,17.479l-0.01,0.011V31h-4V10C11.221,13.12,12.811,15.87,15.23,17.479z"/>
		</g>
		<g>
			<path fill="#5D9CEC" d="M17.221,31v28c0,2.21-1.79,4-4,4s-4-1.79-4-4V31h2h4H17.221z"/>
		</g>
	</g>
	<g>
		<path fill="#CCD1D9" d="M11.219,31.999c-0.553,0-1-0.448-1-1V10.004c0-0.552,0.447-1,1-1s1,0.448,1,1v20.995
			C12.219,31.551,11.771,31.999,11.219,31.999z"/>
	</g>
	<g>
		<path fill="#CCD1D9" d="M15.22,31.999c-0.553,0-1-0.448-1-1V17.487c0-0.552,0.447-1,1-1s1,0.448,1,1v13.512
			C16.22,31.551,15.772,31.999,15.22,31.999z"/>
	</g>
	<g>
		<path fill="#5D9CEC" d="M17.22,60c-0.553,0-1-0.447-1-1V31.999h-6.001V59c0,0.553-0.447,1-1,1s-1-0.447-1-1V30.999
			c0-0.552,0.447-1,1-1h8.001c0.553,0,1,0.448,1,1V59C18.22,59.553,17.772,60,17.22,60z"/>
	</g>
	<g>
		<path fill="#5D9CEC" d="M13.219,63.996c-2.757,0-5-2.243-5-5c0-0.553,0.447-1,1-1s1,0.447,1,1c0,1.654,1.346,3,3,3s3-1.346,3-3
			c0-0.553,0.447-1,1-1s1,0.447,1,1C18.219,61.753,15.976,63.996,13.219,63.996z"/>
	</g>
	<g>
		<path fill="#CCD1D9" d="M38.514,24.687c-0.346,0-0.682-0.179-0.867-0.5L27.149,6.005c-0.276-0.479-0.112-1.09,0.366-1.366
			c0.476-0.276,1.089-0.112,1.366,0.366l10.497,18.182c0.276,0.479,0.112,1.09-0.366,1.366
			C38.855,24.644,38.684,24.687,38.514,24.687z"/>
	</g>
	<g>
		<path fill="#CCD1D9" d="M35.049,26.688c-0.346,0-0.682-0.179-0.867-0.5l-6.755-11.7c-0.276-0.479-0.112-1.09,0.366-1.366
			c0.477-0.276,1.089-0.112,1.366,0.366l6.755,11.7c0.276,0.479,0.112,1.09-0.366,1.366C35.391,26.645,35.219,26.688,35.049,26.688z
			"/>
	</g>
	<g>
		<path fill="#5D9CEC" d="M47.317,51.938c-0.346,0-0.682-0.179-0.867-0.5L32.449,27.188c-0.276-0.479-0.112-1.09,0.366-1.366
			l6.93-4.001c0.229-0.132,0.503-0.169,0.759-0.1c0.256,0.068,0.475,0.236,0.607,0.466l14.001,24.25
			c0.276,0.479,0.112,1.09-0.366,1.366c-0.479,0.274-1.09,0.112-1.366-0.366L39.879,24.053l-5.197,3.001l13.501,23.385
			c0.276,0.479,0.112,1.09-0.366,1.366C47.659,51.896,47.487,51.938,47.317,51.938z"/>
	</g>
	<g>
		<path fill="#5D9CEC" d="M50.788,53.936c-0.435,0-0.871-0.057-1.303-0.172c-1.29-0.346-2.368-1.173-3.036-2.329
			c-0.276-0.479-0.112-1.09,0.366-1.366c0.477-0.275,1.09-0.113,1.366,0.366c0.4,0.693,1.048,1.189,1.821,1.397
			c0.774,0.207,1.583,0.102,2.275-0.301c0.695-0.4,1.191-1.047,1.398-1.821c0.208-0.773,0.102-1.582-0.299-2.275
			c-0.276-0.479-0.112-1.09,0.366-1.366c0.476-0.276,1.089-0.111,1.366,0.366c0.667,1.156,0.845,2.504,0.498,3.794
			c-0.346,1.29-1.173,2.368-2.329,3.035C52.51,53.709,51.654,53.936,50.788,53.936z"/>
	</g>
	<g>
		<path fill="#E6E9ED" d="M20.22,20.004c-5.514,0-10-4.486-10-10s4.486-10,10-10s10,4.486,10,10S25.733,20.004,20.22,20.004z
			 M20.22,2.004c-4.411,0-8,3.589-8,8s3.589,8,8,8s8-3.589,8-8S24.631,2.004,20.22,2.004z"/>
	</g>
	<g>
		<path fill="#E6E9ED" d="M20.22,16.004c-3.309,0-6-2.691-6-6s2.691-6,6-6s6,2.691,6,6S23.528,16.004,20.22,16.004z M20.22,6.004
			c-2.206,0-4,1.794-4,4s1.794,4,4,4s4-1.794,4-4S22.426,6.004,20.22,6.004z"/>
	</g>
</g>
</svg>
