<?xml version="1.0" encoding="utf-8"?>
<!-- Generator: Adobe Illustrator 16.0.0, SVG Export Plug-In . SVG Version: 6.00 Build 0)  -->
<!DOCTYPE svg PUBLIC "-//W3C//DTD SVG 1.1//EN" "http://www.w3.org/Graphics/SVG/1.1/DTD/svg11.dtd">
<svg version="1.1" id="icons" xmlns="http://www.w3.org/2000/svg" xmlns:xlink="http://www.w3.org/1999/xlink" x="0px" y="0px"
	 width="64px" height="64px" viewBox="0 0 64 64" enable-background="new 0 0 64 64" xml:space="preserve">
<g>
	<g>
		<path fill="#CCD1D9" d="M4.016,41.01c-0.553,0-1,0.447-1,1v19.988h2V42.01C5.016,41.457,4.568,41.01,4.016,41.01z"/>
		<path fill="#CCD1D9" d="M12.012,41.01c-0.553,0-1,0.447-1,1v19.988h2V42.01C13.012,41.457,12.564,41.01,12.012,41.01z"/>
		<path fill="#CCD1D9" d="M20.008,41.01c-0.553,0-1,0.447-1,1v19.988h2V42.01C21.008,41.457,20.561,41.01,20.008,41.01z"/>
		<path fill="#CCD1D9" d="M28.004,41.01c-0.553,0-1,0.447-1,1v19.988h2V42.01C29.004,41.457,28.557,41.01,28.004,41.01z"/>
		<path fill="#CCD1D9" d="M36,41.01c-0.553,0-1,0.447-1,1v19.988h2V42.01C37,41.457,36.553,41.01,36,41.01z"/>
		<path fill="#CCD1D9" d="M43.996,41.01c-0.553,0-1,0.447-1,1v19.988h2V42.01C44.996,41.457,44.549,41.01,43.996,41.01z"/>
		<path fill="#CCD1D9" d="M51.992,41.01c-0.553,0-1,0.447-1,1v19.988h2V42.01C52.992,41.457,52.545,41.01,51.992,41.01z"/>
		<path fill="#CCD1D9" d="M59.988,41.01c-0.553,0-1,0.447-1,1v19.988h2V42.01C60.988,41.457,60.541,41.01,59.988,41.01z"/>
	</g>
	<g>
		<g>
			<path fill="#4A89DC" d="M32.005,18.012c1.479,2.561,1.38,5.6,0,7.99h-0.01c-6.631,0-12-5.37-12-12c0-6.41,5.04-11.66,11.38-11.98
				c0.04-0.01,0.09-0.01,0.13,0c-4.19,0.25-7.51,3.73-7.51,7.98c0,1.46,0.39,2.83,1.08,4c1.369,2.39,3.96,4,6.92,4h0.01V18.012z"/>
		</g>
		<g>
			<path fill="#FFCE54" d="M31.995,26.002h0.01c-0.67,1.189-1.66,2.211-2.93,2.939c-3.641,2.1-8.261,1.01-10.601-2.4
				c-0.07-0.1-0.13-0.189-0.18-0.289c-1.46-2.41-2.29-5.23-2.29-8.25c0-8.62,6.82-15.65,15.37-15.98
				c-6.34,0.32-11.38,5.57-11.38,11.98C19.995,20.632,25.364,26.002,31.995,26.002z"/>
		</g>
		<g>
			<path fill="#FFCE54" d="M46.114,25.521c1.841-3.75,0.48-8.34-3.18-10.449c-1.26-0.73-2.64-1.07-4-1.07c-2.76,0-5.45,1.43-6.93,4
				h-0.01c-2.96,0-5.551-1.61-6.92-4c3.31-5.74,10.649-7.71,16.39-4.4C47.045,12.832,49.064,19.862,46.114,25.521z"/>
		</g>
		<g>
			<path fill="#5D9CEC" d="M32.005,2.002c8.83,0,16,7.17,16,16c0,2.87-0.76,5.57-2.09,7.9c0.069-0.121,0.14-0.25,0.199-0.381
				c2.95-5.659,0.931-12.689-4.649-15.92c-5.74-3.31-13.08-1.34-16.39,4.4c-0.69-1.17-1.08-2.54-1.08-4c0-4.25,3.319-7.73,7.51-7.98
				c0.03-0.01,0.05-0.01,0.08-0.01c0.14-0.01,0.27-0.01,0.41-0.01H32.005z"/>
		</g>
		<g>
			<path fill="#4A89DC" d="M18.585,26.712c3.49,5.2,10.46,6.87,15.95,3.69c5.739-3.311,7.71-10.65,4.399-16.391v-0.01
				c1.36,0,2.74,0.34,4,1.07c3.66,2.109,5.021,6.699,3.18,10.449c-0.06,0.131-0.13,0.26-0.199,0.381
				c-0.011,0.029-0.03,0.069-0.051,0.1c-2.77,4.779-7.939,8-13.859,8C26.375,34.002,21.435,31.102,18.585,26.712z"/>
		</g>
		<g>
			<path fill="#F6BB42" d="M38.935,14.012c3.311,5.74,1.34,13.08-4.399,16.391c-5.49,3.18-12.46,1.51-15.95-3.69
				c-0.04-0.06-0.08-0.11-0.11-0.171c2.34,3.41,6.96,4.5,10.601,2.4c1.27-0.729,2.26-1.75,2.93-2.939c1.38-2.391,1.479-5.43,0-7.99
				v-0.01c1.479-2.57,4.17-4,6.93-4V14.012z"/>
		</g>
		<g>
			<rect x="1" y="38.012" fill="#E6E9ED" width="62" height="4.002"/>
		</g>
	</g>
	<g>
		<rect x="1" y="41.01" fill="#E6E9ED" width="62" height="2"/>
		<rect x="1" y="49.018" fill="#E6E9ED" width="62" height="2"/>
		<rect x="1" y="57.01" fill="#E6E9ED" width="62" height="2"/>
	</g>
</g>
</svg>
