<?xml version="1.0" encoding="utf-8"?>
<!-- Generator: Adobe Illustrator 16.0.0, SVG Export Plug-In . SVG Version: 6.00 Build 0)  -->
<!DOCTYPE svg PUBLIC "-//W3C//DTD SVG 1.1//EN" "http://www.w3.org/Graphics/SVG/1.1/DTD/svg11.dtd">
<svg version="1.1" id="icons" xmlns="http://www.w3.org/2000/svg" xmlns:xlink="http://www.w3.org/1999/xlink" x="0px" y="0px"
	 width="64px" height="64px" viewBox="0 0 64 64" enable-background="new 0 0 64 64" xml:space="preserve">
<g>
	<path fill="#E6E9ED" d="M1,48.505c0,0.55,0.45,1,1,1h48c0.55,0,1-0.45,1-1V5.495c0-0.55-0.45-1-1-1H2c-0.55,0-1,0.45-1,1V48.505z"
		/>
	<g>
		<path fill="#A0D468" d="M13,10.505c1.109,0,2,2.9,2,4.01c0,1.101-0.891,2-2,2c-1.1,0-2-0.899-2-2C11,13.405,11.9,10.505,13,10.505
			z"/>
	</g>
	<g>
		<path fill="#ED5565" d="M42,9.515c2.21,0,4,1.79,4,4c0,3-4,6-4,6s-4-3-4-6C38,11.305,39.79,9.515,42,9.515z"/>
	</g>
	<g>
		<path fill="#ED5565" d="M10,25.495c2.21,0,4,1.79,4,4c0,3.01-4,6.01-4,6.01s-4-3-4-6.01C6,27.285,7.79,25.495,10,25.495z"/>
	</g>
	<g>
		<path fill="#A0D468" d="M27.01,10.505c1.1,0,2,2.9,2,4.01c0,1.101-0.9,2-2,2c-1.109,0-2-0.899-2-2
			C25.01,13.405,25.9,10.505,27.01,10.505z"/>
	</g>
	<g>
		<path fill="#A0D468" d="M20,10.505c1.109,0,2,2.9,2,4.01c0,1.101-0.891,2-2,2c-1.1,0-2-0.899-2-2C18,13.405,18.9,10.505,20,10.505
			z"/>
	</g>
	<path fill="#5D9CEC" d="M52.34,46.845l9,3.98c0.98,0.49,1.66,1.51,1.66,2.68c0,0.101-0.01,0.21-0.02,0.311
		c-0.15,1.51-1.42,2.689-2.98,2.689H25v-7v-6.99c2.21,0,4,1.78,4,4h9v-0.01c2.21,0,4-1.779,4-3.99l0.09-0.199l4.91,2.17l2.67,1.18
		l1.33,0.59L52.34,46.845z"/>
	<g>
		<path fill="#656D78" d="M42.09,42.315L42,42.515c0,2.211-1.79,3.99-4,3.99v-6L42.09,42.315z"/>
	</g>
	<g>
		<path fill="#E6E9ED" d="M25,56.505h35c1.561,0,2.83-1.18,2.98-2.689c-0.15,3.18-2.771,5.689-5.98,5.689H26l-1-1V56.505z"/>
	</g>
	<path fill="#656D78" d="M45.56,47.402c0.142,0.069,0.292,0.103,0.439,0.103c0.369,0,0.725-0.205,0.898-0.56l0.994-2.024
		c0.006-0.012,0.005-0.025,0.01-0.037L47,44.485l-0.922-0.407l-0.976,1.986C44.859,46.56,45.063,47.159,45.56,47.402z"/>
	<path fill="#656D78" d="M48.231,48.583c0.142,0.069,0.292,0.103,0.439,0.103c0.369,0,0.725-0.205,0.898-0.56l0.994-2.024
		c0.006-0.012,0.004-0.024,0.01-0.036l-0.903-0.4l-0.92-0.406l-0.976,1.986C47.531,47.74,47.735,48.34,48.231,48.583z"/>
	<path fill="#656D78" d="M52.34,46.845l-0.92-0.405l-0.976,1.986c-0.243,0.495-0.039,1.095,0.457,1.338
		c0.142,0.069,0.292,0.103,0.439,0.103c0.369,0,0.725-0.205,0.898-0.56l0.994-2.024c0.006-0.013,0.005-0.025,0.01-0.038
		L52.34,46.845z"/>
	<g>
		<path fill="#ED5565" d="M10,36.496c-0.211,0-0.422-0.066-0.6-0.2C8.949,35.958,5,32.897,5,29.494c0-2.757,2.243-5,5-5s5,2.243,5,5
			c0,3.403-3.949,6.464-4.4,6.802C10.422,36.43,10.211,36.496,10,36.496z M10,26.494c-1.654,0-3,1.346-3,3
			c0,1.717,1.818,3.676,2.999,4.71c1.181-1.037,3.001-3,3.001-4.71C13,27.84,11.654,26.494,10,26.494z"/>
	</g>
	<g>
		<g>
			<path fill="#DA4453" d="M10.028,30.497c-0.553,0-1.005-0.447-1.005-1s0.442-1,0.994-1h0.011c0.552,0,1,0.447,1,1
				S10.58,30.497,10.028,30.497z"/>
		</g>
	</g>
	<g>
		<path fill="#ED5565" d="M41.998,20.508c-0.211,0-0.422-0.066-0.6-0.2c-0.451-0.338-4.4-3.398-4.4-6.802c0-2.757,2.243-5,5-5
			s5,2.243,5,5c0,3.403-3.949,6.464-4.4,6.802C42.42,20.441,42.209,20.508,41.998,20.508z M41.998,10.506c-1.654,0-3,1.346-3,3
			c0,1.717,1.818,3.676,2.999,4.71c1.181-1.037,3.001-3,3.001-4.71C44.998,11.852,43.652,10.506,41.998,10.506z"/>
	</g>
	<g>
		<g>
			<path fill="#DA4453" d="M42.026,14.509c-0.553,0-1.005-0.447-1.005-1s0.442-1,0.994-1h0.011c0.552,0,1,0.447,1,1
				S42.578,14.509,42.026,14.509z"/>
		</g>
	</g>
	<g>
		<g>
			<path fill="#CCD1D9" d="M20.002,35.509c-1.654,0-3-1.346-3-3s1.346-3,3-3c0.553,0,1,0.447,1,1s-0.447,1-1,1c-0.552,0-1,0.448-1,1
				s0.448,1,1,1c0.553,0,1,0.447,1,1S20.555,35.509,20.002,35.509z"/>
		</g>
		<g>
			<path fill="#CCD1D9" d="M20.002,27.509c-1.654,0-3-1.346-3-3s1.346-3,3-3c0.553,0,1,0.447,1,1s-0.447,1-1,1c-0.552,0-1,0.448-1,1
				s0.448,1,1,1c0.553,0,1,0.447,1,1S20.555,27.509,20.002,27.509z"/>
		</g>
		<g>
			<path fill="#CCD1D9" d="M31.992,39.51c-0.553,0-1-0.447-1-1s0.447-1,1-1c0.552,0,1-0.448,1-1s-0.448-1-1-1c-0.553,0-1-0.447-1-1
				s0.447-1,1-1c1.654,0,3,1.346,3,3S33.646,39.51,31.992,39.51z"/>
		</g>
		<g>
			<path fill="#CCD1D9" d="M31.992,31.51c-0.553,0-1-0.447-1-1s0.447-1,1-1c0.552,0,1-0.448,1-1s-0.448-1-1-1c-0.553,0-1-0.447-1-1
				s0.447-1,1-1c1.654,0,3,1.346,3,3S33.646,31.51,31.992,31.51z"/>
		</g>
		<g>
			<path fill="#CCD1D9" d="M31.992,35.51h-11.99c-0.553,0-1-0.447-1-1s0.447-1,1-1h11.99c0.553,0,1,0.447,1,1
				S32.545,35.51,31.992,35.51z"/>
		</g>
		<g>
			<path fill="#CCD1D9" d="M31.992,39.51H10c-0.553,0-1-0.447-1-1s0.447-1,1-1h21.992c0.553,0,1,0.447,1,1
				S32.545,39.51,31.992,39.51z"/>
		</g>
		<g>
			<path fill="#CCD1D9" d="M31.992,31.51h-11.99c-0.553,0-1-0.447-1-1s0.447-1,1-1h11.99c0.553,0,1,0.447,1,1
				S32.545,31.51,31.992,31.51z"/>
		</g>
		<g>
			<path fill="#CCD1D9" d="M31.992,27.51h-11.99c-0.553,0-1-0.447-1-1s0.447-1,1-1h11.99c0.553,0,1,0.447,1,1
				S32.545,27.51,31.992,27.51z"/>
		</g>
		<g>
			<path fill="#CCD1D9" d="M42.002,23.51h-22c-0.553,0-1-0.447-1-1s0.447-1,1-1h22c0.553,0,1,0.447,1,1S42.555,23.51,42.002,23.51z"
				/>
		</g>
	</g>
	<g>
		<path fill="#965353" d="M13,18.504c-0.553,0-1-0.447-1-1v-0.997c0-0.553,0.447-1,1-1s1,0.447,1,1v0.997
			C14,18.057,13.553,18.504,13,18.504z"/>
	</g>
	<g>
		<path fill="#965353" d="M20.002,18.504c-0.553,0-1-0.447-1-1v-0.997c0-0.553,0.447-1,1-1s1,0.447,1,1v0.997
			C21.002,18.057,20.555,18.504,20.002,18.504z"/>
	</g>
	<g>
		<path fill="#965353" d="M27.004,18.504c-0.553,0-1-0.447-1-1v-0.997c0-0.553,0.447-1,1-1s1,0.447,1,1v0.997
			C28.004,18.057,27.557,18.504,27.004,18.504z"/>
	</g>
	<g>
		<path fill="#A0D468" d="M13,17.507c-1.654,0-3-1.346-3-3c0-1.165,0.936-5.002,3-5.002s3,3.837,3,5.002
			C16,16.161,14.654,17.507,13,17.507z M13,11.59c-0.429,0.48-1,2.091-1,2.917c0,0.552,0.448,1,1,1s1-0.448,1-1
			C14,13.681,13.429,12.069,13,11.59z"/>
	</g>
	<g>
		<path fill="#A0D468" d="M20.002,17.507c-1.654,0-3-1.346-3-3c0-1.165,0.936-5.002,3-5.002s3,3.837,3,5.002
			C23.002,16.161,21.656,17.507,20.002,17.507z M20.002,11.59c-0.429,0.48-1,2.091-1,2.917c0,0.552,0.448,1,1,1s1-0.448,1-1
			C21.002,13.681,20.431,12.069,20.002,11.59z"/>
	</g>
	<g>
		<path fill="#A0D468" d="M27.004,17.507c-1.654,0-3-1.346-3-3c0-1.165,0.936-5.002,3-5.002s3,3.837,3,5.002
			C30.004,16.161,28.658,17.507,27.004,17.507z M27.004,11.59c-0.429,0.48-1,2.091-1,2.917c0,0.552,0.448,1,1,1s1-0.448,1-1
			C28.004,13.681,27.433,12.069,27.004,11.59z"/>
	</g>
	<circle fill="#E6E9ED" cx="26" cy="58.505" r="1"/>
</g>
</svg>
