<?xml version="1.0" encoding="utf-8"?>
<!-- Generator: Adobe Illustrator 16.0.0, SVG Export Plug-In . SVG Version: 6.00 Build 0)  -->
<!DOCTYPE svg PUBLIC "-//W3C//DTD SVG 1.1//EN" "http://www.w3.org/Graphics/SVG/1.1/DTD/svg11.dtd">
<svg version="1.1" id="icons" xmlns="http://www.w3.org/2000/svg" xmlns:xlink="http://www.w3.org/1999/xlink" x="0px" y="0px"
	 width="64px" height="64px" viewBox="0 0 64 64" enable-background="new 0 0 64 64" xml:space="preserve">
<g>
	<g>
		<path fill="#CCD1D9" d="M41.496,55.75H23.502c-0.553,0-1-0.447-1-1s0.447-1,1-1h17.994c0.553,0,1,0.447,1,1
			S42.049,55.75,41.496,55.75z"/>
	</g>
	<g>
		<path fill="#CCD1D9" d="M28.506,50.752H14.508c-0.553,0-1-0.447-1-1s0.447-1,1-1h13.998c0.553,0,1,0.447,1,1
			S29.059,50.752,28.506,50.752z"/>
	</g>
	<g>
		<path fill="#CCD1D9" d="M20.506,45.75H1.502c-0.553,0-1-0.447-1-1s0.447-1,1-1h19.004c0.553,0,1,0.447,1,1
			S21.059,45.75,20.506,45.75z"/>
	</g>
	<g>
		<path fill="#CCD1D9" d="M10.508,50.752h-2c-0.553,0-1-0.447-1-1s0.447-1,1-1h2c0.553,0,1,0.447,1,1S11.061,50.752,10.508,50.752z"
			/>
	</g>
	<g>
		<path fill="#CCD1D9" d="M19.516,40.742h-2c-0.553,0-1-0.447-1-1s0.447-1,1-1h2c0.553,0,1,0.447,1,1S20.068,40.742,19.516,40.742z"
			/>
	</g>
	<g>
		<path fill="#CCD1D9" d="M13.5,40.752H3.502c-0.553,0-1-0.447-1-1s0.447-1,1-1H13.5c0.553,0,1,0.447,1,1S14.053,40.752,13.5,40.752
			z"/>
	</g>
	<g>
		<path fill="#CCD1D9" d="M10.5,35.746H1.504c-0.553,0-1-0.447-1-1s0.447-1,1-1H10.5c0.553,0,1,0.447,1,1S11.053,35.746,10.5,35.746
			z"/>
	</g>
	<g>
		<path fill="#E6E9ED" d="M51.498,34.75v4c-2.21,0-4-1.791-4-4v-13l0.49,0.49l3.51,3.51v3v3V34.75z"/>
	</g>
	<g>
		<polygon fill="#E6E9ED" points="63.498,51.75 63.498,54.75 62.497,55.75 41.488,55.75 14.219,29.443 14.211,28.037 16.498,25.75 
			43.498,51.75 		"/>
	</g>
	<g>
		<path fill="#ED5565" d="M57.498,38.74v0.01h-6c-2.21,0-4-1.791-4-4v-13l0,0l-13.5-13.5l-17.5,17.5l27,26h20v-7.01
			C63.498,41.43,60.818,38.74,57.498,38.74z"/>
	</g>
	<path fill="#ED5565" d="M50.506,33.752c-0.553,0-1,0.447-1,1s0.447,1,1,1h0.992V34.75v-0.998H50.506z"/>
	<path fill="#ED5565" d="M50.506,30.752c-0.553,0-1,0.447-1,1s0.447,1,1,1h0.992V31.75v-0.998H50.506z"/>
	<path fill="#ED5565" d="M50.506,27.752c-0.553,0-1,0.447-1,1s0.447,1,1,1h0.992V28.75v-0.998H50.506z"/>
	<circle fill="#E6E9ED" cx="14.93" cy="28.74" r="1"/>
</g>
</svg>
