<?xml version="1.0" encoding="utf-8"?>
<!-- Generator: Adobe Illustrator 16.0.0, SVG Export Plug-In . SVG Version: 6.00 Build 0)  -->
<!DOCTYPE svg PUBLIC "-//W3C//DTD SVG 1.1//EN" "http://www.w3.org/Graphics/SVG/1.1/DTD/svg11.dtd">
<svg version="1.1" id="icons" xmlns="http://www.w3.org/2000/svg" xmlns:xlink="http://www.w3.org/1999/xlink" x="0px" y="0px"
	 width="64px" height="64px" viewBox="0 0 64 64" enable-background="new 0 0 64 64" xml:space="preserve">
<g>
	<g>
		<path fill="#CCD1D9" d="M8.001,37.494c-0.553,0-1-0.447-1-1v-16c0-0.553,0.447-1,1-1s1,0.447,1,1v16
			C9.001,37.047,8.554,37.494,8.001,37.494z"/>
	</g>
	<g>
		<path fill="#CCD1D9" d="M12.001,37.494c-0.553,0-1-0.447-1-1v-16c0-0.553,0.447-1,1-1s1,0.447,1,1v16
			C13.001,37.047,12.554,37.494,12.001,37.494z"/>
	</g>
	<g>
		<path fill="#CCD1D9" d="M16.001,37.494c-0.553,0-1-0.447-1-1v-16c0-0.553,0.447-1,1-1s1,0.447,1,1v16
			C17.001,37.047,16.554,37.494,16.001,37.494z"/>
	</g>
	<g>
		<path fill="#CCD1D9" d="M20.001,37.494c-0.553,0-1-0.447-1-1v-16c0-0.553,0.447-1,1-1s1,0.447,1,1v16
			C21.001,37.047,20.554,37.494,20.001,37.494z"/>
	</g>
	<g>
		<path fill="#CCD1D9" d="M24.001,37.494c-0.553,0-1-0.447-1-1v-16c0-0.553,0.447-1,1-1s1,0.447,1,1v16
			C25.001,37.047,24.554,37.494,24.001,37.494z"/>
	</g>
	<g>
		<path fill="#CCD1D9" d="M28.001,37.494c-0.553,0-1-0.447-1-1v-16c0-0.553,0.447-1,1-1s1,0.447,1,1v16
			C29.001,37.047,28.554,37.494,28.001,37.494z"/>
	</g>
	<g>
		<path fill="#CCD1D9" d="M32.001,37.494c-0.553,0-1-0.447-1-1v-16c0-0.553,0.447-1,1-1s1,0.447,1,1v16
			C33.001,37.047,32.554,37.494,32.001,37.494z"/>
	</g>
	<g>
		<path fill="#CCD1D9" d="M36.001,37.494c-0.553,0-1-0.447-1-1v-16c0-0.553,0.447-1,1-1s1,0.447,1,1v16
			C37.001,37.047,36.554,37.494,36.001,37.494z"/>
	</g>
	<g>
		<path fill="#CCD1D9" d="M40.001,37.494c-0.553,0-1-0.447-1-1v-16c0-0.553,0.447-1,1-1s1,0.447,1,1v16
			C41.001,37.047,40.554,37.494,40.001,37.494z"/>
	</g>
	<g>
		<path fill="#CCD1D9" d="M44.001,37.494c-0.553,0-1-0.447-1-1v-16c0-0.553,0.447-1,1-1s1,0.447,1,1v16
			C45.001,37.047,44.554,37.494,44.001,37.494z"/>
	</g>
	<g>
		<path fill="#CCD1D9" d="M48.001,37.494c-0.553,0-1-0.447-1-1v-16c0-0.553,0.447-1,1-1s1,0.447,1,1v16
			C49.001,37.047,48.554,37.494,48.001,37.494z"/>
	</g>
	<g>
		<path fill="#CCD1D9" d="M52.001,37.494c-0.553,0-1-0.447-1-1v-16c0-0.553,0.447-1,1-1s1,0.447,1,1v16
			C53.001,37.047,52.554,37.494,52.001,37.494z"/>
	</g>
	<g>
		<path fill="#CCD1D9" d="M56.001,37.494c-0.553,0-1-0.447-1-1v-16c0-0.553,0.447-1,1-1s1,0.447,1,1v16
			C57.001,37.047,56.554,37.494,56.001,37.494z"/>
	</g>
	<g>
		<path fill="#E6E9ED" d="M59.998,25.494H4.003c-0.553,0-1-0.447-1-1s0.447-1,1-1h55.995c0.553,0,1,0.447,1,1
			S60.551,25.494,59.998,25.494z"/>
	</g>
	<g>
		<path fill="#E6E9ED" d="M59.998,29.494H4.003c-0.553,0-1-0.447-1-1s0.447-1,1-1h55.995c0.553,0,1,0.447,1,1
			S60.551,29.494,59.998,29.494z"/>
	</g>
	<g>
		<path fill="#E6E9ED" d="M59.998,33.494H4.003c-0.553,0-1-0.447-1-1s0.447-1,1-1h55.995c0.553,0,1,0.447,1,1
			S60.551,33.494,59.998,33.494z"/>
	</g>
	<g>
		<path fill="#E6E9ED" d="M59.998,37.494H4.003c-0.553,0-1-0.447-1-1s0.447-1,1-1h55.995c0.553,0,1,0.447,1,1
			S60.551,37.494,59.998,37.494z"/>
	</g>
	<g>
		<circle fill="#5D9CEC" cx="32" cy="9.49" r="5"/>
	</g>
	<g>
		<polygon fill="#E6E9ED" points="60,18.49 60,20.49 56,20.49 52,20.49 48,20.49 44,20.49 40,20.49 36,20.49 32,20.49 28,20.49 
			24,20.49 20,20.49 16,20.49 12,20.49 8,20.49 4,20.49 4,18.49 		"/>
	</g>
	<g>
		<path fill="#656D78" d="M4.003,52.482c-0.553,0-1-0.447-1-1V20.494c0-0.553,0.447-1,1-1s1,0.447,1,1v30.988
			C5.003,52.035,4.556,52.482,4.003,52.482z"/>
	</g>
	<g>
		<path fill="#656D78" d="M59.998,52.482c-0.553,0-1-0.447-1-1V20.494c0-0.553,0.447-1,1-1s1,0.447,1,1v30.988
			C60.998,52.035,60.551,52.482,59.998,52.482z"/>
	</g>
	<g>
		<path fill="#5D9CEC" d="M32,15.49c-3.309,0-6-2.691-6-6s2.691-6,6-6s6,2.691,6,6S35.309,15.49,32,15.49z M32,5.49
			c-2.206,0-4,1.795-4,4s1.794,4,4,4s4-1.795,4-4S34.206,5.49,32,5.49z"/>
	</g>
	<g>
		<path fill="#E6E9ED" d="M59.998,21.494H4.003c-0.553,0-1-0.447-1-1v-2c0-0.553,0.447-1,1-1h55.995c0.553,0,1,0.447,1,1v2
			C60.998,21.047,60.551,21.494,59.998,21.494z M5.003,19.494h53.995l0,0H5.003L5.003,19.494z"/>
	</g>
	<g>
		<rect x="1" y="51.49" fill="#FFCE54" width="62" height="9.02"/>
	</g>
	<g>
		<g>
			<g>
				<path fill="#F6BB42" d="M4.029,55.508c-0.553,0-1.005-0.447-1.005-1s0.442-1,0.994-1h0.011c0.552,0,1,0.447,1,1
					S4.581,55.508,4.029,55.508z"/>
			</g>
		</g>
		<g>
			<g>
				<path fill="#F6BB42" d="M8.029,59.508c-0.553,0-1.005-0.447-1.005-1s0.442-1,0.994-1h0.011c0.552,0,1,0.447,1,1
					S8.581,59.508,8.029,59.508z"/>
			</g>
		</g>
		<g>
			<g>
				<path fill="#F6BB42" d="M12.029,55.508c-0.553,0-1.005-0.447-1.005-1s0.442-1,0.994-1h0.011c0.552,0,1,0.447,1,1
					S12.581,55.508,12.029,55.508z"/>
			</g>
		</g>
		<g>
			<g>
				<path fill="#F6BB42" d="M16.029,59.508c-0.553,0-1.005-0.447-1.005-1s0.442-1,0.994-1h0.011c0.552,0,1,0.447,1,1
					S16.581,59.508,16.029,59.508z"/>
			</g>
		</g>
		<g>
			<g>
				<path fill="#F6BB42" d="M20.029,55.508c-0.553,0-1.005-0.447-1.005-1s0.442-1,0.994-1h0.011c0.552,0,1,0.447,1,1
					S20.581,55.508,20.029,55.508z"/>
			</g>
		</g>
		<g>
			<g>
				<path fill="#F6BB42" d="M24.029,59.508c-0.553,0-1.005-0.447-1.005-1s0.442-1,0.994-1h0.011c0.552,0,1,0.447,1,1
					S24.581,59.508,24.029,59.508z"/>
			</g>
		</g>
		<g>
			<g>
				<path fill="#F6BB42" d="M28.029,55.508c-0.553,0-1.005-0.447-1.005-1s0.442-1,0.994-1h0.011c0.552,0,1,0.447,1,1
					S28.581,55.508,28.029,55.508z"/>
			</g>
		</g>
		<g>
			<g>
				<path fill="#F6BB42" d="M32.029,59.508c-0.553,0-1.005-0.447-1.005-1s0.442-1,0.994-1h0.011c0.552,0,1,0.447,1,1
					S32.581,59.508,32.029,59.508z"/>
			</g>
		</g>
		<g>
			<g>
				<path fill="#F6BB42" d="M36.029,55.508c-0.553,0-1.005-0.447-1.005-1s0.442-1,0.994-1h0.011c0.552,0,1,0.447,1,1
					S36.581,55.508,36.029,55.508z"/>
			</g>
		</g>
		<g>
			<g>
				<path fill="#F6BB42" d="M40.029,59.508c-0.553,0-1.005-0.447-1.005-1s0.442-1,0.994-1h0.011c0.552,0,1,0.447,1,1
					S40.581,59.508,40.029,59.508z"/>
			</g>
		</g>
		<g>
			<g>
				<path fill="#F6BB42" d="M44.029,55.508c-0.553,0-1.005-0.447-1.005-1s0.442-1,0.994-1h0.011c0.552,0,1,0.447,1,1
					S44.581,55.508,44.029,55.508z"/>
			</g>
		</g>
		<g>
			<g>
				<path fill="#F6BB42" d="M48.029,59.508c-0.553,0-1.005-0.447-1.005-1s0.442-1,0.994-1h0.011c0.552,0,1,0.447,1,1
					S48.581,59.508,48.029,59.508z"/>
			</g>
		</g>
		<g>
			<g>
				<path fill="#F6BB42" d="M52.029,55.508c-0.553,0-1.005-0.447-1.005-1s0.442-1,0.994-1h0.011c0.552,0,1,0.447,1,1
					S52.581,55.508,52.029,55.508z"/>
			</g>
		</g>
		<g>
			<g>
				<path fill="#F6BB42" d="M56.029,59.508c-0.553,0-1.005-0.447-1.005-1s0.442-1,0.994-1h0.011c0.552,0,1,0.447,1,1
					S56.581,59.508,56.029,59.508z"/>
			</g>
		</g>
		<g>
			<g>
				<path fill="#F6BB42" d="M60.029,55.508c-0.553,0-1.005-0.447-1.005-1s0.442-1,0.994-1h0.011c0.552,0,1,0.447,1,1
					S60.581,55.508,60.029,55.508z"/>
			</g>
		</g>
	</g>
</g>
</svg>
