<?xml version="1.0" encoding="utf-8"?>
<!-- Generator: Adobe Illustrator 16.0.0, SVG Export Plug-In . SVG Version: 6.00 Build 0)  -->
<!DOCTYPE svg PUBLIC "-//W3C//DTD SVG 1.1//EN" "http://www.w3.org/Graphics/SVG/1.1/DTD/svg11.dtd">
<svg version="1.1" id="icons" xmlns="http://www.w3.org/2000/svg" xmlns:xlink="http://www.w3.org/1999/xlink" x="0px" y="0px"
	 width="64px" height="64px" viewBox="0 0 64 64" enable-background="new 0 0 64 64" xml:space="preserve">
<g>
	<g>
		<path fill="#F6BB42" d="M32,13c-3.309,0-6-2.691-6-6s2.691-6,6-6s6,2.691,6,6S35.309,13,32,13z M32,3c-2.206,0-4,1.794-4,4
			s1.794,4,4,4s4-1.794,4-4S34.206,3,32,3z"/>
	</g>
	<g>
		<path fill="#F6BB42" d="M32,13c-0.553,0-1-0.447-1-1V8.004c0-0.553,0.447-1,1-1s1,0.447,1,1V12C33,12.553,32.553,13,32,13z"/>
	</g>
	<g>
		<path fill="#F6BB42" d="M48.973,19.029c-0.256,0-0.512-0.098-0.707-0.293c-0.391-0.391-0.391-1.023,0-1.414l1.824-1.824
			c0.391-0.391,1.023-0.391,1.414,0s0.391,1.023,0,1.414l-1.824,1.824C49.484,18.932,49.229,19.029,48.973,19.029z"/>
	</g>
	<g>
		<path fill="#F6BB42" d="M34,9.004h-4c-0.553,0-1-0.447-1-1s0.447-1,1-1h4c0.553,0,1,0.447,1,1S34.553,9.004,34,9.004z"/>
	</g>
	<g>
		<g>
			<path fill="#FFCE54" d="M48.97,18.03C53.31,22.38,56,28.38,56,35c0,13.26-10.74,24-24,24C18.75,59,8,48.26,8,35
				c0-13.25,10.75-24,24-24C38.63,11,44.63,13.69,48.97,18.03z M50.189,45.5C51.979,42.41,53,38.83,53,35
				c0-3.82-1.021-7.41-2.82-10.5c-1.83-3.19-4.49-5.84-7.68-7.68C39.41,15.02,35.83,14,32,14s-7.41,1.02-10.5,2.82
				c-3.19,1.84-5.851,4.489-7.69,7.68C12.02,27.59,11,31.18,11,35c0,3.83,1.02,7.41,2.81,10.5c1.84,3.19,4.5,5.85,7.69,7.69
				C24.59,54.98,28.17,56,32,56s7.41-1.02,10.5-2.81C45.689,51.35,48.35,48.69,50.189,45.5z"/>
		</g>
		<g>
			<path fill="#E6E9ED" d="M32,37c1.1,0,2-0.89,2-2c0-1.1-0.9-2-2-2c-1.101,0-2,0.9-2,2C30,36.11,30.899,37,32,37z M53,35
				c0,3.83-1.021,7.41-2.811,10.5c-1.84,3.19-4.5,5.85-7.689,7.69C39.41,54.98,35.83,56,32,56s-7.41-1.02-10.5-2.81
				c-3.19-1.841-5.851-4.5-7.69-7.69C12.02,42.41,11,38.83,11,35c0-3.82,1.02-7.41,2.81-10.5c1.84-3.19,4.5-5.84,7.69-7.68
				C24.59,15.02,28.17,14,32,14s7.41,1.02,10.5,2.82c3.189,1.84,5.85,4.489,7.68,7.68C51.979,27.59,53,31.18,53,35z"/>
		</g>
		<g>
			<path fill="#656D78" d="M32,33c1.1,0,2,0.9,2,2c0,1.11-0.9,2-2,2c-1.101,0-2-0.89-2-2C30,33.9,30.899,33,32,33z"/>
		</g>
		<g>
			<path fill="#F6BB42" d="M56,35v4c0,13.26-10.74,24-24,24C18.75,63,8,52.26,8,39v-4c0,13.26,10.75,24,24,24
				C45.26,59,56,48.26,56,35z"/>
		</g>
	</g>
	<g>
		<path fill="#545C66" d="M32,33.999c-0.553,0-1-0.447-1-1V20.001c0-0.553,0.447-1,1-1s1,0.447,1,1v12.998
			C33,33.552,32.553,33.999,32,33.999z"/>
	</g>
	<g>
		<path fill="#545C66" d="M32,42.003c-0.553,0-1-0.447-1-1v-4.004c0-0.553,0.447-1,1-1s1,0.447,1,1v4.004
			C33,41.556,32.553,42.003,32,42.003z"/>
	</g>
	<g>
		<g>
			<path fill="#656D78" d="M32,16.002c-0.553,0-1-0.447-1-1v-1.003c0-0.553,0.447-1,1-1s1,0.447,1,1v1.003
				C33,15.555,32.553,16.002,32,16.002z"/>
		</g>
		<g>
			<path fill="#656D78" d="M32,56.999c-0.553,0-1-0.447-1-1v-0.996c0-0.553,0.447-1,1-1s1,0.447,1,1v0.996
				C33,56.552,32.553,56.999,32,56.999z"/>
		</g>
		<g>
			<path fill="#656D78" d="M22.002,18.681c-0.346,0-0.682-0.18-0.867-0.5l-0.501-0.868c-0.276-0.479-0.112-1.09,0.366-1.366
				c0.476-0.277,1.089-0.112,1.366,0.366l0.501,0.868c0.276,0.479,0.112,1.09-0.366,1.366
				C22.344,18.638,22.172,18.681,22.002,18.681z"/>
		</g>
		<g>
			<path fill="#656D78" d="M42.501,54.186c-0.346,0-0.682-0.179-0.867-0.5l-0.498-0.862c-0.276-0.479-0.112-1.09,0.366-1.366
				c0.476-0.276,1.089-0.113,1.366,0.366l0.498,0.862c0.276,0.479,0.112,1.09-0.366,1.366
				C42.843,54.143,42.671,54.186,42.501,54.186z"/>
		</g>
		<g>
			<path fill="#656D78" d="M14.681,26c-0.169,0-0.341-0.043-0.498-0.134l-0.869-0.501C12.835,25.09,12.67,24.479,12.946,24
				c0.274-0.479,0.887-0.644,1.365-0.367l0.869,0.501c0.479,0.275,0.644,0.887,0.367,1.365C15.363,25.82,15.026,26,14.681,26z"/>
		</g>
		<g>
			<path fill="#656D78" d="M50.185,46.499c-0.17,0-0.342-0.043-0.5-0.135l-0.861-0.498c-0.478-0.276-0.642-0.888-0.364-1.366
				c0.275-0.479,0.886-0.644,1.366-0.364l0.861,0.498c0.478,0.276,0.642,0.888,0.364,1.366C50.866,46.32,50.53,46.499,50.185,46.499
				z"/>
		</g>
		<g>
			<path fill="#656D78" d="M12.002,35.999h-1.004c-0.553,0-1-0.447-1-1s0.447-1,1-1h1.004c0.553,0,1,0.447,1,1
				S12.555,35.999,12.002,35.999z"/>
		</g>
		<g>
			<path fill="#656D78" d="M52.998,35.999h-0.994c-0.553,0-1-0.447-1-1s0.447-1,1-1h0.994c0.553,0,1,0.447,1,1
				S53.551,35.999,52.998,35.999z"/>
		</g>
		<g>
			<path fill="#656D78" d="M13.813,46.5c-0.346,0-0.682-0.179-0.867-0.5c-0.276-0.479-0.112-1.09,0.366-1.366l0.869-0.502
				c0.477-0.276,1.089-0.113,1.366,0.366c0.276,0.479,0.112,1.09-0.366,1.366l-0.869,0.502C14.154,46.457,13.982,46.5,13.813,46.5z"
				/>
		</g>
		<g>
			<path fill="#656D78" d="M49.324,25.997c-0.346,0-0.682-0.18-0.867-0.5c-0.276-0.479-0.112-1.09,0.366-1.366l0.861-0.497
				c0.477-0.276,1.089-0.112,1.366,0.366c0.276,0.479,0.112,1.09-0.366,1.366l-0.861,0.497
				C49.666,25.954,49.494,25.997,49.324,25.997z"/>
		</g>
		<g>
			<path fill="#656D78" d="M21.497,54.187c-0.17,0-0.342-0.043-0.499-0.134c-0.479-0.276-0.643-0.888-0.366-1.366l0.502-0.869
				c0.276-0.479,0.889-0.643,1.366-0.366c0.479,0.276,0.643,0.888,0.366,1.366l-0.502,0.869
				C22.179,54.008,21.843,54.187,21.497,54.187z"/>
		</g>
		<g>
			<path fill="#656D78" d="M42,18.675c-0.17,0-0.342-0.043-0.499-0.134c-0.479-0.276-0.643-0.888-0.366-1.366l0.497-0.861
				c0.276-0.479,0.889-0.643,1.366-0.366c0.479,0.276,0.643,0.888,0.366,1.366l-0.497,0.861C42.682,18.495,42.346,18.675,42,18.675z
				"/>
		</g>
	</g>
	<g>
		<path fill="#CCD1D9" d="M36,46.003h-8c-0.553,0-1-0.447-1-1s0.447-1,1-1h8c0.553,0,1,0.447,1,1S36.553,46.003,36,46.003z"/>
	</g>
	<g>
		<path fill="#CCD1D9" d="M34,49.003h-4c-0.553,0-1-0.447-1-1s0.447-1,1-1h4c0.553,0,1,0.447,1,1S34.553,49.003,34,49.003z"/>
	</g>
	<g>
		<path fill="#FFCE54" d="M32,56.999c-12.131,0-22-9.869-22-22s9.869-22,22-22s22,9.869,22,22S44.131,56.999,32,56.999z M32,14.999
			c-11.028,0-20,8.972-20,20s8.972,20,20,20s20-8.972,20-20S43.028,14.999,32,14.999z"/>
	</g>
	<g>
		<path fill="#656D78" d="M32,37.999c-1.654,0-3-1.346-3-3s1.346-3,3-3s3,1.346,3,3S33.654,37.999,32,37.999z M32,33.999
			c-0.552,0-1,0.448-1,1s0.448,1,1,1s1-0.448,1-1S32.552,33.999,32,33.999z"/>
	</g>
</g>
</svg>
