<?xml version="1.0" encoding="utf-8"?>
<!-- Generator: Adobe Illustrator 16.0.0, SVG Export Plug-In . SVG Version: 6.00 Build 0)  -->
<!DOCTYPE svg PUBLIC "-//W3C//DTD SVG 1.1//EN" "http://www.w3.org/Graphics/SVG/1.1/DTD/svg11.dtd">
<svg version="1.1" id="icons" xmlns="http://www.w3.org/2000/svg" xmlns:xlink="http://www.w3.org/1999/xlink" x="0px" y="0px"
	 width="64px" height="64px" viewBox="0 0 64 64" enable-background="new 0 0 64 64" xml:space="preserve">
<g>
	<g>
		<rect x="10.5" y="3.5" fill="#656D78" width="5" height="3"/>
	</g>
	<g>
		<rect x="43.49" y="3.5" fill="#656D78" width="5" height="3"/>
	</g>
	<path fill="#656D78" d="M10.5,7.501c-0.553,0-1-0.447-1-1v-3c0-0.553,0.447-1,1-1s1,0.447,1,1v3
		C11.5,7.054,11.053,7.501,10.5,7.501z"/>
	<path fill="#656D78" d="M15.5,7.501c-0.553,0-1-0.447-1-1v-3c0-0.553,0.447-1,1-1s1,0.447,1,1v3
		C16.5,7.054,16.053,7.501,15.5,7.501z"/>
	<path fill="#656D78" d="M15.5,4.501h-5c-0.553,0-1-0.447-1-1s0.447-1,1-1h5c0.553,0,1,0.447,1,1S16.053,4.501,15.5,4.501z"/>
	<path fill="#656D78" d="M43.494,7.501c-0.553,0-1-0.447-1-1v-3c0-0.553,0.447-1,1-1s1,0.447,1,1v3
		C44.494,7.054,44.047,7.501,43.494,7.501z"/>
	<path fill="#656D78" d="M48.494,7.501c-0.553,0-1-0.447-1-1v-3c0-0.553,0.447-1,1-1s1,0.447,1,1v3
		C49.494,7.054,49.047,7.501,48.494,7.501z"/>
	<path fill="#656D78" d="M48.494,4.501h-5c-0.553,0-1-0.447-1-1s0.447-1,1-1h5c0.553,0,1,0.447,1,1S49.047,4.501,48.494,4.501z"/>
	<g>
		<rect x="2.73" y="5.604" fill="#E6E9ED" width="53.994" height="36.989"/>
	</g>
	<g>
		<path fill="#FFD2A6" d="M43.01,45.489H1.5v-3h1h40v0.01v0.05C42.51,43.579,42.68,44.568,43.01,45.489z"/>
	</g>
	<g>
		<path fill="#656D78" d="M10.48,30.479c1.659,0,3,1.351,3,3c0,1.66-1.341,3-3,3c-1.65,0-3-1.34-3-3
			C7.48,31.829,8.83,30.479,10.48,30.479z"/>
	</g>
	<g>
		<path fill="#656D78" d="M48.48,19.479c0,1.66-1.341,3-3,3c-1.65,0-3-1.34-3-3c0-1.649,1.35-3,3-3
			C47.14,16.479,48.48,17.829,48.48,19.479z"/>
	</g>
	<g>
		<polygon fill="#DA4453" points="51.48,10.479 50.48,12.479 51.48,14.479 45.48,14.479 45.48,10.479 		"/>
	</g>
	<g>
		<path fill="#E6E9ED" d="M42.499,43.49H2.5c-0.553,0-1-0.447-1-1V5.5c0-0.553,0.447-1,1-1h53.994c0.553,0,1,0.447,1,1v24.507
			c0,0.553-0.447,1-1,1s-1-0.447-1-1V6.5H3.5v34.99h38.999c0.553,0,1,0.447,1,1S43.052,43.49,42.499,43.49z"/>
	</g>
	<g>
		<path fill="#FFD2A6" d="M43.01,45.489H1.5c-0.553,0-1-0.447-1-1V42.49c0-0.553,0.447-1,1-1h41c0.553,0,1,0.447,1,1s-0.447,1-1,1
			h-40v-0.001h40.51c0.553,0,1,0.447,1,1S43.563,45.489,43.01,45.489z"/>
	</g>
	<g>
		<path fill="#656D78" d="M10.487,37.485c-2.206,0-4-1.794-4-4s1.794-4,4-4s4,1.794,4,4S12.693,37.485,10.487,37.485z
			 M10.487,31.485c-1.103,0-2,0.897-2,2s0.897,2,2,2s2-0.897,2-2S11.59,31.485,10.487,31.485z"/>
	</g>
	<g>
		<path fill="#656D78" d="M45.487,23.485c-2.206,0-4-1.794-4-4s1.794-4,4-4s4,1.794,4,4S47.693,23.485,45.487,23.485z
			 M45.487,17.485c-1.103,0-2,0.897-2,2s0.897,2,2,2s2-0.897,2-2S46.59,17.485,45.487,17.485z"/>
	</g>
	<g>
		<path fill="#DA4453" d="M51.487,11.485h-6c-0.553,0-1-0.447-1-1s0.447-1,1-1h6c0.553,0,1,0.447,1,1S52.04,11.485,51.487,11.485z"
			/>
	</g>
	<g>
		<path fill="#DA4453" d="M51.487,15.485h-6c-0.553,0-1-0.447-1-1s0.447-1,1-1h6c0.553,0,1,0.447,1,1S52.04,15.485,51.487,15.485z"
			/>
	</g>
	<g>
		<path fill="#DA4453" d="M51.488,15.485c-0.367,0-0.72-0.202-0.896-0.553l-1-2c-0.141-0.281-0.141-0.613,0-0.895l1-2
			c0.248-0.494,0.849-0.693,1.342-0.447c0.494,0.247,0.694,0.848,0.447,1.342l-0.776,1.553l0.776,1.553
			c0.247,0.494,0.047,1.095-0.447,1.342C51.791,15.451,51.639,15.485,51.488,15.485z"/>
	</g>
	<g>
		<path fill="#CCD1D9" d="M15.487,29.485c-0.236,0-0.474-0.083-0.664-0.253c-0.413-0.366-0.45-0.999-0.083-1.411
			c0.339-0.382,8.474-9.336,23.747-9.336c0.553,0,1,0.447,1,1s-0.447,1-1,1c-14.385,0-22.176,8.578-22.253,8.664
			C16.037,29.372,15.763,29.485,15.487,29.485z"/>
	</g>
	<g>
		<path fill="#CCD1D9" d="M36.487,22.485c-0.256,0-0.512-0.098-0.707-0.293c-0.391-0.391-0.391-1.023,0-1.414l2-2
			c0.391-0.391,1.023-0.391,1.414,0s0.391,1.023,0,1.414l-2,2C36.999,22.388,36.743,22.485,36.487,22.485z"/>
	</g>
	<g>
		<path fill="#CCD1D9" d="M38.487,20.485c-0.256,0-0.512-0.098-0.707-0.293l-2-2c-0.391-0.391-0.391-1.023,0-1.414
			s1.023-0.391,1.414,0l2,2c0.391,0.391,0.391,1.023,0,1.414C38.999,20.388,38.743,20.485,38.487,20.485z"/>
	</g>
	<g>
		<path fill="#545C66" d="M10.518,34.486c-0.553,0-1.005-0.447-1.005-1s0.442-1,0.994-1h0.011c0.552,0,1,0.447,1,1
			S11.069,34.486,10.518,34.486z"/>
	</g>
	<g>
		<path fill="#ED5565" d="M12.487,19.484c-0.256,0-0.512-0.098-0.707-0.293l-1.998-1.998c-0.391-0.391-0.391-1.023,0-1.414
			s1.023-0.391,1.414,0l1.998,1.998c0.391,0.391,0.391,1.023,0,1.414C12.999,19.387,12.743,19.484,12.487,19.484z"/>
	</g>
	<g>
		<path fill="#ED5565" d="M10.489,19.484c-0.256,0-0.512-0.098-0.707-0.293c-0.391-0.391-0.391-1.023,0-1.414l1.998-1.998
			c0.391-0.391,1.023-0.391,1.414,0s0.391,1.023,0,1.414l-1.998,1.998C11.001,19.387,10.745,19.484,10.489,19.484z"/>
	</g>
	<g>
		<path fill="#ED5565" d="M25.485,15.487c-0.256,0-0.512-0.098-0.707-0.293l-1.998-1.998c-0.391-0.391-0.391-1.023,0-1.414
			s1.023-0.391,1.414,0l1.998,1.998c0.391,0.391,0.391,1.023,0,1.414C25.997,15.39,25.741,15.487,25.485,15.487z"/>
	</g>
	<g>
		<path fill="#ED5565" d="M23.487,15.487c-0.256,0-0.512-0.098-0.707-0.293c-0.391-0.391-0.391-1.023,0-1.414l1.998-1.998
			c0.391-0.391,1.023-0.391,1.414,0s0.391,1.023,0,1.414l-1.998,1.998C23.999,15.39,23.743,15.487,23.487,15.487z"/>
	</g>
	<g>
		<path fill="#ED5565" d="M29.487,36.482c-0.256,0-0.512-0.098-0.707-0.293l-1.998-1.998c-0.391-0.391-0.391-1.023,0-1.414
			s1.023-0.391,1.414,0l1.998,1.998c0.391,0.391,0.391,1.023,0,1.414C29.999,36.385,29.743,36.482,29.487,36.482z"/>
	</g>
	<g>
		<path fill="#ED5565" d="M27.489,36.482c-0.256,0-0.512-0.098-0.707-0.293c-0.391-0.391-0.391-1.023,0-1.414l1.998-1.998
			c0.391-0.391,1.023-0.391,1.414,0s0.391,1.023,0,1.414l-1.998,1.998C28.001,36.385,27.745,36.482,27.489,36.482z"/>
	</g>
	<g>
		<path fill="#ED5565" d="M45.487,20.485c-0.553,0-1-0.447-1-1v-9c0-0.553,0.447-1,1-1s1,0.447,1,1v9
			C46.487,20.038,46.04,20.485,45.487,20.485z"/>
	</g>
	<g>
		<path fill="#656D78" d="M60.5,38.619c0.72,0.489,1,0.87,1,0.87h-1h-18h-1c0,0,0.29-0.381,1-0.87c1.29-0.891,4-2.13,9-2.13
			C56.51,36.489,59.22,37.739,60.5,38.619z"/>
	</g>
	<g>
		<path fill="#965353" d="M60.5,42.489v0.01c0,3.529-2.04,6.59-5,8.06c-1.2,0.601-2.56,0.94-4,0.94s-2.8-0.34-4-0.94
			c-2.08-1.03-3.71-2.85-4.49-5.069c-0.33-0.921-0.5-1.91-0.51-2.94v-0.05v-0.01h1c0,3.31,2.68,6,6,6l1-1h2l1,1c3.31,0,6-2.69,6-6
			H60.5z"/>
	</g>
	<g>
		<path fill="#E6E9ED" d="M51.5,51.499c1.44,0,2.8-0.34,4-0.94v3.94l-2,1l-2-1l-2,1l-2-1v-3.94
			C48.7,51.159,50.06,51.499,51.5,51.499z"/>
	</g>
	<g>
		<path fill="#EAC6BB" d="M42.5,39.489h18v3h-1c0,3.31-2.69,6-6,6l-1-1h-2l-1,1c-3.32,0-6-2.69-6-6h-1V39.489z"/>
	</g>
	<g>
		<path fill="#545C66" d="M60.5,37.489v1.13c-1.28-0.88-3.99-2.13-9-2.13c-5,0-7.71,1.239-9,2.13v-1.13c0-4.971,4.03-9,9-9
			c1.74,0,3.38,0.5,4.76,1.369C58.81,31.438,60.5,34.269,60.5,37.489z"/>
	</g>
	<g>
		<path fill="#ED5565" d="M63.5,59.499v2h-24v-2c0-2.76,2.23-5,5-5h3l2,1l2-1l2,1l2-1h3C61.26,54.499,63.5,56.739,63.5,59.499z"/>
	</g>
</g>
</svg>
