<?xml version="1.0" encoding="utf-8"?>
<!-- Generator: Adobe Illustrator 16.0.0, SVG Export Plug-In . SVG Version: 6.00 Build 0)  -->
<!DOCTYPE svg PUBLIC "-//W3C//DTD SVG 1.1//EN" "http://www.w3.org/Graphics/SVG/1.1/DTD/svg11.dtd">
<svg version="1.1" id="icons" xmlns="http://www.w3.org/2000/svg" xmlns:xlink="http://www.w3.org/1999/xlink" x="0px" y="0px"
	 width="64px" height="64px" viewBox="0 0 64 64" enable-background="new 0 0 64 64" xml:space="preserve">
<g>
	<g>
		<g>
			<path fill="#E6E9ED" d="M41.5,45.999h3v1h-0.01c0,1.66-1.34,3-2.99,3c-1.66,0-3-1.34-3-3v-1H41.5z"/>
		</g>
		<g>
			<path fill="#FFCE54" d="M41.5,39.499v6.5h-3l-2-6.5c0-1.38,1.12-2.5,2.5-2.5S41.5,38.119,41.5,39.499z"/>
		</g>
		<g>
			<path fill="#F6BB42" d="M46.5,39.499l-2,6.5h-3v-6.5c0-1.38,1.12-2.5,2.5-2.5S46.5,38.119,46.5,39.499z"/>
		</g>
		<g>
			<polygon fill="#656D78" points="30.5,41.999 30.5,59.999 26.5,59.999 26.5,41.999 28.5,41.999 			"/>
		</g>
		<g>
			<polygon fill="#E6E9ED" points="31.5,59.999 31.5,62.999 25.5,62.999 25.5,59.999 26.5,59.999 30.5,59.999 			"/>
		</g>
	</g>
	<g>
		<path fill="#CCD1D9" d="M28.5,43c-0.553,0-1-0.447-1-1V1c0-0.553,0.447-1,1-1s1,0.447,1,1v41C29.5,42.553,29.053,43,28.5,43z"/>
	</g>
	<g>
		<path fill="#CCD1D9" d="M23.499,30.661c-0.553,0-1-0.447-1-1V2.339c0-0.553,0.447-1,1-1s1,0.447,1,1v27.322
			C24.499,30.214,24.052,30.661,23.499,30.661z"/>
	</g>
	<g>
		<path fill="#CCD1D9" d="M33.5,30.661c-0.553,0-1-0.447-1-1V2.339c0-0.553,0.447-1,1-1s1,0.447,1,1v27.322
			C34.5,30.214,34.053,30.661,33.5,30.661z"/>
	</g>
	<g>
		<path fill="#CCD1D9" d="M37.162,27H19.838c-0.553,0-1-0.447-1-1s0.447-1,1-1h17.324c0.553,0,1,0.447,1,1S37.715,27,37.162,27z"/>
	</g>
	<g>
		<path fill="#CCD1D9" d="M38.5,22h-20c-0.553,0-1-0.447-1-1s0.447-1,1-1h20c0.553,0,1,0.447,1,1S39.053,22,38.5,22z"/>
	</g>
	<g>
		<path fill="#CCD1D9" d="M37.162,7.001H19.838c-0.553,0-1-0.447-1-1s0.447-1,1-1h17.324c0.553,0,1,0.447,1,1
			S37.715,7.001,37.162,7.001z"/>
	</g>
	<g>
		<path fill="#CCD1D9" d="M38.5,12.001h-20c-0.553,0-1-0.447-1-1s0.447-1,1-1h20c0.553,0,1,0.447,1,1S39.053,12.001,38.5,12.001z"/>
	</g>
	<g>
		<path fill="#CCD1D9" d="M38.5,17h-20c-0.553,0-1-0.447-1-1s0.447-1,1-1h20c0.553,0,1,0.447,1,1S39.053,17,38.5,17z"/>
	</g>
	<g>
		<path fill="#656D78" d="M30.5,60.998h-3.999c-0.553,0-1-0.447-1-1V42c0-0.553,0.447-1,1-1H30.5c0.553,0,1,0.447,1,1v17.998
			C31.5,60.551,31.053,60.998,30.5,60.998z M27.501,58.998H29.5V43h-1.999V58.998z"/>
	</g>
	<g>
		<path fill="#E6E9ED" d="M31.5,64h-6c-0.553,0-1-0.447-1-1v-3c0-0.553,0.447-1,1-1h6c0.553,0,1,0.447,1,1v3
			C32.5,63.553,32.053,64,31.5,64z M26.5,62h4v-1h-4V62z"/>
	</g>
	<g>
		<g>
			<path fill="#E6E9ED" d="M38.5,12c-0.553,0-1-0.447-1-1c0-4.963-4.037-9-9-9s-9,4.037-9,9c0,0.553-0.447,1-1,1s-1-0.447-1-1
				c0-6.065,4.935-11,11-11s11,4.935,11,11C39.5,11.553,39.053,12,38.5,12z"/>
		</g>
		<g>
			<path fill="#E6E9ED" d="M28.5,32c-6.065,0-11-4.935-11-11c0-0.553,0.447-1,1-1s1,0.447,1,1c0,4.963,4.037,9,9,9s9-4.037,9-9
				c0-0.553,0.447-1,1-1s1,0.447,1,1C39.5,27.065,34.565,32,28.5,32z"/>
		</g>
		<g>
			<path fill="#E6E9ED" d="M38.5,22c-0.553,0-1-0.447-1-1V11c0-0.553,0.447-1,1-1s1,0.447,1,1v10C39.5,21.553,39.053,22,38.5,22z"/>
		</g>
		<g>
			<path fill="#E6E9ED" d="M18.5,22c-0.553,0-1-0.447-1-1V11c0-0.553,0.447-1,1-1s1,0.447,1,1v10C19.5,21.553,19.053,22,18.5,22z"/>
		</g>
	</g>
</g>
</svg>
