<?xml version="1.0" encoding="utf-8"?>
<!-- Generator: Adobe Illustrator 16.0.0, SVG Export Plug-In . SVG Version: 6.00 Build 0)  -->
<!DOCTYPE svg PUBLIC "-//W3C//DTD SVG 1.1//EN" "http://www.w3.org/Graphics/SVG/1.1/DTD/svg11.dtd">
<svg version="1.1" id="icons" xmlns="http://www.w3.org/2000/svg" xmlns:xlink="http://www.w3.org/1999/xlink" x="0px" y="0px"
	 width="64px" height="64px" viewBox="0 0 64 64" enable-background="new 0 0 64 64" xml:space="preserve">
<g>
	<g>
		<rect x="57.5" y="26.99" fill="#F6BB42" width="4" height="4"/>
	</g>
	<g>
		<path fill="#E6E9ED" d="M49.5,14.99c6.62,0,12,5.38,12,12h-4c0-4.41-3.59-8-8-8c-4.42,0-8,3.59-8,8V45.02c0,4.42,3.58,8,8,8
			c4.41,0,8-3.58,8-8h4c0,6.62-5.38,12-12,12c-6.63,0-12-5.38-12-12V26.99C37.5,20.37,42.87,14.99,49.5,14.99z"/>
	</g>
	<g>
		<polygon fill="#F6BB42" points="61.5,45.01 61.5,45.02 57.5,45.02 57.5,45.01 57.5,41.01 57.5,41 61.5,41 61.5,41.01 		"/>
	</g>
	<g>
		<g>
			<path fill="#965353" d="M29.76,31.76c1.08,1.09,1.75,2.58,1.75,4.24s-0.67,3.149-1.75,4.24l-2.83-2.82
				c0.36-0.37,0.58-0.87,0.58-1.42s-0.22-1.05-0.58-1.41L29.76,31.76z"/>
		</g>
		<g>
			<path fill="#965353" d="M12.51,30.01l-4,4H7.5c-1.66,0-3.16-0.67-4.24-1.76l2.83-2.83c0.36,0.37,0.85,0.59,1.41,0.59H12.51z"/>
		</g>
		<g>
			<path fill="#965353" d="M8.55,22.01l3.939,3.93v0.07H7.5c-0.55,0-1.05,0.22-1.41,0.58l-2.83-2.82c1.08-1.09,2.58-1.76,4.24-1.76
				H8.55z"/>
		</g>
		<g>
			<polygon fill="#965353" points="22.51,30.01 22.52,30 24.52,30 24.52,30.01 20.52,34.01 14.52,34.01 18.52,30.01 			"/>
		</g>
		<g>
			<polygon fill="#965353" points="19.52,6.93 19.52,12.939 19.489,12.939 15.52,8.979 15.52,2.96 19.489,6.93 			"/>
		</g>
		<g>
			<path fill="#965353" d="M19.489,18.96h0.03v1.03V20c0,1.66-0.67,3.16-1.76,4.25l-2.83-2.83c0.37-0.37,0.59-0.87,0.59-1.42v-0.01
				v-5L19.489,18.96z"/>
		</g>
		<g>
			<polygon fill="#965353" points="17.479,61 17.52,61 17.52,63 13.52,63 13.52,57.03 			"/>
		</g>
		<g>
			<path fill="#965353" d="M20.52,38l3.99,3.99V42h-4.99c-0.56,0-1.06,0.229-1.42,0.59l-2.83-2.83c1.08-1.09,2.59-1.76,4.25-1.76
				H20.52z"/>
		</g>
		<g>
			<polygon fill="#965353" points="17.52,48.97 17.52,54.979 17.479,54.979 13.52,51.02 13.52,45 17.479,48.97 			"/>
		</g>
	</g>
	<g>
		<g>
			<path fill="#844747" d="M6.09,29.42l-2.83,2.83c-1.09-1.08-1.76-2.58-1.76-4.24s0.67-3.16,1.76-4.24l2.83,2.82
				c-0.37,0.36-0.59,0.86-0.59,1.42C5.5,28.56,5.729,29.07,6.09,29.42z"/>
		</g>
		<g>
			<polygon fill="#844747" points="19.52,1 19.52,6.93 19.489,6.93 15.52,2.96 15.52,1 			"/>
		</g>
		<g>
			<path fill="#844747" d="M12.489,25.939L8.55,22.01h4.95L13.52,22c0.55,0,1.05-0.22,1.41-0.58l2.83,2.83
				C16.68,25.33,15.18,26,13.52,26l-0.02,0.01h-1.011V25.939z"/>
		</g>
		<g>
			<path fill="#844747" d="M25.51,30c1.66,0,3.17,0.67,4.25,1.76l-2.83,2.83c-0.37-0.36-0.87-0.59-1.42-0.59h-5l3.99-3.99V30H25.51z
				"/>
		</g>
		<g>
			<polygon fill="#844747" points="16.5,30.01 16.51,30 18.51,30 18.51,30.01 14.51,34.01 8.51,34.01 12.51,30.01 			"/>
		</g>
		<g>
			<path fill="#844747" d="M15.27,39.76l2.83,2.83c-0.36,0.36-0.58,0.86-0.58,1.41v0.01v4.96h-0.04L13.52,45v-0.99V44
				C13.52,42.34,14.189,40.85,15.27,39.76z"/>
		</g>
		<g>
			<path fill="#844747" d="M25.51,42h-1v-0.01L20.52,38h4.99c0.55,0,1.05-0.22,1.42-0.58l2.83,2.82C28.68,41.33,27.17,42,25.51,42z"
				/>
		</g>
		<g>
			<polygon fill="#844747" points="19.52,12.939 19.52,18.96 19.489,18.96 15.52,14.99 15.52,8.979 19.489,12.939 			"/>
		</g>
		<g>
			<polygon fill="#844747" points="17.52,54.979 17.52,61 17.479,61 13.52,57.03 13.52,51.02 17.479,54.979 			"/>
		</g>
	</g>
	<path fill="#FFCE54" d="M56.5,40c0,0.55,0.45,1,1,1h4c0.55,0,1-0.45,1-1v-8.01c0-0.55-0.45-1-1-1h-4c-0.55,0-1,0.45-1,1V40z"/>
</g>
</svg>
