<?xml version="1.0" encoding="utf-8"?>
<!-- Generator: Adobe Illustrator 16.0.0, SVG Export Plug-In . SVG Version: 6.00 Build 0)  -->
<!DOCTYPE svg PUBLIC "-//W3C//DTD SVG 1.1//EN" "http://www.w3.org/Graphics/SVG/1.1/DTD/svg11.dtd">
<svg version="1.1" id="icons" xmlns="http://www.w3.org/2000/svg" xmlns:xlink="http://www.w3.org/1999/xlink" x="0px" y="0px"
	 width="64px" height="64px" viewBox="0 0 64 64" enable-background="new 0 0 64 64" xml:space="preserve">
<g>
	<g>
		<path fill="#FFD2A6" d="M54,35c0,10.25-1.859,19.82-6.81,28H44.01V1.01C51.5,10.32,54,22.129,54,35z"/>
	</g>
	<g>
		<path fill="#FFD2A6" d="M44.01,1.01V63h-3.199C35.86,54.82,34,45.25,34,35c0-12.871,2.49-24.691,10-34L44.01,1.01z"/>
	</g>
	<g>
		<path fill="#DA4453" d="M23.19,63h-6.38C11.86,54.82,10,45.25,10,35c0-12.871,2.49-24.691,10-34c7.5,9.309,10,21.129,10,34
			C30,45.25,28.141,54.82,23.19,63z"/>
	</g>
	<path fill="#DA4453" d="M23.195,64h-6.389c-0.35,0-0.675-0.184-0.855-0.482C11.275,55.791,9.002,46.463,9.002,35
		c0-14.77,3.343-26.096,10.22-34.629c0.379-0.471,1.178-0.471,1.557,0C27.655,8.904,30.998,20.23,30.998,35
		c0,11.461-2.272,20.789-6.947,28.518C23.87,63.816,23.545,64,23.195,64z M17.375,62h5.252c4.286-7.314,6.371-16.152,6.371-27
		c0-13.719-2.945-24.326-8.998-32.373C13.947,10.674,11.002,21.281,11.002,35C11.002,45.848,13.087,54.688,17.375,62z"/>
	<g>
		<path fill="#FFD2A6" d="M47.195,64h-6.389c-0.35,0-0.675-0.184-0.855-0.482c-4.676-7.73-6.949-17.059-6.949-28.518
			c0-14.77,3.344-26.096,10.222-34.629C43.413,0.137,43.699,0,44.002,0l0,0c0.303,0,0.589,0.137,0.778,0.371
			C51.656,8.902,54.998,20.229,54.998,35c0,11.461-2.272,20.789-6.947,28.518C47.87,63.816,47.545,64,47.195,64z M41.375,62h5.252
			c4.286-7.314,6.371-16.152,6.371-27c0-13.721-2.945-24.326-8.996-32.373c-6.054,8.047-9,18.654-9,32.373
			C35.002,45.844,37.088,54.684,41.375,62z"/>
	</g>
	<g>
		<path fill="#ED5565" d="M20,61c-0.553,0-1-0.447-1-1v-4c0-0.553,0.447-1,1-1s1,0.447,1,1v4C21,60.553,20.553,61,20,61z"/>
	</g>
	<g>
		<path fill="#ED5565" d="M24.004,53.992c-0.553,0-1-0.447-1-1v-3.998c0-0.553,0.447-1,1-1s1,0.447,1,1v3.998
			C25.004,53.545,24.557,53.992,24.004,53.992z"/>
	</g>
	<g>
		<path fill="#ED5565" d="M15.996,53.992c-0.553,0-1-0.447-1-1v-3.998c0-0.553,0.447-1,1-1s1,0.447,1,1v3.998
			C16.996,53.545,16.549,53.992,15.996,53.992z"/>
	</g>
	<path fill="#F7C292" d="M44.01,0c-0.553,0-1,0.447-1,1v63h2V1C45.01,0.447,44.563,0,44.01,0z"/>
</g>
</svg>
