<?xml version="1.0" encoding="utf-8"?>
<!-- Generator: Adobe Illustrator 16.0.0, SVG Export Plug-In . SVG Version: 6.00 Build 0)  -->
<!DOCTYPE svg PUBLIC "-//W3C//DTD SVG 1.1//EN" "http://www.w3.org/Graphics/SVG/1.1/DTD/svg11.dtd">
<svg version="1.1" id="icons" xmlns="http://www.w3.org/2000/svg" xmlns:xlink="http://www.w3.org/1999/xlink" x="0px" y="0px"
	 width="64px" height="64px" viewBox="0 0 64 64" enable-background="new 0 0 64 64" xml:space="preserve">
<g>
	<g>
		<g>
			<path fill="#CCD1D9" d="M55.005,24.144c-0.256,0-0.512-0.098-0.707-0.293L40.152,9.705c-0.391-0.391-0.391-1.023,0-1.414
				s1.023-0.391,1.414,0l14.146,14.146c0.391,0.391,0.391,1.023,0,1.414C55.517,24.046,55.261,24.144,55.005,24.144z"/>
		</g>
		<g>
			<path fill="#CCD1D9" d="M58.54,20.601c-0.256,0-0.512-0.098-0.707-0.293L43.691,6.166c-0.391-0.391-0.391-1.023,0-1.414
				s1.023-0.391,1.414,0l14.142,14.142c0.391,0.391,0.391,1.023,0,1.414C59.052,20.503,58.796,20.601,58.54,20.601z"/>
		</g>
		<g>
			<path fill="#CCD1D9" d="M47.934,24.144c-0.256,0-0.512-0.098-0.707-0.293l-7.074-7.074c-0.391-0.391-0.391-1.023,0-1.414
				s1.023-0.391,1.414,0l7.074,7.074c0.391,0.391,0.391,1.023,0,1.414C48.445,24.046,48.189,24.144,47.934,24.144z"/>
		</g>
		<g>
			<path fill="#CCD1D9" d="M37.326,27.673c-0.256,0-0.512-0.098-0.707-0.293c-0.391-0.391-0.391-1.023,0-1.414L54.298,8.287
				c0.391-0.391,1.023-0.391,1.414,0s0.391,1.023,0,1.414L38.033,27.38C37.838,27.575,37.582,27.673,37.326,27.673z"/>
		</g>
		<g>
			<path fill="#CCD1D9" d="M44.401,27.676c-0.256,0-0.512-0.098-0.707-0.293l-7.074-7.075c-0.391-0.391-0.391-1.023,0-1.414
				s1.023-0.391,1.414,0l7.074,7.075c0.391,0.391,0.391,1.023,0,1.414C44.913,27.578,44.657,27.676,44.401,27.676z"/>
		</g>
		<g>
			<path fill="#CCD1D9" d="M51.473,20.604c-0.256,0-0.512-0.098-0.707-0.293c-0.391-0.391-0.391-1.023,0-1.414l7.071-7.071
				c0.391-0.391,1.023-0.391,1.414,0s0.391,1.023,0,1.414l-7.071,7.071C51.984,20.507,51.729,20.604,51.473,20.604z"/>
		</g>
		<g>
			<path fill="#CCD1D9" d="M44.487,13.442c-0.256,0-0.512-0.098-0.707-0.293c-0.391-0.391-0.391-1.023,0-1.414l6.982-6.982
				c0.391-0.391,1.023-0.391,1.414,0s0.391,1.023,0,1.414l-6.982,6.982C44.999,13.345,44.743,13.442,44.487,13.442z"/>
		</g>
	</g>
	<g>
		<g>
			<path fill="#E6E9ED" d="M37.332,26.672c1.95,1.95,5.11,1.95,7.07,0l3.53-3.529c1.96-1.95,5.119-1.95,7.069,0l3.54-3.54
				c1.95-1.95,1.95-5.12,0-7.07l-3.54-3.54l-3.53-3.53c-1.949-1.96-5.119-1.96-7.069,0l-3.54,3.54c1.95,1.95,1.95,5.11,0,7.07
				l-3.53,3.53C35.372,21.552,35.372,24.723,37.332,26.672z M38.742,13.952c0.78-0.78,0.78-2.05,0-2.83c-1.17-1.17-1.17-3.07,0-4.24
				l3.54-3.54c3.12-3.119,8.189-3.119,11.31,0l7.07,7.07c3.1,3.09,3.12,8.11,0.07,11.24c-0.03,0.02-0.04,0.05-0.07,0.07l-3.54,3.54
				c-1.17,1.18-3.07,1.18-4.24,0c-0.779-0.78-2.05-0.78-2.83,0l-3.529,3.539c-0.021,0.021-0.051,0.04-0.07,0.061
				c-2.63,2.57-6.6,2.96-9.64,1.16c-0.58-0.32-1.12-0.74-1.61-1.23s-0.9-1.02-1.23-1.59c-1.81-3.06-1.399-7.09,1.23-9.72
				L38.742,13.952z"/>
		</g>
		<g>
			<path fill="#656D78" d="M35.202,28.792c0.49,0.49,1.03,0.91,1.61,1.23l-0.011,0.01l-32.39,32.38c-0.78,0.78-2.04,0.78-2.83,0
				c-0.78-0.78-0.78-2.05,0-2.83h0.01l32.38-32.38C34.302,27.772,34.712,28.302,35.202,28.792z"/>
		</g>
	</g>
	<g>
		<g>
			<path fill="#E6E9ED" d="M37.326,20.602c-0.256,0-0.512-0.098-0.707-0.293c-0.391-0.391-0.391-1.023,0-1.414l3.533-3.532
				c0.391-0.391,1.023-0.391,1.414,0s0.391,1.023,0,1.414l-3.533,3.532C37.838,20.504,37.582,20.602,37.326,20.602z"/>
		</g>
		<g>
			<g>
				<path fill="#E6E9ED" d="M51.469,6.459c-0.256,0-0.512-0.098-0.707-0.293c-1.512-1.512-4.145-1.513-5.656,0
					c-0.391,0.391-1.023,0.391-1.414,0s-0.391-1.023,0-1.414c1.134-1.134,2.641-1.758,4.242-1.758c1.603,0,3.109,0.624,4.242,1.758
					c0.391,0.391,0.391,1.023,0,1.414C51.98,6.361,51.725,6.459,51.469,6.459z"/>
			</g>
			<g>
				<path fill="#E6E9ED" d="M40.861,29.135c-1.536,0-3.072-0.585-4.242-1.755c-2.34-2.34-2.34-6.146,0-8.485
					c0.391-0.391,1.023-0.391,1.414,0s0.391,1.023,0,1.414c-1.56,1.56-1.56,4.098,0,5.657c1.561,1.56,4.097,1.558,5.657,0
					c0.391-0.391,1.023-0.391,1.414,0s0.391,1.023,0,1.414C43.935,28.55,42.398,29.135,40.861,29.135z"/>
			</g>
			<g>
				<path fill="#E6E9ED" d="M58.54,20.601c-0.256,0-0.512-0.098-0.707-0.293c-0.391-0.391-0.391-1.023,0-1.414
					c0.756-0.756,1.172-1.76,1.172-2.828s-0.416-2.072-1.172-2.828c-0.391-0.391-0.391-1.023,0-1.414s1.023-0.391,1.414,0
					c1.134,1.133,1.758,2.64,1.758,4.242s-0.624,3.109-1.758,4.242C59.052,20.503,58.796,20.601,58.54,20.601z"/>
			</g>
			<g>
				<path fill="#E6E9ED" d="M40.859,17.069c-0.256,0-0.512-0.098-0.707-0.293c-0.391-0.391-0.391-1.023,0-1.414
					c1.56-1.56,1.56-4.098,0-5.657c-0.391-0.391-0.391-1.023,0-1.414s1.023-0.391,1.414,0c1.134,1.134,1.759,2.641,1.759,4.243
					c0,1.602-0.625,3.108-1.759,4.242C41.371,16.972,41.115,17.069,40.859,17.069z"/>
			</g>
			<g>
				<path fill="#E6E9ED" d="M58.54,13.53c-0.256,0-0.512-0.098-0.707-0.293l-7.071-7.071c-0.391-0.391-0.391-1.023,0-1.414
					s1.023-0.391,1.414,0l7.071,7.071c0.391,0.391,0.391,1.023,0,1.414C59.052,13.433,58.796,13.53,58.54,13.53z"/>
			</g>
			<g>
				<path fill="#E6E9ED" d="M40.859,9.998c-0.256,0-0.512-0.098-0.707-0.293c-0.391-0.391-0.391-1.023,0-1.414l3.539-3.539
					c0.391-0.391,1.023-0.391,1.414,0s0.391,1.023,0,1.414l-3.539,3.539C41.371,9.9,41.115,9.998,40.859,9.998z"/>
			</g>
			<g>
				<path fill="#E6E9ED" d="M55.005,24.144c-0.256,0-0.512-0.098-0.707-0.293c-1.562-1.56-4.098-1.558-5.657,0
					c-0.391,0.391-1.023,0.391-1.414,0s-0.391-1.023,0-1.414c2.339-2.339,6.145-2.341,8.485,0c0.391,0.391,0.391,1.023,0,1.414
					C55.517,24.046,55.261,24.144,55.005,24.144z"/>
			</g>
			<g>
				<path fill="#E6E9ED" d="M55.005,24.144c-0.256,0-0.512-0.098-0.707-0.293c-0.391-0.391-0.391-1.023,0-1.414l3.539-3.539
					c0.391-0.391,1.023-0.391,1.414,0s0.391,1.023,0,1.414l-3.539,3.539C55.517,24.046,55.261,24.144,55.005,24.144z"/>
			</g>
		</g>
		<g>
			<path fill="#E6E9ED" d="M44.401,27.676c-0.256,0-0.512-0.098-0.707-0.293c-0.391-0.391-0.391-1.023,0-1.414l3.532-3.532
				c0.391-0.391,1.023-0.391,1.414,0s0.391,1.023,0,1.414l-3.532,3.532C44.913,27.578,44.657,27.676,44.401,27.676z"/>
		</g>
	</g>
</g>
</svg>
