<?xml version="1.0" encoding="utf-8"?>
<!-- Generator: Adobe Illustrator 16.0.0, SVG Export Plug-In . SVG Version: 6.00 Build 0)  -->
<!DOCTYPE svg PUBLIC "-//W3C//DTD SVG 1.1//EN" "http://www.w3.org/Graphics/SVG/1.1/DTD/svg11.dtd">
<svg version="1.1" id="icons" xmlns="http://www.w3.org/2000/svg" xmlns:xlink="http://www.w3.org/1999/xlink" x="0px" y="0px"
	 width="64px" height="64px" viewBox="0 0 64 64" enable-background="new 0 0 64 64" xml:space="preserve">
<g>
	<path fill="#545C66" d="M1,56.99c0,0.55,0.45,1,1,1h41.99c0.55,0,1-0.45,1-1V4c0-0.55-0.45-1-1-1H2C1.45,3,1,3.45,1,4V56.99z"/>
	<g>
		<path fill="#E6E9ED" d="M30.5,6L30,7H16l-0.5-1H4v49h21V44c2.211,0,4,1.79,4,4.01h9V48v-6l3.99,1.76V6H30.5z"/>
	</g>
	<g>
		<path fill="#656D78" d="M36.021,21c0,1.66-1.35,3-3,3c-1.66,0-3-1.34-3-3s1.34-3,3-3C34.671,18,36.021,19.34,36.021,21z"/>
	</g>
	<g>
		<polygon fill="#DA4453" points="38.021,12 37.021,14 38.021,16 33.021,16 33.021,12 		"/>
	</g>
	<g>
		<path fill="#656D78" d="M12.021,44.01c1.66,0,3,1.34,3,3c0,1.65-1.34,3-3,3s-3-1.35-3-3C9.021,45.35,10.36,44.01,12.021,44.01z"/>
	</g>
	<g>
		<polygon fill="#FFCE54" points="32,3 30.5,6 30,7 16,7 15.5,6 14,3 		"/>
	</g>
	<g>
		<path fill="#E6E9ED" d="M60,58c1.561,0,2.83-1.18,2.98-2.69C62.83,58.49,60.211,61,57,61H26l-1-1v-2H60z"/>
	</g>
	<g>
		<path fill="#656D78" d="M41.99,44H42c0,2.21-1.789,4-4,4v-6l3.99,1.76V44z"/>
	</g>
	<g>
		<path fill="#5D9CEC" d="M63,55c0,0.1-0.01,0.21-0.02,0.31C62.83,56.82,61.561,58,60,58H25v-3V44c2.211,0,4,1.79,4,4.01h9V48
			c2.211,0,4-1.79,4-4h-0.01v-0.24l3,1.33l2,0.891l2.67,1.18l2.681,1.18l8.989,3.98V52.31C62.32,52.8,63,53.82,63,55z"/>
	</g>
	<g>
		<path fill="#656D78" d="M12.02,51.005c-2.206,0-4-1.794-4-4s1.794-4,4-4s4,1.794,4,4S14.226,51.005,12.02,51.005z M12.02,45.005
			c-1.103,0-2,0.897-2,2s0.897,2,2,2s2-0.897,2-2S13.122,45.005,12.02,45.005z"/>
	</g>
	<g>
		<path fill="#545C66" d="M12.05,48.005c-0.553,0-1.005-0.447-1.005-1s0.442-1,0.994-1h0.011c0.552,0,1,0.447,1,1
			S12.602,48.005,12.05,48.005z"/>
	</g>
	<path fill="#656D78" d="M33.02,24.997c-2.206,0-4-1.794-4-4s1.794-4,4-4s4,1.794,4,4S35.226,24.997,33.02,24.997z M33.02,18.997
		c-1.103,0-2,0.897-2,2s0.897,2,2,2s2-0.897,2-2S34.122,18.997,33.02,18.997z"/>
	<g>
		<path fill="#DA4453" d="M38.018,12.997H33.02c-0.553,0-1-0.448-1-1s0.447-1,1-1h4.998c0.553,0,1,0.448,1,1
			S38.57,12.997,38.018,12.997z"/>
	</g>
	<g>
		<path fill="#DA4453" d="M38.018,16.997H33.02c-0.553,0-1-0.448-1-1s0.447-1,1-1h4.998c0.553,0,1,0.448,1,1
			S38.57,16.997,38.018,16.997z"/>
	</g>
	<g>
		<path fill="#DA4453" d="M38.019,16.997c-0.367,0-0.72-0.202-0.896-0.553l-1-2c-0.141-0.282-0.141-0.613,0-0.895l1-2
			c0.248-0.494,0.848-0.695,1.342-0.447c0.494,0.247,0.694,0.848,0.447,1.342l-0.776,1.553l0.776,1.553
			c0.247,0.494,0.047,1.095-0.447,1.342C38.321,16.963,38.169,16.997,38.019,16.997z"/>
	</g>
	<g>
		<path fill="#CCD1D9" d="M12.013,42.011c-0.05,0-0.101-0.004-0.152-0.012c-0.546-0.083-0.921-0.594-0.837-1.14
			c2.06-13.477,15.151-17.651,15.708-17.822c0.528-0.162,1.086,0.135,1.249,0.661c0.163,0.527-0.133,1.087-0.66,1.25
			C27.196,24.987,14.867,28.945,13,41.162C12.925,41.656,12.498,42.011,12.013,42.011z"/>
	</g>
	<g>
		<path fill="#CCD1D9" d="M25.007,28.005c-0.19,0-0.384-0.054-0.555-0.168c-0.459-0.307-0.583-0.927-0.276-1.387l2.004-3.002
			c0.307-0.459,0.926-0.585,1.388-0.276c0.459,0.307,0.583,0.927,0.276,1.387L25.84,27.56C25.646,27.849,25.33,28.005,25.007,28.005
			z"/>
	</g>
	<g>
		<path fill="#CCD1D9" d="M27.02,25.015c-0.104,0-0.211-0.017-0.316-0.052l-3.002-1.001c-0.523-0.175-0.807-0.741-0.632-1.265
			c0.174-0.523,0.735-0.809,1.265-0.632l3.002,1.001c0.523,0.175,0.807,0.741,0.632,1.265C27.828,24.75,27.438,25.015,27.02,25.015z
			"/>
	</g>
	<g>
		<g>
			<path fill="#ED5565" d="M11.02,24.007c-0.256,0-0.512-0.098-0.707-0.293l-1.998-1.998c-0.391-0.391-0.391-1.023,0-1.414
				s1.023-0.391,1.414,0l1.998,1.998c0.391,0.391,0.391,1.023,0,1.414C11.531,23.909,11.275,24.007,11.02,24.007z"/>
		</g>
		<g>
			<path fill="#ED5565" d="M9.021,24.007c-0.256,0-0.512-0.098-0.707-0.293c-0.391-0.391-0.391-1.023,0-1.414l1.998-1.998
				c0.391-0.391,1.023-0.391,1.414,0s0.391,1.023,0,1.414l-1.998,1.998C9.533,23.909,9.277,24.007,9.021,24.007z"/>
		</g>
	</g>
	<g>
		<g>
			<path fill="#ED5565" d="M20,15.994c-0.256,0-0.512-0.098-0.707-0.293l-1.998-1.998c-0.391-0.391-0.391-1.023,0-1.414
				s1.023-0.391,1.414,0l1.998,1.998c0.391,0.391,0.391,1.023,0,1.414C20.512,15.896,20.256,15.994,20,15.994z"/>
		</g>
		<g>
			<path fill="#ED5565" d="M18.002,15.994c-0.256,0-0.512-0.098-0.707-0.293c-0.391-0.391-0.391-1.023,0-1.414l1.998-1.998
				c0.391-0.391,1.023-0.391,1.414,0s0.391,1.023,0,1.414l-1.998,1.998C18.514,15.896,18.258,15.994,18.002,15.994z"/>
		</g>
	</g>
	<g>
		<g>
			<path fill="#ED5565" d="M33.996,36.997c-0.256,0-0.512-0.098-0.707-0.293l-1.998-1.998c-0.391-0.391-0.391-1.023,0-1.414
				s1.023-0.391,1.414,0l1.998,1.998c0.391,0.391,0.391,1.023,0,1.414C34.508,36.899,34.252,36.997,33.996,36.997z"/>
		</g>
		<g>
			<path fill="#ED5565" d="M31.998,36.997c-0.256,0-0.512-0.098-0.707-0.293c-0.391-0.391-0.391-1.023,0-1.414l1.998-1.998
				c0.391-0.391,1.023-0.391,1.414,0s0.391,1.023,0,1.414l-1.998,1.998C32.51,36.899,32.254,36.997,31.998,36.997z"/>
		</g>
	</g>
	<path fill="#E6E9ED" d="M45.562,48.898c0.142,0.069,0.292,0.103,0.439,0.103c0.369,0,0.725-0.205,0.898-0.56l0.994-2.024
		c0.005-0.011,0.004-0.022,0.009-0.033L46.99,45.98l-0.91-0.405l-0.976,1.985C44.861,48.056,45.065,48.655,45.562,48.898z"/>
	<path fill="#E6E9ED" d="M48.231,50.079c0.142,0.069,0.292,0.103,0.439,0.103c0.369,0,0.725-0.205,0.898-0.56l0.994-2.024
		c0.006-0.012,0.004-0.024,0.01-0.036L49.66,47.16l-0.911-0.402l-0.975,1.983C47.531,49.236,47.735,49.836,48.231,50.079z"/>
	<path fill="#E6E9ED" d="M52.341,48.34l-0.919-0.404l-0.976,1.986c-0.243,0.495-0.039,1.095,0.457,1.338
		c0.142,0.069,0.292,0.103,0.439,0.103c0.369,0,0.725-0.205,0.898-0.56l0.994-2.024c0.006-0.013,0.005-0.025,0.01-0.038
		L52.341,48.34z"/>
	<g>
		<g>
			<path fill="#ED5565" d="M22.986,41.001c-0.256,0-0.512-0.098-0.707-0.293l-1.998-1.998c-0.391-0.391-0.391-1.023,0-1.414
				s1.023-0.391,1.414,0l1.998,1.998c0.391,0.391,0.391,1.023,0,1.414C23.498,40.903,23.242,41.001,22.986,41.001z"/>
		</g>
		<g>
			<path fill="#ED5565" d="M20.988,41.001c-0.256,0-0.512-0.098-0.707-0.293c-0.391-0.391-0.391-1.023,0-1.414l1.998-1.998
				c0.391-0.391,1.023-0.391,1.414,0s0.391,1.023,0,1.414l-1.998,1.998C21.5,40.903,21.244,41.001,20.988,41.001z"/>
		</g>
	</g>
	<g>
		<path fill="#ED5565" d="M33.02,21.997c-0.553,0-1-0.448-1-1v-9c0-0.552,0.447-1,1-1s1,0.448,1,1v9
			C34.02,21.549,33.572,21.997,33.02,21.997z"/>
	</g>
	<circle fill="#E6E9ED" cx="26" cy="60" r="1"/>
</g>
</svg>
