<?xml version="1.0" encoding="utf-8"?>
<!-- Generator: Adobe Illustrator 16.0.0, SVG Export Plug-In . SVG Version: 6.00 Build 0)  -->
<!DOCTYPE svg PUBLIC "-//W3C//DTD SVG 1.1//EN" "http://www.w3.org/Graphics/SVG/1.1/DTD/svg11.dtd">
<svg version="1.1" id="icons" xmlns="http://www.w3.org/2000/svg" xmlns:xlink="http://www.w3.org/1999/xlink" x="0px" y="0px"
	 width="64px" height="64px" viewBox="0 0 64 64" enable-background="new 0 0 64 64" xml:space="preserve">
<g>
	<g>
		<path fill="#545C66" d="M50.496,7.5c-2.204,0-3.997-1.793-3.997-3.997c0-0.553,0.447-1,1-1s1,0.447,1,1
			c0,1.102,0.896,1.997,1.997,1.997c0.553,0,1,0.447,1,1S51.049,7.5,50.496,7.5z"/>
	</g>
	<g>
		<path fill="#545C66" d="M50.496,17.5c-0.553,0-1-0.447-1-1v-10c0-0.553,0.447-1,1-1s1,0.447,1,1v10
			C51.496,17.053,51.049,17.5,50.496,17.5z"/>
	</g>
	<g>
		<path fill="#545C66" d="M13.504,7.5c-0.553,0-1-0.447-1-1s0.447-1,1-1c1.102,0,1.997-0.896,1.997-1.997c0-0.553,0.447-1,1-1
			s1,0.447,1,1C17.501,5.707,15.708,7.5,13.504,7.5z"/>
	</g>
	<g>
		<path fill="#545C66" d="M13.504,17.5c-0.553,0-1-0.447-1-1v-10c0-0.553,0.447-1,1-1s1,0.447,1,1v10
			C14.504,17.053,14.057,17.5,13.504,17.5z"/>
	</g>
	<g>
		<g>
			<polygon fill="#E6E9ED" points="30,32.51 30,40.5 27,40.5 24,40.5 24,32.51 27,29.5 			"/>
		</g>
		<g>
			<polygon fill="#5D9CEC" points="40,40.5 40,62.5 34,62.5 34,40.5 37,40.5 			"/>
		</g>
		<g>
			<polygon fill="#E6E9ED" points="40,32.51 40,40.5 37,40.5 34,40.5 34,32.51 37,29.5 			"/>
		</g>
		<g>
			<path fill="#5D9CEC" d="M40,5.69V32.51l-3-3.01l-3,3.01V5.69c0-2.221,1.21-4.15,3-5.19C38.79,1.54,40,3.47,40,5.69z"/>
		</g>
		<g>
			<path fill="#5D9CEC" d="M30,5.69V32.51l-3-3.01l-3,3.01V5.69c0-2.221,1.21-4.15,3-5.19C28.79,1.54,30,3.47,30,5.69z"/>
		</g>
		<g>
			<polygon fill="#5D9CEC" points="30,40.5 30,62.5 24,62.5 24,40.5 27,40.5 			"/>
		</g>
		<g>
			<polygon fill="#656D78" points="47.5,3.5 47.5,16.51 46,16.51 44.5,16.51 44.5,3.5 			"/>
		</g>
		<g>
			<polygon fill="#656D78" points="19.5,3.5 19.5,16.51 18,16.51 16.5,16.51 16.5,3.5 			"/>
		</g>
	</g>
	<g>
		<path fill="#5D9CEC" d="M29.001,63.5h-3.998c-0.553,0-1-0.447-1-1s0.447-1,1-1h3.998c0.553,0,1,0.447,1,1S29.554,63.5,29.001,63.5
			z"/>
	</g>
	<g>
		<path fill="#5D9CEC" d="M38.999,63.5h-3.998c-0.553,0-1-0.447-1-1s0.447-1,1-1h3.998c0.553,0,1,0.447,1,1S39.552,63.5,38.999,63.5
			z"/>
	</g>
	<path fill="#CCD1D9" d="M27.002,35.504c-0.553,0-1,0.447-1,1v4h2v-4C28.002,35.951,27.555,35.504,27.002,35.504z"/>
	<path fill="#CCD1D9" d="M36.999,35.504c-0.553,0-1,0.447-1,1v4h2v-4C37.999,35.951,37.552,35.504,36.999,35.504z"/>
	<g>
		<path fill="#CCD1D9" d="M45.999,63.5c-0.553,0-1-0.447-1-1V16.507c0-0.553,0.447-1,1-1s1,0.447,1,1V62.5
			C46.999,63.053,46.552,63.5,45.999,63.5z"/>
	</g>
	<g>
		<path fill="#E6E9ED" d="M47.999,61.499h-4c-0.553,0-1-0.447-1-1s0.447-1,1-1h4c0.553,0,1,0.447,1,1S48.552,61.499,47.999,61.499z"
			/>
	</g>
	<path fill="#656D78" d="M47.499,17.507h-3c-0.553,0-1-0.447-1-1V3.503c0-0.553,0.447-1,1-1h3c0.553,0,1,0.447,1,1v13.004
		C48.499,17.06,48.052,17.507,47.499,17.507z M45.499,15.507h1V4.503h-1V15.507z"/>
	<g>
		<path fill="#CCD1D9" d="M18.001,63.5c-0.553,0-1-0.447-1-1V16.507c0-0.553,0.447-1,1-1s1,0.447,1,1V62.5
			C19.001,63.053,18.554,63.5,18.001,63.5z"/>
	</g>
	<g>
		<path fill="#E6E9ED" d="M20.001,61.499h-4c-0.553,0-1-0.447-1-1s0.447-1,1-1h4c0.553,0,1,0.447,1,1S20.554,61.499,20.001,61.499z"
			/>
	</g>
	<g>
		<path fill="#656D78" d="M19.501,17.507h-3c-0.553,0-1-0.447-1-1V3.503c0-0.553,0.447-1,1-1h3c0.553,0,1,0.447,1,1v13.004
			C20.501,17.06,20.054,17.507,19.501,17.507z M17.501,15.507h1V4.503h-1V15.507z"/>
	</g>
</g>
</svg>
