<?xml version="1.0" encoding="utf-8"?>
<!-- Generator: Adobe Illustrator 16.0.0, SVG Export Plug-In . SVG Version: 6.00 Build 0)  -->
<!DOCTYPE svg PUBLIC "-//W3C//DTD SVG 1.1//EN" "http://www.w3.org/Graphics/SVG/1.1/DTD/svg11.dtd">
<svg version="1.1" id="icons" xmlns="http://www.w3.org/2000/svg" xmlns:xlink="http://www.w3.org/1999/xlink" x="0px" y="0px"
	 width="64px" height="64px" viewBox="0 0 64 64" enable-background="new 0 0 64 64" xml:space="preserve">
<g>
	<g>
		<polygon fill="#ED5565" points="18,9 18,16 15,13 15,6 		"/>
	</g>
	<g>
		<path fill="#ED5565" d="M18,10c-0.256,0-0.512-0.098-0.707-0.293l-3-3c-0.391-0.391-0.391-1.023,0-1.414s1.023-0.391,1.414,0l3,3
			c0.391,0.391,0.391,1.023,0,1.414C18.512,9.902,18.256,10,18,10z"/>
	</g>
	<g>
		<path fill="#ED5565" d="M18,17c-0.256,0-0.512-0.098-0.707-0.293l-3-3c-0.391-0.391-0.391-1.023,0-1.414s1.023-0.391,1.414,0l3,3
			c0.391,0.391,0.391,1.023,0,1.414C18.512,16.902,18.256,17,18,17z"/>
	</g>
	<g>
		<path fill="#ED5565" d="M15,14c-0.553,0-1-0.447-1-1V6c0-0.553,0.447-1,1-1s1,0.447,1,1v7C16,13.553,15.553,14,15,14z"/>
	</g>
	<g>
		<path fill="#DA4453" d="M18,10c-0.256,0-0.512-0.098-0.707-0.293c-0.391-0.391-0.391-1.023,0-1.414l3-3
			c0.391-0.391,1.023-0.391,1.414,0s0.391,1.023,0,1.414l-3,3C18.512,9.902,18.256,10,18,10z"/>
	</g>
	<g>
		<path fill="#DA4453" d="M18,17c-0.256,0-0.512-0.098-0.707-0.293c-0.391-0.391-0.391-1.023,0-1.414l3-3
			c0.391-0.391,1.023-0.391,1.414,0s0.391,1.023,0,1.414l-3,3C18.512,16.902,18.256,17,18,17z"/>
	</g>
	<g>
		<path fill="#DA4453" d="M21,14c-0.553,0-1-0.447-1-1V6c0-0.553,0.447-1,1-1s1,0.447,1,1v7C22,13.553,21.553,14,21,14z"/>
	</g>
	<g>
		<path fill="#434A54" d="M34,51c6.63,0,12-5.37,12-12v-7h3v7c0,7.74-6.26,14-14,14c-0.34,0-0.68,0.03-1,0.09v-0.01V51z"/>
	</g>
	<g>
		<path fill="#434A54" d="M46,24.999c0-6.63-5.37-12-12-12v-2.03l0.01-0.06c0.32,0.06,0.65,0.09,0.99,0.09c7.74,0,14,6.27,14,14V32
			h-3v-6.991V24.999z"/>
	</g>
	<g>
		<path fill="#E6E9ED" d="M32.999,54.076c-0.553,0-1-0.447-1-1V10.97c0-0.553,0.447-1,1-1s1,0.447,1,1v42.106
			C33.999,53.629,33.552,54.076,32.999,54.076z"/>
	</g>
	<g>
		<path fill="#E6E9ED" d="M29,61c-0.553,0-1-0.447-1-1V4c0-0.553,0.447-1,1-1s1,0.447,1,1v56C30,60.553,29.553,61,29,61z"/>
	</g>
	<g>
		<path fill="#E6E9ED" d="M32,1c1.66,0,3,1.35,3,3c0,1.66-1.34,3-3,3s-3-1.34-3-3C29,2.35,30.34,1,32,1z"/>
	</g>
	<g>
		<polygon fill="#DA4453" points="18,16 18,9 21,6 21,13 		"/>
	</g>
	<g>
		<path fill="#545C66" d="M35,12.001c-3.859,0-7-3.141-7-7c0-0.553,0.447-1,1-1s1,0.447,1,1c0,2.757,2.243,5,5,5
			c0.553,0,1,0.447,1,1S35.553,12.001,35,12.001z"/>
	</g>
	<g>
		<path fill="#545C66" d="M48.998,25.999c-0.553,0-1-0.447-1-1c0-7.167-5.831-12.998-12.998-12.998c-0.553,0-1-0.447-1-1
			s0.447-1,1-1c8.27,0,14.998,6.729,14.998,14.998C49.998,25.552,49.551,25.999,48.998,25.999z"/>
	</g>
	<g>
		<path fill="#545C66" d="M29,59.999c-0.553,0-1-0.447-1-1c0-3.859,3.141-7,7-7c0.553,0,1,0.447,1,1s-0.447,1-1,1
			c-2.757,0-5,2.243-5,5C30,59.552,29.553,59.999,29,59.999z"/>
	</g>
	<g>
		<path fill="#545C66" d="M35,53.999c-0.553,0-1-0.447-1-1s0.447-1,1-1c7.168,0,13-5.832,13-13c0-0.553,0.447-1,1-1s1,0.447,1,1
			C50,47.271,43.271,53.999,35,53.999z"/>
	</g>
	<g>
		<path fill="#545C66" d="M48.998,39.999c-0.553,0-1-0.447-1-1V25.001c0-0.553,0.447-1,1-1s1,0.447,1,1v13.998
			C49.998,39.552,49.551,39.999,48.998,39.999z"/>
	</g>
	<g>
		<path fill="#E6E9ED" d="M18,59c-0.553,0-1-0.447-1-1V6c0-0.553,0.447-1,1-1s1,0.447,1,1v52C19,58.553,18.553,59,18,59z"/>
	</g>
	<g>
		<path fill="#656D78" d="M18.001,59c-0.323,0-0.641-0.156-0.833-0.445l-2-3c-0.307-0.46-0.183-1.08,0.277-1.387
			c0.461-0.306,1.081-0.183,1.387,0.277l2,3c0.307,0.46,0.183,1.08-0.277,1.387C18.384,58.945,18.191,59,18.001,59z"/>
	</g>
	<g>
		<path fill="#656D78" d="M17.999,59c-0.19,0-0.383-0.055-0.554-0.168c-0.46-0.307-0.584-0.927-0.277-1.387l2-3
			c0.306-0.46,0.925-0.583,1.387-0.277c0.46,0.307,0.584,0.927,0.277,1.387l-2,3C18.64,58.844,18.322,59,17.999,59z"/>
	</g>
	<path fill="#CCD1D9" d="M32.998,31c-0.553,0-1,0.447-1,1s0.447,1,1,1h16.999v-2H32.998z"/>
	<g>
		<path fill="#E6E9ED" d="M32,57c1.66,0,3,1.35,3,3c0,1.66-1.34,3-3,3s-3-1.34-3-3C29,58.35,30.34,57,32,57z"/>
	</g>
	<g>
		<g>
			<path fill="#656D78" d="M32.03,61c-0.553,0-1.005-0.447-1.005-1s0.442-1,0.994-1h0.011c0.552,0,1,0.447,1,1S32.582,61,32.03,61z"
				/>
		</g>
	</g>
	<rect x="28" y="58.999" fill="#545C66" width="2" height="1.001"/>
	<rect x="28" y="4" fill="#545C66" width="2" height="1.001"/>
	<g>
		<path fill="#656D78" d="M32,64c-2.206,0-4-1.794-4-4s1.794-4,4-4s4,1.794,4,4S34.206,64,32,64z M32,58c-1.103,0-2,0.897-2,2
			s0.897,2,2,2s2-0.897,2-2S33.103,58,32,58z"/>
	</g>
	<g>
		<path fill="#656D78" d="M32,8c-2.206,0-4-1.794-4-4s1.794-4,4-4s4,1.794,4,4S34.206,8,32,8z M32,2c-1.103,0-2,0.897-2,2
			s0.897,2,2,2s2-0.897,2-2S33.103,2,32,2z"/>
	</g>
	<g>
		<g>
			<path fill="#656D78" d="M32.022,5.004c-0.553,0-1.005-0.447-1.005-1s0.442-1,0.994-1h0.011c0.552,0,1,0.447,1,1
				S32.574,5.004,32.022,5.004z"/>
		</g>
	</g>
</g>
</svg>
