<?xml version="1.0" encoding="utf-8"?>
<!-- Generator: Adobe Illustrator 16.0.0, SVG Export Plug-In . SVG Version: 6.00 Build 0)  -->
<!DOCTYPE svg PUBLIC "-//W3C//DTD SVG 1.1//EN" "http://www.w3.org/Graphics/SVG/1.1/DTD/svg11.dtd">
<svg version="1.1" id="icons" xmlns="http://www.w3.org/2000/svg" xmlns:xlink="http://www.w3.org/1999/xlink" x="0px" y="0px"
	 width="64px" height="64px" viewBox="0 0 64 64" enable-background="new 0 0 64 64" xml:space="preserve">
<g>
	<g>
		<path fill="#48CFAD" d="M55.005,14v0.01c-1.66,0-3-1.35-3-3V8V4c0-1.66-1.34-3-3-3h-4c-1.66,0-3,1.34-3,3v4v3.01
			c0,1.65-1.34,3-3,3V14c-1.11,0-2,0.89-2,2v32c0,1.1,0.89,2,2,2v-0.01c1.66,0,3,1.34,3,3V57v3c0,1.66,1.34,3,3,3h4
			c1.66,0,3-1.34,3-3v-3v-4.01c0-1.66,1.34-3,3-3V50c1.11,0,2-0.9,2-2V16C57.005,14.89,56.115,14,55.005,14z"/>
	</g>
	<g>
		<polygon fill="#E6E9ED" points="8.995,57 8.995,60 3.995,60 3.995,54 8.995,54 		"/>
	</g>
	<g>
		<polygon fill="#E6E9ED" points="29.995,54 29.995,60 24.995,60 24.995,57 24.995,54 		"/>
	</g>
	<g>
		<path fill="#FFCE54" d="M47.005,26c3.31,0,6,2.69,6,6s-2.69,6-6,6s-6-2.69-6-6S43.695,26,47.005,26z"/>
	</g>
	<g>
		<polygon fill="#E6E9ED" points="8.995,8 8.995,11.01 3.995,11.01 3.995,5 8.995,5 		"/>
	</g>
	<g>
		<polygon fill="#E6E9ED" points="29.995,5 29.995,11.01 24.995,11.01 24.995,8 24.995,5 		"/>
	</g>
	<g>
		<polygon fill="#E6E9ED" points="39.005,8 39.005,11 34.005,11 34.005,5 39.005,5 		"/>
	</g>
	<g>
		<polygon fill="#656D78" points="48.505,8 48.505,11 45.505,11 45.505,8 45.505,5 48.505,5 		"/>
	</g>
	<g>
		<polygon fill="#E6E9ED" points="60.005,5 60.005,11 55.005,11 55.005,8 55.005,5 		"/>
	</g>
	<g>
		<path fill="#545C66" d="M24.995,14v0.01c-1.66,0-3-1.35-3-3V8V4c0-1.66-1.34-3-3-3h-4c-1.66,0-3,1.34-3,3v4v3.01
			c0,1.65-1.34,3-3,3V14c-1.101,0-2,0.89-2,2v32c0,1.1,0.899,2,2,2v-0.01c1.66,0,3,1.34,3,3V57v3c0,1.66,1.34,3,3,3h4
			c1.66,0,3-1.34,3-3v-3v-4.01c0-1.66,1.34-3,3-3V50c1.109,0,2-0.9,2-2V16C26.995,14.89,26.104,14,24.995,14z"/>
	</g>
	<g>
		<g>
			<path fill="#545C66" d="M11.996,5c-0.553,0-1-0.447-1-1c0-2.206,1.794-4,4-4c0.553,0,1,0.447,1,1s-0.447,1-1,1
				c-1.103,0-2,0.897-2,2C12.996,4.553,12.549,5,11.996,5z"/>
		</g>
		<g>
			<path fill="#545C66" d="M21.996,5c-0.553,0-1-0.447-1-1c0-1.103-0.897-2-2-2c-0.553,0-1-0.447-1-1s0.447-1,1-1
				c2.206,0,4,1.794,4,4C22.996,4.553,22.549,5,21.996,5z"/>
		</g>
		<g>
			<path fill="#545C66" d="M18.996,2h-4c-0.553,0-1-0.447-1-1s0.447-1,1-1h4c0.553,0,1,0.447,1,1S19.549,2,18.996,2z"/>
		</g>
	</g>
	<g>
		<g>
			<path fill="#545C66" d="M18.996,64c-0.553,0-1-0.447-1-1s0.447-1,1-1c1.103,0,2-0.897,2-2c0-0.553,0.447-1,1-1s1,0.447,1,1
				C22.996,62.206,21.202,64,18.996,64z"/>
		</g>
		<g>
			<path fill="#545C66" d="M14.996,64c-2.206,0-4-1.794-4-4c0-0.553,0.447-1,1-1s1,0.447,1,1c0,1.103,0.897,2,2,2
				c0.553,0,1,0.447,1,1S15.549,64,14.996,64z"/>
		</g>
		<g>
			<path fill="#545C66" d="M18.996,64h-4c-0.553,0-1-0.447-1-1s0.447-1,1-1h4c0.553,0,1,0.447,1,1S19.549,64,18.996,64z"/>
		</g>
	</g>
	<g>
		<path fill="#545C66" d="M21.996,53.993c-0.553,0-1-0.447-1-1c0-2.206,1.794-4,4-4c0.553,0,1,0.447,1,1s-0.447,1-1,1
			c-1.103,0-2,0.897-2,2C22.996,53.546,22.549,53.993,21.996,53.993z"/>
	</g>
	<g>
		<path fill="#545C66" d="M11.996,53.993c-0.553,0-1-0.447-1-1c0-1.103-0.897-2-2-2c-0.553,0-1-0.447-1-1s0.447-1,1-1
			c2.206,0,4,1.794,4,4C12.996,53.546,12.549,53.993,11.996,53.993z"/>
	</g>
	<g>
		<path fill="#545C66" d="M11.996,61c-0.553,0-1-0.447-1-1v-7.007c0-0.553,0.447-1,1-1s1,0.447,1,1V60
			C12.996,60.553,12.549,61,11.996,61z"/>
	</g>
	<g>
		<path fill="#545C66" d="M21.996,61c-0.553,0-1-0.447-1-1v-7.007c0-0.553,0.447-1,1-1s1,0.447,1,1V60
			C22.996,60.553,22.549,61,21.996,61z"/>
	</g>
	<g>
		<path fill="#545C66" d="M24.996,50.999c-0.553,0-1-0.447-1-1s0.447-1,1-1c0.552,0,1-0.448,1-1c0-0.553,0.447-1,1-1s1,0.447,1,1
			C27.996,49.653,26.65,50.999,24.996,50.999z"/>
	</g>
	<g>
		<path fill="#545C66" d="M8.996,50.999c-1.654,0-3-1.346-3-3c0-0.553,0.447-1,1-1s1,0.447,1,1c0,0.552,0.448,1,1,1
			c0.553,0,1,0.447,1,1S9.549,50.999,8.996,50.999z"/>
	</g>
	<g>
		<path fill="#545C66" d="M8.996,15.006c-0.553,0-1-0.447-1-1s0.447-1,1-1c1.103,0,2-0.897,2-2c0-0.553,0.447-1,1-1s1,0.447,1,1
			C12.996,13.212,11.202,15.006,8.996,15.006z"/>
	</g>
	<g>
		<path fill="#545C66" d="M24.996,15.006c-2.206,0-4-1.794-4-4c0-0.553,0.447-1,1-1s1,0.447,1,1c0,1.103,0.897,2,2,2
			c0.553,0,1,0.447,1,1S25.549,15.006,24.996,15.006z"/>
	</g>
	<g>
		<path fill="#545C66" d="M21.996,12.006c-0.553,0-1-0.447-1-1V3.999c0-0.553,0.447-1,1-1s1,0.447,1,1v7.007
			C22.996,11.559,22.549,12.006,21.996,12.006z"/>
	</g>
	<g>
		<path fill="#545C66" d="M11.996,12.006c-0.553,0-1-0.447-1-1V3.999c0-0.553,0.447-1,1-1s1,0.447,1,1v7.007
			C12.996,11.559,12.549,12.006,11.996,12.006z"/>
	</g>
	<g>
		<path fill="#545C66" d="M6.996,17c-0.553,0-1-0.447-1-1c0-1.654,1.346-3,3-3c0.553,0,1,0.447,1,1s-0.447,1-1,1
			c-0.552,0-1,0.448-1,1C7.996,16.553,7.549,17,6.996,17z"/>
	</g>
	<g>
		<path fill="#545C66" d="M26.996,17c-0.553,0-1-0.447-1-1c0-0.552-0.448-1-1-1c-0.553,0-1-0.447-1-1s0.447-1,1-1
			c1.654,0,3,1.346,3,3C27.996,16.553,27.549,17,26.996,17z"/>
	</g>
	<g>
		<path fill="#545C66" d="M6.996,48.999c-0.553,0-1-0.447-1-1V16c0-0.553,0.447-1,1-1s1,0.447,1,1v31.999
			C7.996,48.552,7.549,48.999,6.996,48.999z"/>
	</g>
	<g>
		<path fill="#545C66" d="M26.996,48.999c-0.553,0-1-0.447-1-1V16c0-0.553,0.447-1,1-1s1,0.447,1,1v31.999
			C27.996,48.552,27.549,48.999,26.996,48.999z"/>
	</g>
	<g>
		<path fill="#AAB2BD" d="M16.996,11.999c-0.553,0-1-0.447-1-1V5c0-0.553,0.447-1,1-1s1,0.447,1,1v5.999
			C17.996,11.552,17.549,11.999,16.996,11.999z"/>
	</g>
	<g>
		<path fill="#656D78" d="M24.996,9.001h-16c-0.553,0-1-0.447-1-1s0.447-1,1-1h16c0.553,0,1,0.447,1,1S25.549,9.001,24.996,9.001z"
			/>
	</g>
	<g>
		<path fill="#E6E9ED" d="M29.996,12.006h-5c-0.553,0-1-0.447-1-1V5c0-0.553,0.447-1,1-1h5c0.553,0,1,0.447,1,1v6.006
			C30.996,11.559,30.549,12.006,29.996,12.006z M25.996,10.006h3V6h-3V10.006z"/>
	</g>
	<g>
		<path fill="#E6E9ED" d="M8.996,12.006h-5c-0.553,0-1-0.447-1-1V5c0-0.553,0.447-1,1-1h5c0.553,0,1,0.447,1,1v6.006
			C9.996,11.559,9.549,12.006,8.996,12.006z M4.996,10.006h3V6h-3V10.006z"/>
	</g>
	<g>
		<path fill="#AAB2BD" d="M16.996,60.996c-0.553,0-1-0.447-1-1v-5.999c0-0.553,0.447-1,1-1s1,0.447,1,1v5.999
			C17.996,60.549,17.549,60.996,16.996,60.996z"/>
	</g>
	<g>
		<path fill="#656D78" d="M24.996,57.998h-16c-0.553,0-1-0.447-1-1s0.447-1,1-1h16c0.553,0,1,0.447,1,1S25.549,57.998,24.996,57.998
			z"/>
	</g>
	<g>
		<path fill="#E6E9ED" d="M29.996,61.003h-5c-0.553,0-1-0.447-1-1v-6.006c0-0.553,0.447-1,1-1h5c0.553,0,1,0.447,1,1v6.006
			C30.996,60.556,30.549,61.003,29.996,61.003z M25.996,59.003h3v-4.006h-3V59.003z"/>
	</g>
	<g>
		<path fill="#E6E9ED" d="M8.996,61.003h-5c-0.553,0-1-0.447-1-1v-6.006c0-0.553,0.447-1,1-1h5c0.553,0,1,0.447,1,1v6.006
			C9.996,60.556,9.549,61.003,8.996,61.003z M4.996,59.003h3v-4.006h-3V59.003z"/>
	</g>
	<g>
		<g>
			<g>
				<path fill="#48CFAD" d="M42.004,5c-0.553,0-1-0.447-1-1c0-2.206,1.794-4,4-4c0.553,0,1,0.447,1,1s-0.447,1-1,1
					c-1.103,0-2,0.897-2,2C43.004,4.553,42.557,5,42.004,5z"/>
			</g>
			<g>
				<path fill="#48CFAD" d="M52.004,5c-0.553,0-1-0.447-1-1c0-1.103-0.897-2-2-2c-0.553,0-1-0.447-1-1s0.447-1,1-1
					c2.206,0,4,1.794,4,4C53.004,4.553,52.557,5,52.004,5z"/>
			</g>
			<g>
				<path fill="#48CFAD" d="M49.004,2h-4c-0.553,0-1-0.447-1-1s0.447-1,1-1h4c0.553,0,1,0.447,1,1S49.557,2,49.004,2z"/>
			</g>
		</g>
		<g>
			<g>
				<path fill="#48CFAD" d="M49.004,64c-0.553,0-1-0.447-1-1s0.447-1,1-1c1.103,0,2-0.897,2-2c0-0.553,0.447-1,1-1s1,0.447,1,1
					C53.004,62.206,51.21,64,49.004,64z"/>
			</g>
			<g>
				<path fill="#48CFAD" d="M45.004,64c-2.206,0-4-1.794-4-4c0-0.553,0.447-1,1-1s1,0.447,1,1c0,1.103,0.897,2,2,2
					c0.553,0,1,0.447,1,1S45.557,64,45.004,64z"/>
			</g>
			<g>
				<path fill="#48CFAD" d="M49.004,64h-4c-0.553,0-1-0.447-1-1s0.447-1,1-1h4c0.553,0,1,0.447,1,1S49.557,64,49.004,64z"/>
			</g>
		</g>
		<g>
			<path fill="#48CFAD" d="M52.004,53.993c-0.553,0-1-0.447-1-1c0-2.206,1.794-4,4-4c0.553,0,1,0.447,1,1s-0.447,1-1,1
				c-1.103,0-2,0.897-2,2C53.004,53.546,52.557,53.993,52.004,53.993z"/>
		</g>
		<g>
			<path fill="#48CFAD" d="M42.004,53.993c-0.553,0-1-0.447-1-1c0-1.103-0.897-2-2-2c-0.553,0-1-0.447-1-1s0.447-1,1-1
				c2.206,0,4,1.794,4,4C43.004,53.546,42.557,53.993,42.004,53.993z"/>
		</g>
		<g>
			<path fill="#48CFAD" d="M42.004,61c-0.553,0-1-0.447-1-1v-7.007c0-0.553,0.447-1,1-1s1,0.447,1,1V60
				C43.004,60.553,42.557,61,42.004,61z"/>
		</g>
		<g>
			<path fill="#48CFAD" d="M52.004,61c-0.553,0-1-0.447-1-1v-7.007c0-0.553,0.447-1,1-1s1,0.447,1,1V60
				C53.004,60.553,52.557,61,52.004,61z"/>
		</g>
		<g>
			<path fill="#48CFAD" d="M55.004,50.999c-0.553,0-1-0.447-1-1s0.447-1,1-1c0.552,0,1-0.448,1-1c0-0.553,0.447-1,1-1s1,0.447,1,1
				C58.004,49.653,56.658,50.999,55.004,50.999z"/>
		</g>
		<g>
			<path fill="#48CFAD" d="M39.004,50.999c-1.654,0-3-1.346-3-3c0-0.553,0.447-1,1-1s1,0.447,1,1c0,0.552,0.448,1,1,1
				c0.553,0,1,0.447,1,1S39.557,50.999,39.004,50.999z"/>
		</g>
		<g>
			<path fill="#48CFAD" d="M39.004,15.006c-0.553,0-1-0.447-1-1s0.447-1,1-1c1.103,0,2-0.897,2-2c0-0.553,0.447-1,1-1s1,0.447,1,1
				C43.004,13.212,41.21,15.006,39.004,15.006z"/>
		</g>
		<g>
			<path fill="#48CFAD" d="M55.004,15.006c-2.206,0-4-1.794-4-4c0-0.553,0.447-1,1-1s1,0.447,1,1c0,1.103,0.897,2,2,2
				c0.553,0,1,0.447,1,1S55.557,15.006,55.004,15.006z"/>
		</g>
		<g>
			<path fill="#48CFAD" d="M52.004,12.006c-0.553,0-1-0.447-1-1V3.999c0-0.553,0.447-1,1-1s1,0.447,1,1v7.007
				C53.004,11.559,52.557,12.006,52.004,12.006z"/>
		</g>
		<g>
			<path fill="#48CFAD" d="M42.004,12.006c-0.553,0-1-0.447-1-1V3.999c0-0.553,0.447-1,1-1s1,0.447,1,1v7.007
				C43.004,11.559,42.557,12.006,42.004,12.006z"/>
		</g>
		<g>
			<path fill="#48CFAD" d="M37.004,17c-0.553,0-1-0.447-1-1c0-1.654,1.346-3,3-3c0.553,0,1,0.447,1,1s-0.447,1-1,1
				c-0.552,0-1,0.448-1,1C38.004,16.553,37.557,17,37.004,17z"/>
		</g>
		<g>
			<path fill="#48CFAD" d="M57.004,17c-0.553,0-1-0.447-1-1c0-0.552-0.448-1-1-1c-0.553,0-1-0.447-1-1s0.447-1,1-1
				c1.654,0,3,1.346,3,3C58.004,16.553,57.557,17,57.004,17z"/>
		</g>
		<g>
			<path fill="#48CFAD" d="M37.004,48.999c-0.553,0-1-0.447-1-1V16c0-0.553,0.447-1,1-1s1,0.447,1,1v31.999
				C38.004,48.552,37.557,48.999,37.004,48.999z"/>
		</g>
		<g>
			<path fill="#48CFAD" d="M57.004,48.999c-0.553,0-1-0.447-1-1V16c0-0.553,0.447-1,1-1s1,0.447,1,1v31.999
				C58.004,48.552,57.557,48.999,57.004,48.999z"/>
		</g>
	</g>
	<g>
		<path fill="#545C66" d="M45.508,57.998h-6.504c-0.553,0-1-0.447-1-1s0.447-1,1-1h6.504c0.553,0,1,0.447,1,1
			S46.061,57.998,45.508,57.998z"/>
	</g>
	<g>
		<path fill="#545C66" d="M55.004,57.998h-6.498c-0.553,0-1-0.447-1-1s0.447-1,1-1h6.498c0.553,0,1,0.447,1,1
			S55.557,57.998,55.004,57.998z"/>
	</g>
	<g>
		<path fill="#545C66" d="M45.508,8.998h-6.504c-0.553,0-1-0.447-1-1s0.447-1,1-1h6.504c0.553,0,1,0.447,1,1
			S46.061,8.998,45.508,8.998z"/>
	</g>
	<g>
		<path fill="#545C66" d="M55.004,8.998h-6.498c-0.553,0-1-0.447-1-1s0.447-1,1-1h6.498c0.553,0,1,0.447,1,1
			S55.557,8.998,55.004,8.998z"/>
	</g>
	<g>
		<path fill="#FFCE54" d="M47.006,39c-3.859,0-7-3.141-7-7s3.141-7,7-7s7,3.141,7,7S50.865,39,47.006,39z M47.006,27
			c-2.757,0-5,2.243-5,5s2.243,5,5,5s5-2.243,5-5S49.763,27,47.006,27z"/>
	</g>
	<g>
		<path fill="#EDAB37" d="M46.004,33c-0.104,0-0.212-0.017-0.316-0.052c-0.524-0.175-0.807-0.741-0.632-1.265l1.002-3
			c0.175-0.523,0.741-0.808,1.265-0.632c0.524,0.175,0.807,0.741,0.632,1.265l-1.002,3C46.813,32.735,46.423,33,46.004,33z"/>
	</g>
	<g>
		<path fill="#EDAB37" d="M48.004,33h-2c-0.553,0-1-0.447-1-1s0.447-1,1-1h2c0.553,0,1,0.447,1,1S48.557,33,48.004,33z"/>
	</g>
	<g>
		<path fill="#EDAB37" d="M47.004,35.999c-0.104,0-0.211-0.017-0.316-0.052c-0.523-0.174-0.807-0.74-0.632-1.265l1-2.999
			c0.175-0.523,0.736-0.809,1.265-0.632c0.523,0.174,0.807,0.74,0.632,1.265l-1,2.999C47.813,35.734,47.423,35.999,47.004,35.999z"
			/>
	</g>
	<g>
		<path fill="#656D78" d="M48.506,12h-2.998c-0.553,0-1-0.447-1-1V5.001c0-0.553,0.447-1,1-1h2.998c0.553,0,1,0.447,1,1V11
			C49.506,11.553,49.059,12,48.506,12z M46.508,10h0.998V6.001h-0.998V10z"/>
	</g>
	<g>
		<path fill="#E6E9ED" d="M60.004,12.003h-5c-0.553,0-1-0.447-1-1V4.997c0-0.553,0.447-1,1-1h5c0.553,0,1,0.447,1,1v6.006
			C61.004,11.556,60.557,12.003,60.004,12.003z M56.004,10.003h3V5.997h-3V10.003z"/>
	</g>
	<g>
		<path fill="#E6E9ED" d="M39.004,12.003h-5c-0.553,0-1-0.447-1-1V4.997c0-0.553,0.447-1,1-1h5c0.553,0,1,0.447,1,1v6.006
			C40.004,11.556,39.557,12.003,39.004,12.003z M35.004,10.003h3V5.997h-3V10.003z"/>
	</g>
	<g>
		<polygon fill="#E6E9ED" points="60.005,54 60.005,60 55.005,60 55.005,57 55.005,54 		"/>
	</g>
	<g>
		<polygon fill="#E6E9ED" points="39.005,57 39.005,60 34.005,60 34.005,54 39.005,54 		"/>
	</g>
	<path fill="#E6E9ED" d="M60.004,61.003h-5c-0.553,0-1-0.447-1-1v-6.006c0-0.553,0.447-1,1-1h5c0.553,0,1,0.447,1,1v6.006
		C61.004,60.556,60.557,61.003,60.004,61.003z M56.004,59.003h3v-4.006h-3V59.003z"/>
	<g>
		<path fill="#E6E9ED" d="M39.004,61.003h-5c-0.553,0-1-0.447-1-1v-6.006c0-0.553,0.447-1,1-1h5c0.553,0,1,0.447,1,1v6.006
			C40.004,60.556,39.557,61.003,39.004,61.003z M35.004,59.003h3v-4.006h-3V59.003z"/>
	</g>
	<g>
		<polygon fill="#656D78" points="48.505,57 48.505,60 45.505,60 45.505,57 45.505,54 48.505,54 		"/>
	</g>
	<g>
		<path fill="#656D78" d="M48.506,61h-2.998c-0.553,0-1-0.447-1-1v-5.999c0-0.553,0.447-1,1-1h2.998c0.553,0,1,0.447,1,1V60
			C49.506,60.553,49.059,61,48.506,61z M46.508,59h0.998v-3.999h-0.998V59z"/>
	</g>
</g>
</svg>
