<?xml version="1.0" encoding="utf-8"?>
<!-- Generator: Adobe Illustrator 16.0.0, SVG Export Plug-In . SVG Version: 6.00 Build 0)  -->
<!DOCTYPE svg PUBLIC "-//W3C//DTD SVG 1.1//EN" "http://www.w3.org/Graphics/SVG/1.1/DTD/svg11.dtd">
<svg version="1.1" id="icons" xmlns="http://www.w3.org/2000/svg" xmlns:xlink="http://www.w3.org/1999/xlink" x="0px" y="0px"
	 width="64px" height="64px" viewBox="0 0 64 64" enable-background="new 0 0 64 64" xml:space="preserve">
<g>
	<path fill="#CCD1D9" d="M8.008,19.5H2.002c-0.553,0-1-0.447-1-1s0.447-1,1-1h6.006c0.553,0,1,0.447,1,1S8.561,19.5,8.008,19.5z"/>
	<path fill="#CCD1D9" d="M61.998,19.5h-6.006c-0.553,0-1-0.447-1-1s0.447-1,1-1h6.006c0.553,0,1,0.447,1,1S62.551,19.5,61.998,19.5z
		"/>
	<path fill="#E6E9ED" d="M2.002,22.5c-0.553,0-1-0.447-1-1v-6c0-0.553,0.447-1,1-1s1,0.447,1,1v6
		C3.002,22.053,2.555,22.5,2.002,22.5z"/>
	<path fill="#E6E9ED" d="M8.008,22.5c-0.553,0-1-0.447-1-1v-6c0-0.553,0.447-1,1-1s1,0.447,1,1v6
		C9.008,22.053,8.561,22.5,8.008,22.5z"/>
	<path fill="#E6E9ED" d="M8.008,16.5H2.002c-0.553,0-1-0.447-1-1s0.447-1,1-1h6.006c0.553,0,1,0.447,1,1S8.561,16.5,8.008,16.5z"/>
	<path fill="#E6E9ED" d="M55.992,22.5c-0.553,0-1-0.447-1-1v-6c0-0.553,0.447-1,1-1s1,0.447,1,1v6
		C56.992,22.053,56.545,22.5,55.992,22.5z"/>
	<path fill="#E6E9ED" d="M61.998,22.5c-0.553,0-1-0.447-1-1v-6c0-0.553,0.447-1,1-1s1,0.447,1,1v6
		C62.998,22.053,62.551,22.5,61.998,22.5z"/>
	<path fill="#E6E9ED" d="M61.998,16.5h-6.006c-0.553,0-1-0.447-1-1s0.447-1,1-1h6.006c0.553,0,1,0.447,1,1S62.551,16.5,61.998,16.5z
		"/>
	<path fill="#FFD2A6" d="M8.008,22.5H2.002c-0.553,0-1-0.447-1-1s0.447-1,1-1h6.006c0.553,0,1,0.447,1,1S8.561,22.5,8.008,22.5z"/>
	<path fill="#F7C292" d="M9.008,20.5H4.002v2h5.006c0.553,0,1-0.447,1-1S9.561,20.5,9.008,20.5z"/>
	<path fill="#FFD2A6" d="M60.998,22.5h-6.006c-0.553,0-1-0.447-1-1s0.447-1,1-1h6.006c0.553,0,1,0.447,1,1S61.551,22.5,60.998,22.5z
		"/>
	<path fill="#FFD2A6" d="M58.057,49.5H2.002c-0.553,0-1-0.447-1-1s0.447-1,1-1h56.055c0.553,0,1,0.447,1,1S58.609,49.5,58.057,49.5z
		"/>
	<path fill="#F7C292" d="M61.998,20.5h-5.004v2h5.004c0.553,0,1-0.447,1-1S62.551,20.5,61.998,20.5z"/>
	<path fill="#F7C292" d="M61.998,47.5h-5.004v2h5.004c0.553,0,1-0.447,1-1S62.551,47.5,61.998,47.5z"/>
	<path fill="#E6E9ED" d="M27.5,37.001c1.107,0,2,0.894,2,2s-0.893,2-2,2c-1.105,0-2-0.894-2-2S26.395,37.001,27.5,37.001z"/>
	<path fill="#E6E9ED" d="M34.5,37.001c1.107,0,2,0.894,2,2s-0.893,2-2,2c-1.105,0-2-0.894-2-2S33.395,37.001,34.5,37.001z"/>
	<polygon fill="#F7C292" points="57.004,21.5 60,21.5 63,21.5 63,48.5 56.994,48.5 56.994,21.5 	"/>
	<path fill="#F7C292" d="M10.01,21.5c0,11.05,8.941,20,20,20H24c-11.049,0-20-8.95-20-20h3.01H10.01z"/>
	<path fill="#FFD2A6" d="M56.994,21.5v27H1v-27h3c0,11.05,8.951,20,20,20h6.01h3.994c11.049,0,20-8.95,20-20H56.994z"/>
	<g>
		<path fill="#656D78" d="M38.004,38.501H23.998c-0.553,0-1-0.447-1-1s0.447-1,1-1h14.006c0.553,0,1,0.447,1,1
			S38.557,38.501,38.004,38.501z"/>
	</g>
	<g>
		<path fill="#656D78" d="M23.998,38.501c-0.256,0-0.512-0.098-0.707-0.293l-1-1c-0.391-0.391-0.391-1.023,0-1.414
			s1.023-0.391,1.414,0l1,1c0.391,0.391,0.391,1.023,0,1.414C24.51,38.403,24.254,38.501,23.998,38.501z"/>
	</g>
	<g>
		<path fill="#656D78" d="M38.004,38.501c-0.256,0-0.512-0.098-0.707-0.293c-0.391-0.391-0.391-1.023,0-1.414l1-1
			c0.391-0.391,1.023-0.391,1.414,0s0.391,1.023,0,1.414l-1,1C38.516,38.403,38.26,38.501,38.004,38.501z"/>
	</g>
</g>
</svg>
