<?xml version="1.0" encoding="utf-8"?>
<!-- Generator: Adobe Illustrator 16.0.0, SVG Export Plug-In . SVG Version: 6.00 Build 0)  -->
<!DOCTYPE svg PUBLIC "-//W3C//DTD SVG 1.1//EN" "http://www.w3.org/Graphics/SVG/1.1/DTD/svg11.dtd">
<svg version="1.1" id="icons" xmlns="http://www.w3.org/2000/svg" xmlns:xlink="http://www.w3.org/1999/xlink" x="0px" y="0px"
	 width="64px" height="64px" viewBox="0 0 64 64" enable-background="new 0 0 64 64" xml:space="preserve">
<g>
	<g>
		<rect x="56.999" y="11" fill="#E6E9ED" width="3" height="7"/>
	</g>
	<g>
		<path fill="#E6E9ED" d="M60.001,18.999L60.001,18.999l-2.998-0.001c-0.553,0-1-0.448-1-1c0-0.553,0.448-1,1-1l0,0l1.998,0.001
			v-5.002h-1.998c-0.553,0-1-0.447-1-1s0.447-1,1-1h2.998c0.553,0,1,0.447,1,1v7.002c0,0.266-0.105,0.52-0.293,0.707
			S60.266,18.999,60.001,18.999z"/>
	</g>
	<g>
		<path fill="#E6E9ED" d="M38.999,18.998h-2.998c-0.553,0-1-0.447-1-1v-7.001c0-0.553,0.447-1,1-1h2.998c0.553,0,1,0.447,1,1
			s-0.447,1-1,1h-1.998v5.001h1.998c0.553,0,1,0.447,1,1S39.552,18.998,38.999,18.998z"/>
	</g>
	<g>
		<path fill="#E6E9ED" d="M60.001,54.033L60.001,54.033l-2.998-0.001c-0.553,0-1-0.448-1-1c0-0.553,0.448-1,1-1l0,0l1.998,0.001
			v-5.002h-1.998c-0.553,0-1-0.447-1-1s0.447-1,1-1h2.998c0.553,0,1,0.447,1,1v7.002c0,0.266-0.105,0.52-0.293,0.707
			S60.266,54.033,60.001,54.033z"/>
	</g>
	<g>
		<path fill="#E6E9ED" d="M38.999,54.032h-2.998c-0.553,0-1-0.447-1-1v-7.001c0-0.553,0.447-1,1-1h2.998c0.553,0,1,0.447,1,1
			s-0.447,1-1,1h-1.998v5.001h1.998c0.553,0,1,0.447,1,1S39.552,54.032,38.999,54.032z"/>
	</g>
	<g>
		<path fill="#E6E9ED" d="M19,16v1.99h-6.01V16L13,13c0-1.66,1.34-3,3-3c1.65,0,3,1.34,3,3h-0.01L19,16z"/>
	</g>
	<g>
		<polygon fill="#CCD1D9" points="19,13 25,13 25,16 19,16 18.99,13 		"/>
	</g>
	<g>
		<polygon fill="#CCD1D9" points="13,13 12.99,16 7,16 7,13 12.99,13 		"/>
	</g>
	<g>
		<polygon fill="#E6E9ED" points="8.001,16 8.001,18 7.001,18 4.001,18 4.001,11 7.001,11 8.001,11 8.001,13 		"/>
	</g>
	<g>
		<polygon fill="#E6E9ED" points="24.999,11 27.999,11 27.999,18 24.999,18 23.999,18 23.999,16 23.999,13 23.999,11 		"/>
	</g>
	<g>
		<path fill="#5D9CEC" d="M26,11h-1v2h-6c0-1.66-1.35-3-3-3c-1.66,0-3,1.34-3,3h-0.01H7v-2H6C6,5.48,10.47,1,16,1
			C21.52,1,26,5.48,26,11z"/>
	</g>
	<g>
		<rect x="36.001" y="11" fill="#E6E9ED" width="3" height="7"/>
	</g>
	<g>
		<path fill="#E6E9ED" d="M39.001,53.01c0,0.01,0,0.01,0,0.021h-3v-7h3V53V53.01z"/>
	</g>
	<g>
		<path fill="#E6E9ED" d="M59.999,46.03v7h-3c0-0.011,0-0.011,0-0.021V53v-6.97H59.999z"/>
	</g>
	<g>
		<path fill="#656D78" d="M58,53.01c0,0.01,0,0.01,0,0.021C57.98,58.54,53.51,63,48,63s-9.98-4.46-10-9.97c0-0.011,0-0.011,0-0.021
			V53v-6.97V18v-7v-0.01C38.01,5.47,42.48,1,48,1s9.99,4.47,10,9.99V11v7v28.03V53V53.01z"/>
	</g>
	<g>
		<polygon fill="#E6E9ED" points="8.001,51 8.001,53 7.001,53 4.001,53 4.001,46 7.001,46 8.001,46 8.001,48 		"/>
	</g>
	<g>
		<rect x="7" y="48" fill="#CCD1D9" width="6" height="3"/>
	</g>
	<g>
		<path fill="#E6E9ED" d="M19,48v3c0,1.66-1.34,3-3,3s-3-1.34-3-3v-3v-2h6V48z"/>
	</g>
	<g>
		<polygon fill="#E6E9ED" points="24.999,46 27.999,46 27.999,53 24.999,53 23.999,53 23.999,51 23.999,48 23.999,46 		"/>
	</g>
	<g>
		<polygon fill="#5D9CEC" points="19,46 13,46 13,48 7,48 7,46 6,46 6,18 7,18 7,16 12.99,16 12.99,17.99 19,17.99 19,16 25,16 
			25,18 26,18 26,46 25,46 25,48 19.01,48 19,48 		"/>
	</g>
	<g>
		<polygon fill="#CCD1D9" points="25,48 25,51 19.01,51 19,51 19,48 19.01,48 		"/>
	</g>
	<g>
		<path fill="#5D9CEC" d="M16,54c1.66,0,3-1.34,3-3h0.01H25v2h1c0,5.52-4.48,10-10,10c-5.53,0-10-4.48-10-10h1v-2h6
			C13,52.66,14.34,54,16,54z"/>
	</g>
	<g>
		<path fill="#CCD1D9" d="M16.03,52.002c-0.553,0-1.005-0.447-1.005-1s0.442-1,0.994-1h0.011c0.552,0,1,0.447,1,1
			S16.582,52.002,16.03,52.002z"/>
	</g>
	<g>
		<path fill="#E6E9ED" d="M7.999,54.002h-4c-0.553,0-1-0.447-1-1v-7.001c0-0.553,0.447-1,1-1h4c0.553,0,1,0.447,1,1v7.001
			C8.999,53.555,8.552,54.002,7.999,54.002z M4.999,52.002h2v-5.001h-2V52.002z"/>
	</g>
	<g>
		<path fill="#E6E9ED" d="M27.999,54.002h-4c-0.553,0-1-0.447-1-1v-7.001c0-0.553,0.447-1,1-1h4c0.553,0,1,0.447,1,1v7.001
			C28.999,53.555,28.552,54.002,27.999,54.002z M24.999,52.002h2v-5.001h-2V52.002z"/>
	</g>
	<g>
		<path fill="#CCD1D9" d="M16.028,13.997c-0.553,0-1.005-0.447-1.005-1s0.442-1,0.994-1h0.011c0.552,0,1,0.447,1,1
			S16.58,13.997,16.028,13.997z"/>
	</g>
	<g>
		<path fill="#E6E9ED" d="M27.999,18.999L27.999,18.999l-4-0.001c-0.553,0-1-0.448-1-1v-7.001c0-0.553,0.447-1,1-1h4
			c0.553,0,1,0.447,1,1v7.002c0,0.266-0.105,0.52-0.293,0.707S28.265,18.999,27.999,18.999z M24.999,16.998l2,0.001v-5.002h-2
			V16.998z"/>
	</g>
	<g>
		<path fill="#E6E9ED" d="M7.999,18.998h-4c-0.553,0-1-0.447-1-1v-7.001c0-0.553,0.447-1,1-1h4c0.553,0,1,0.447,1,1v7.001
			C8.999,18.551,8.552,18.998,7.999,18.998z M4.999,16.998h2v-5.001h-2V16.998z"/>
	</g>
	<g>
		<g>
			<g>
				<path fill="#545C66" d="M46.032,13.001c-0.553,0-1.005-0.447-1.005-1s0.442-1,0.994-1h0.011c0.552,0,1,0.447,1,1
					S46.584,13.001,46.032,13.001z"/>
			</g>
		</g>
		<g>
			<g>
				<path fill="#545C66" d="M46.032,18.001c-0.553,0-1.005-0.447-1.005-1s0.442-1,0.994-1h0.011c0.552,0,1,0.447,1,1
					S46.584,18.001,46.032,18.001z"/>
			</g>
		</g>
		<g>
			<g>
				<path fill="#545C66" d="M50.036,13.001c-0.553,0-1.005-0.447-1.005-1s0.442-1,0.994-1h0.011c0.552,0,1,0.447,1,1
					S50.588,13.001,50.036,13.001z"/>
			</g>
		</g>
		<g>
			<g>
				<path fill="#545C66" d="M50.036,18.001c-0.553,0-1.005-0.447-1.005-1s0.442-1,0.994-1h0.011c0.552,0,1,0.447,1,1
					S50.588,18.001,50.036,18.001z"/>
			</g>
		</g>
	</g>
	<g>
		<g>
			<g>
				<path fill="#545C66" d="M46.032,48.001c-0.553,0-1.005-0.447-1.005-1s0.442-1,0.994-1h0.011c0.552,0,1,0.447,1,1
					S46.584,48.001,46.032,48.001z"/>
			</g>
		</g>
		<g>
			<g>
				<path fill="#545C66" d="M46.032,53.001c-0.553,0-1.005-0.447-1.005-1s0.442-1,0.994-1h0.011c0.552,0,1,0.447,1,1
					S46.584,53.001,46.032,53.001z"/>
			</g>
		</g>
		<g>
			<g>
				<path fill="#545C66" d="M50.036,48.001c-0.553,0-1.005-0.447-1.005-1s0.442-1,0.994-1h0.011c0.552,0,1,0.447,1,1
					S50.588,48.001,50.036,48.001z"/>
			</g>
		</g>
		<g>
			<g>
				<path fill="#545C66" d="M50.036,53.001c-0.553,0-1.005-0.447-1.005-1s0.442-1,0.994-1h0.011c0.552,0,1,0.447,1,1
					S50.588,53.001,50.036,53.001z"/>
			</g>
		</g>
	</g>
	<path fill="#E6E9ED" d="M17.996,19h-4.004c-0.553,0-1-0.447-1-1s0.447-1,1-1h4.004c0.553,0,1,0.447,1,1S18.549,19,17.996,19z"/>
	<path fill="#E6E9ED" d="M17.996,47.03h-4.004c-0.553,0-1-0.447-1-1s0.447-1,1-1h4.004c0.553,0,1,0.447,1,1
		S18.549,47.03,17.996,47.03z"/>
</g>
</svg>
