<?xml version="1.0" encoding="utf-8"?>
<!-- Generator: Adobe Illustrator 16.0.0, SVG Export Plug-In . SVG Version: 6.00 Build 0)  -->
<!DOCTYPE svg PUBLIC "-//W3C//DTD SVG 1.1//EN" "http://www.w3.org/Graphics/SVG/1.1/DTD/svg11.dtd">
<svg version="1.1" id="icons" xmlns="http://www.w3.org/2000/svg" xmlns:xlink="http://www.w3.org/1999/xlink" x="0px" y="0px"
	 width="64px" height="64px" viewBox="0 0 64 64" enable-background="new 0 0 64 64" xml:space="preserve">
<g>
	<g>
		<path fill="#656D78" d="M14.994,64.001c-0.116,0.001-0.232-0.019-0.347-0.062c-0.519-0.191-0.783-0.766-0.592-1.284l7.757-21.061
			c0.192-0.519,0.768-0.783,1.284-0.592c0.519,0.191,0.783,0.765,0.594,1.283l-7.759,21.061
			C15.783,63.752,15.401,64.001,14.994,64.001z"/>
	</g>
	<g>
		<path fill="#656D78" d="M42.985,64.001c-0.407,0-0.79-0.249-0.938-0.654l-7.761-21.068c-0.191-0.519,0.073-1.092,0.593-1.284
			c0.518-0.189,1.093,0.075,1.283,0.594l7.761,21.067c0.191,0.519-0.074,1.094-0.593,1.285
			C43.217,63.982,43.101,64.002,42.985,64.001z"/>
	</g>
	<g>
		<path fill="#545C66" d="M28.994,61.003c-0.554,0-1.001-0.446-1-1l-0.001-16.957c0-0.553,0.448-1,1-1
			c0.554,0.001,1,0.447,1.001,1.001v16.956C29.994,60.556,29.547,61.003,28.994,61.003z"/>
	</g>
	<g>
		<polygon fill="#DA4453" points="48.772,5.252 53.013,5.242 48.063,10.191 43.822,10.202 45.243,8.781 		"/>
	</g>
	<g>
		<path fill="#DA4453" d="M43.821,11.196c-0.403,0-0.768-0.243-0.923-0.616c-0.156-0.375-0.069-0.804,0.217-1.09l4.949-4.951
			c0.188-0.188,0.442-0.293,0.707-0.293l4.245-0.002l0,0c0.403,0.001,0.769,0.244,0.924,0.617c0.154,0.374,0.069,0.804-0.218,1.091
			l-4.949,4.949c-0.188,0.188-0.442,0.293-0.707,0.293L43.821,11.196L43.821,11.196z M49.187,6.246l-2.95,2.949l1.415-0.001
			l2.949-2.949L49.187,6.246z"/>
	</g>
	<g>
		<polygon fill="#ED5565" points="48.773,1.002 48.772,5.252 45.243,8.781 43.822,10.202 43.822,5.952 		"/>
	</g>
	<path fill="#ED5565" d="M43.821,11.196c-0.128,0-0.259-0.024-0.383-0.076c-0.373-0.155-0.617-0.519-0.617-0.924l0.002-4.244
		c0.001-0.267,0.105-0.521,0.294-0.708l4.949-4.95c0.286-0.287,0.717-0.373,1.09-0.217c0.375,0.155,0.617,0.52,0.617,0.924
		l-0.002,4.245c0.001,0.266-0.105,0.52-0.293,0.707l-4.95,4.95C44.337,11.095,44.082,11.197,43.821,11.196z M44.824,6.365
		l-0.002,1.416l2.95-2.949l0.001-1.416L44.824,6.365z"/>
	<g>
		<path fill="#ED5565" d="M31.094,22.922c1.18,1.17,1.18,3.07,0,4.251c-1.17,1.17-3.07,1.17-4.241-0.001
			c-1.17-1.18-1.169-3.08,0-4.25C28.023,21.752,29.924,21.752,31.094,22.922z"/>
	</g>
	<g>
		<path fill="#E6E9ED" d="M31.094,22.922c-1.17-1.17-3.07-1.17-4.241,0c-1.169,1.17-1.17,3.07,0,4.25
			c1.171,1.171,3.071,1.171,4.241,0.001C32.273,25.992,32.273,24.092,31.094,22.922z M34.633,19.392c3.131,3.12,3.131,8.19,0,11.311
			c-3.129,3.13-8.189,3.13-11.31,0c-3.131-3.119-3.13-8.19,0-11.31C26.443,16.262,31.504,16.262,34.633,19.392z"/>
	</g>
	<g>
		<path fill="#ED5565" d="M34.633,19.392c-3.129-3.13-8.189-3.13-11.31,0.001c-3.13,3.119-3.131,8.19,0,11.31
			c3.12,3.13,8.181,3.13,11.31,0C37.764,27.582,37.764,22.512,34.633,19.392z M38.174,15.852c5.08,5.08,5.08,13.312,0,18.392
			c-5.081,5.079-13.312,5.078-18.392-0.001c-5.079-5.08-5.079-13.31,0-18.391C24.862,10.771,33.094,10.771,38.174,15.852z"/>
	</g>
	<g>
		<path fill="#E6E9ED" d="M38.174,15.852c-5.08-5.08-13.312-5.08-18.392,0c-5.079,5.081-5.079,13.311,0,18.391
			c5.08,5.079,13.311,5.08,18.392,0.001C43.254,29.163,43.254,20.932,38.174,15.852z M41.703,37.771c-1.9,1.9-4.12,3.29-6.48,4.16
			c-6.389,2.36-13.84,0.97-18.97-4.16c-7.04-7.029-7.04-18.42,0.001-25.449c7.029-7.04,18.419-7.041,25.449-0.001
			C48.733,19.353,48.733,30.742,41.703,37.771z"/>
	</g>
	<g>
		<path fill="#ED5565" d="M28.975,29.045c-1.068-0.001-2.072-0.417-2.829-1.173c-0.755-0.756-1.171-1.76-1.172-2.829
			c0.001-1.068,0.417-2.072,1.172-2.828c1.513-1.513,4.145-1.512,5.657,0c0.755,0.756,1.171,1.76,1.172,2.828
			c0,1.068-0.417,2.073-1.172,2.829C31.047,28.628,30.042,29.044,28.975,29.045z M28.975,23.044c-0.533,0-1.036,0.207-1.415,0.586
			c-0.377,0.377-0.585,0.879-0.585,1.414c0,0.534,0.208,1.036,0.585,1.414c0.757,0.756,2.072,0.756,2.829,0
			c0.377-0.378,0.586-0.881,0.586-1.415c0-0.533-0.209-1.036-0.586-1.413C30.01,23.251,29.508,23.043,28.975,23.044z"/>
	</g>
	<g>
		<path fill="#E6E9ED" d="M28.975,34.044c-2.403,0-4.663-0.937-6.364-2.637c-3.51-3.509-3.51-9.218,0-12.728
			c1.699-1.701,3.96-2.637,6.364-2.638c2.402,0,4.664,0.937,6.363,2.638c3.51,3.51,3.51,9.219,0,12.728
			C33.637,33.107,31.377,34.044,28.975,34.044z M28.975,18.042c-1.87,0-3.627,0.729-4.95,2.052c-2.729,2.729-2.729,7.17,0,9.899
			c1.322,1.322,3.081,2.051,4.95,2.051c1.868,0,3.627-0.729,4.949-2.051c2.729-2.729,2.729-7.17,0-9.899
			C32.601,18.771,30.844,18.042,28.975,18.042z"/>
	</g>
	<g>
		<path fill="#ED5565" d="M28.975,39.045c-3.739,0-7.255-1.456-9.9-4.102c-5.457-5.458-5.457-14.341,0-19.799
			c2.646-2.646,6.163-4.104,9.9-4.104c3.738,0,7.254,1.458,9.899,4.104s4.103,6.16,4.103,9.898s-1.457,7.255-4.103,9.9
			S32.713,39.045,28.975,39.045z M28.975,13.041c-3.205,0-6.217,1.249-8.485,3.518c-4.68,4.679-4.68,12.291,0,16.971
			c2.269,2.267,5.282,3.516,8.485,3.516s6.217-1.248,8.484-3.516c2.269-2.269,3.518-5.282,3.518-8.486
			c0-3.203-1.249-6.217-3.518-8.484C35.191,14.291,32.178,13.041,28.975,13.041z"/>
	</g>
	<g>
		<path fill="#E6E9ED" d="M28.975,44.047c-5.073,0-9.845-1.978-13.436-5.568c-7.408-7.408-7.408-19.462,0-26.87
			C19.13,8.018,23.9,6.041,28.975,6.04c5.073,0.001,9.844,1.978,13.435,5.568c7.408,7.408,7.408,19.462,0,26.87
			C38.817,42.07,34.047,44.047,28.975,44.047z M28.975,8.04c-4.539,0.001-8.809,1.77-12.021,4.982
			c-6.628,6.63-6.628,17.413,0,24.042c3.213,3.213,7.482,4.982,12.021,4.983c4.538-0.001,8.808-1.771,12.021-4.983
			c6.628-6.629,6.628-17.412,0-24.042C37.782,9.81,33.513,8.041,28.975,8.04z"/>
	</g>
	<g>
		<path fill="#656D78" d="M28.977,26.042c-0.257-0.001-0.513-0.099-0.707-0.293c-0.392-0.392-0.392-1.023,0-1.414L48.073,4.53
			c0.392-0.392,1.023-0.392,1.415,0c0.39,0.39,0.391,1.023,0,1.414L29.684,25.749C29.488,25.944,29.231,26.042,28.977,26.042z"/>
	</g>
</g>
</svg>
