<?xml version="1.0" encoding="utf-8"?>
<!-- Generator: Adobe Illustrator 16.0.0, SVG Export Plug-In . SVG Version: 6.00 Build 0)  -->
<!DOCTYPE svg PUBLIC "-//W3C//DTD SVG 1.1//EN" "http://www.w3.org/Graphics/SVG/1.1/DTD/svg11.dtd">
<svg version="1.1" id="icons" xmlns="http://www.w3.org/2000/svg" xmlns:xlink="http://www.w3.org/1999/xlink" x="0px" y="0px"
	 width="64px" height="64px" viewBox="0 0 64 64" enable-background="new 0 0 64 64" xml:space="preserve">
<g>
	<g>
		<g>
			<polygon fill="#FFD2A6" points="31.5,42.51 31.5,62.5 27.5,62.5 27.5,52.5 27.5,42.51 			"/>
		</g>
		<g>
			<polygon fill="#FFD2A6" points="35.5,52.5 35.5,62.5 31.5,62.5 31.5,42.51 35.5,42.51 			"/>
		</g>
		<g>
			<path fill="#F7C292" d="M27.5,42.51v9.99c0-5.521-4.47-9.99-9.99-9.99H27.5z"/>
		</g>
		<g>
			<path fill="#E6E9ED" d="M49,49.5c3.04,0,5.5,2.469,5.5,5.5c0,3.039-2.46,5.5-5.5,5.5s-5.5-2.461-5.5-5.5
				C43.5,51.969,45.96,49.5,49,49.5z"/>
		</g>
		<g>
			<path fill="#F7C292" d="M35.5,42.51h9.99c-5.521,0-9.99,4.459-9.99,9.99V42.51z"/>
		</g>
		<g>
			<path fill="#5D9CEC" d="M31.5,42.51h-4h-9.99c0,0-8.01-9.01-8.01-20.01c0-12.141,9.85-22,22-22s22,9.859,22,22c0,11-8,20-8,20
				v0.01h-0.01H35.5H31.5z"/>
		</g>
	</g>
	<g>
		<path fill="#FFD2A6" d="M34.499,63.5h-5.998c-0.553,0-1-0.447-1-1s0.447-1,1-1h5.998c0.553,0,1,0.447,1,1S35.052,63.5,34.499,63.5
			z"/>
	</g>
	<rect x="30.504" y="42.5" fill="#844747" width="2" height="21"/>
</g>
</svg>
