<?xml version="1.0" encoding="utf-8"?>
<!-- Generator: Adobe Illustrator 16.0.0, SVG Export Plug-In . SVG Version: 6.00 Build 0)  -->
<!DOCTYPE svg PUBLIC "-//W3C//DTD SVG 1.1//EN" "http://www.w3.org/Graphics/SVG/1.1/DTD/svg11.dtd">
<svg version="1.1" id="icons" xmlns="http://www.w3.org/2000/svg" xmlns:xlink="http://www.w3.org/1999/xlink" x="0px" y="0px"
	 width="64px" height="64px" viewBox="0 0 64 64" enable-background="new 0 0 64 64" xml:space="preserve">
<g>
	<g>
		<path fill="#CCD1D9" d="M45,52.494c1.1,0,2,0.89,2,2c0,1.1-0.9,2-2,2c-1.11,0-2-0.9-2-2C43,53.384,43.89,52.494,45,52.494z"/>
	</g>
	<g>
		<path fill="#CCD1D9" d="M19,52.494c1.11,0,2,0.89,2,2c0,1.1-0.89,2-2,2c-1.1,0-2-0.9-2-2C17,53.384,17.9,52.494,19,52.494z"/>
	</g>
	<g>
		<path fill="#CCD1D9" d="M19.001,57.492c-1.654,0-3-1.346-3-3s1.346-3,3-3s3,1.346,3,3S20.655,57.492,19.001,57.492z
			 M19.001,53.492c-0.552,0-1,0.448-1,1s0.448,1,1,1s1-0.448,1-1S19.553,53.492,19.001,53.492z"/>
	</g>
	<g>
		<path fill="#CCD1D9" d="M44.998,57.492c-1.654,0-3-1.346-3-3s1.346-3,3-3s3,1.346,3,3S46.652,57.492,44.998,57.492z
			 M44.998,53.492c-0.552,0-1,0.448-1,1s0.448,1,1,1s1-0.448,1-1S45.55,53.492,44.998,53.492z"/>
	</g>
	<g>
		<path fill="#545C66" d="M24.999,50.489c-0.553,0-1-0.447-1-1V32.49c0-0.553,0.447-1,1-1s1,0.447,1,1v16.999
			C25.999,50.042,25.552,50.489,24.999,50.489z"/>
	</g>
	<g>
		<path fill="#545C66" d="M39,50.489c-0.553,0-1-0.447-1-1V32.49c0-0.553,0.447-1,1-1s1,0.447,1,1v16.999
			C40,50.042,39.553,50.489,39,50.489z"/>
	</g>
	<g>
		<path fill="#ED5565" d="M18.99,16.494H19v0.01c0,0-3.01,2.011-6,2.011c-3.32,0-6.01-2.69-6.01-6.011c0-3.31,2.689-6,6.01-6
			c2.99,0,5.99,1.99,5.99,1.99v0.01V16.494z"/>
	</g>
	<g>
		<path fill="#E6E9ED" d="M32,10.515c1.11,0,2,0.899,2,2c0,1.109-0.89,2-2,2c-1.1,0-2-0.891-2-2C30,11.414,30.9,10.515,32,10.515z"
			/>
	</g>
	<g>
		<path fill="#FFD2A6" d="M20.99,10.494h4v4.01h-4c-1.101,0-1.98,0.88-1.99,1.99h-0.01v-7.99C19,9.614,19.89,10.494,20.99,10.494z"
			/>
	</g>
	<g>
		<path fill="#FFD2A6" d="M45.01,8.515v8c0-1.101-0.89-1.99-2-1.99h-4v-4.01h4C44.11,10.515,45.01,9.614,45.01,8.515z"/>
	</g>
	<g>
		<path fill="#5D9CEC" d="M51,6.504c3.32,0,6.01,2.69,6.01,6c0,3.32-2.689,6.011-6.01,6.011c-2.99,0-5.99-2-5.99-2v-8
			C45.01,8.515,48.01,6.504,51,6.504z"/>
	</g>
	<g>
		<polygon fill="#656D78" points="49,49.494 49,52.494 45,52.494 19,52.494 15,52.494 15,49.494 25,49.494 39,49.494 		"/>
	</g>
	<g>
		<polygon fill="#4A89DC" points="63,29.484 63,32.484 61,32.484 48,32.484 48,29.484 		"/>
	</g>
	<g>
		<polygon fill="#4A89DC" points="48,29.484 48,32.484 39,32.484 27,32.484 27,29.484 45.02,29.484 		"/>
	</g>
	<g>
		<polygon fill="#5D9CEC" points="27,29.484 27,32.484 25,32.484 3,32.484 1,32.484 1,29.484 16.03,29.484 19.02,29.484 		"/>
	</g>
	<g>
		<path fill="#656D78" d="M16.028,30.49c-0.553,0-1-0.447-1-1v-6.001c0-0.553,0.447-1,1-1s1,0.447,1,1v6.001
			C17.028,30.043,16.581,30.49,16.028,30.49z"/>
	</g>
	<g>
		<path fill="#656D78" d="M19.012,24.489h-2.983c-0.553,0-1-0.447-1-1s0.447-1,1-1h2.983c0.553,0,1,0.447,1,1
			S19.564,24.489,19.012,24.489z"/>
	</g>
	<g>
		<path fill="#656D78" d="M3.001,57.496c-0.553,0-1-0.447-1-1V32.49c0-0.553,0.447-1,1-1s1,0.447,1,1v24.006
			C4.001,57.049,3.554,57.496,3.001,57.496z"/>
	</g>
	<g>
		<path fill="#656D78" d="M60.998,57.496c-0.553,0-1-0.447-1-1V32.49c0-0.553,0.447-1,1-1s1,0.447,1,1v24.006
			C61.998,57.049,61.551,57.496,60.998,57.496z"/>
	</g>
	<g>
		<path fill="#656D78" d="M49,53.492H15c-0.553,0-1-0.447-1-1v-2.997c0-0.553,0.447-1,1-1h34c0.553,0,1,0.447,1,1v2.997
			C50,53.045,49.553,53.492,49,53.492z M16,51.492h32v-0.997H16V51.492z"/>
	</g>
	<g>
		<path fill="#4A89DC" d="M63,33.49H27c-0.553,0-1-0.447-1-1v-3c0-0.553,0.447-1,1-1h36c0.553,0,1,0.447,1,1v3
			C64,33.043,63.553,33.49,63,33.49z M28,31.49h34v-1H28V31.49z"/>
	</g>
	<g>
		<path fill="#5D9CEC" d="M27,33.49H1c-0.553,0-1-0.447-1-1v-3c0-0.553,0.447-1,1-1h26c0.553,0,1,0.447,1,1v3
			C28,33.043,27.553,33.49,27,33.49z M2,31.49h24v-1H2V31.49z"/>
	</g>
	<g>
		<path fill="#656D78" d="M48.001,33.49c-0.553,0-1-0.447-1-1v-9.001c0-0.553,0.447-1,1-1s1,0.447,1,1v9.001
			C49.001,33.043,48.554,33.49,48.001,33.49z"/>
	</g>
	<g>
		<path fill="#656D78" d="M48.001,24.489h-2.983c-0.553,0-1-0.447-1-1s0.447-1,1-1h2.983c0.553,0,1,0.447,1,1
			S48.554,24.489,48.001,24.489z"/>
	</g>
	<path fill="#E6E9ED" d="M46.018,28.49v-5.001c0-0.553-0.447-1-1-1h-26c-0.553,0-1,0.447-1,1v5.001H46.018z"/>
</g>
</svg>
