<?xml version="1.0" encoding="utf-8"?>
<!-- Generator: Adobe Illustrator 16.0.0, SVG Export Plug-In . SVG Version: 6.00 Build 0)  -->
<!DOCTYPE svg PUBLIC "-//W3C//DTD SVG 1.1//EN" "http://www.w3.org/Graphics/SVG/1.1/DTD/svg11.dtd">
<svg version="1.1" id="icons" xmlns="http://www.w3.org/2000/svg" xmlns:xlink="http://www.w3.org/1999/xlink" x="0px" y="0px"
	 width="64px" height="64px" viewBox="0 0 64 64" enable-background="new 0 0 64 64" xml:space="preserve">
<g>
	<g>
		<g>
			<rect x="46" y="26.012" fill="#5D9CEC" width="4" height="8"/>
		</g>
		<g>
			<rect x="46" y="34.012" fill="#CCD1D9" width="4" height="19.01"/>
		</g>
		<g>
			<path fill="#CCD1D9" d="M50,7.002v19.01h-4V7.002c0-1.102,0.9-2,2-2S50,5.9,50,7.002z"/>
		</g>
		<g>
			<path fill="#E6E9ED" d="M60,55.021v2H36v-2c0-1.109,0.89-2,2-2h8h4h8C59.1,53.021,60,53.912,60,55.021z"/>
		</g>
		<g>
			<path fill="#5D9CEC" d="M22,37.021c3.31,0,6,2.68,6,6h-3c0-1.66-1.34-3-3-3H7.5c-0.83,0-1.5-0.68-1.5-1.5
				c0-0.83,0.67-1.5,1.5-1.5H22z"/>
		</g>
		<g>
			<rect x="4" y="48.021" fill="#AAB2BD" width="28" height="3.99"/>
		</g>
		<g>
			<path fill="#656D78" d="M32,47.021v1H4v-1c0-2.201,1.8-4,4-4h17h3C30.2,43.021,32,44.82,32,47.021z"/>
		</g>
		<g>
			<path fill="#656D78" d="M32,53.021c0,2.199-1.8,4-4,4H8c-2.2,0-4-1.801-4-4v-1.01h28V53.021z"/>
		</g>
	</g>
	<g>
		<path fill="#5D9CEC" d="M63,58.998H1c-0.553,0-1-0.447-1-1s0.447-1,1-1h62c0.553,0,1,0.447,1,1S63.553,58.998,63,58.998z"/>
	</g>
</g>
</svg>
