<?xml version="1.0" encoding="utf-8"?>
<!-- Generator: Adobe Illustrator 16.0.0, SVG Export Plug-In . SVG Version: 6.00 Build 0)  -->
<!DOCTYPE svg PUBLIC "-//W3C//DTD SVG 1.1//EN" "http://www.w3.org/Graphics/SVG/1.1/DTD/svg11.dtd">
<svg version="1.1" id="icons" xmlns="http://www.w3.org/2000/svg" xmlns:xlink="http://www.w3.org/1999/xlink" x="0px" y="0px"
	 width="64px" height="64px" viewBox="0 0 64 64" enable-background="new 0 0 64 64" xml:space="preserve">
<g>
	<g>
		<g>
			<path fill="#656D78" d="M48.73,43c-0.18-1.03-0.461-2.03-0.82-2.99c-1.459-3.89-4.32-7.109-7.959-9.04
				C37.58,29.71,34.871,29,32,29c-2.869,0-5.58,0.71-7.959,1.98c-3.641,1.93-6.49,5.14-7.961,9.029
				c-0.359,0.96-0.629,1.96-0.81,2.99C15.09,43.97,15,44.98,15,46c0,9.39,7.61,17,17,17c9.381,0,17-7.61,17-17
				C49,44.98,48.91,43.97,48.73,43z"/>
		</g>
		<g>
			<path fill="#CCD1D9" d="M28,5v4c0-2.21-1.789-4-4-4c-2.209,0-4,1.79-4,4h-0.01V5H20c0-2.21,1.791-4,4-4C26.211,1,28,2.79,28,5z"
				/>
		</g>
		<g>
			<path fill="#E6E9ED" d="M52.01,5v5h-8V5c0-2.21,1.791-4,4-4C50.221,1,52.01,2.79,52.01,5z"/>
		</g>
		<g>
			<rect x="44.01" y="10" fill="#ED5565" width="8" height="3"/>
		</g>
		<g>
			<path fill="#E6E9ED" d="M44.01,13h8c0,5,5,7,5,17c0,5.84-2.959,10.5-5.879,13h-2.4c-0.18-1.03-0.461-2.03-0.82-2.99
				C48.59,38.2,49,36.19,49,34c0-10-5-12-5-17v-3v-1H44.01z"/>
		</g>
		<g>
			<rect x="36" y="14" fill="#ED5565" width="8" height="3"/>
		</g>
		<g>
			<path fill="#E6E9ED" d="M19.99,9v1h-8V5c0-2.21,1.79-4,4-4c2.211,0,4,1.79,4,4V9z"/>
		</g>
		<g>
			<path fill="#F5F7FA" d="M44,13v1h-8v-0.99V9c0-2.21,1.791-4,4-4c2.211,0,4,1.79,4,4V13z"/>
		</g>
		<g>
			<rect x="11.99" y="10" fill="#ED5565" width="8" height="3"/>
		</g>
		<g>
			<rect x="28" y="18" fill="#ED5565" width="8" height="3"/>
		</g>
		<g>
			<path fill="#F5F7FA" d="M36,5v4c0-2.21-1.789-4-4-4c-2.209,0-4,1.79-4,4V5c0-2.21,1.791-4,4-4C34.211,1,36,2.79,36,5z"/>
		</g>
		<g>
			<path fill="#E6E9ED" d="M36,21c0,3.53,2.48,5.57,3.951,9.97C37.58,29.71,34.871,29,32,29c-2.869,0-5.58,0.71-7.959,1.98V30.97
				C25.51,26.57,28,24.53,28,21H36z"/>
		</g>
		<g>
			<path fill="#F5F7FA" d="M44,17c0,5,5,7,5,17c0,2.19-0.41,4.2-1.09,6.01c-1.459-3.89-4.32-7.109-7.959-9.04
				C38.48,26.57,36,24.53,36,21v-3v-1H44z"/>
		</g>
		<g>
			<rect x="20" y="14" fill="#ED5565" width="8" height="3"/>
		</g>
		<g>
			<path fill="#E6E9ED" d="M20,14v3c0,5-5,7-5,17c0,2.19,0.41,4.21,1.08,6.01c-0.359,0.96-0.629,1.96-0.81,2.99H15.26h-2.389
				c-2.92-2.5-5.881-7.16-5.881-13c0-10,5-12,5-17h8v-3V9H20V14z"/>
		</g>
		<g>
			<path fill="#E6E9ED" d="M36,17v1h-8v-1v-3v-0.99c0-2.21,1.791-4,4-4c2.211,0,4,1.79,4,4V14V17z"/>
		</g>
		<g>
			<path fill="#F5F7FA" d="M28,18v3c0,3.53-2.49,5.57-3.959,9.97v0.011c-3.641,1.93-6.49,5.14-7.961,9.029
				C15.41,38.21,15,36.19,15,34c0-10,5-12,5-17h8V18z"/>
		</g>
		<g>
			<path fill="#CCD1D9" d="M44.01,13H44V9c0-2.21-1.789-4-4-4c-2.209,0-4,1.79-4,4V5h0.01c0-2.21,1.791-4,4-4c2.211,0,4,1.79,4,4v5
				V13z"/>
		</g>
		<g>
			<path fill="#CCD1D9" d="M36,9v4.01c0-2.21-1.789-4-4-4c-2.209,0-4,1.79-4,4V9c0-2.21,1.791-4,4-4C34.211,5,36,6.79,36,9z"/>
		</g>
		<g>
			<path fill="#F5F7FA" d="M28,13.01V14h-8V9c0-2.21,1.791-4,4-4c2.211,0,4,1.79,4,4V13.01z"/>
		</g>
		<g>
			<path fill="#545C66" d="M32,32.99c1.101,0,2,0.89,2,2c0,1.1-0.899,2-2,2c-1.109,0-2-0.9-2-2C30,33.88,30.891,32.99,32,32.99z"/>
		</g>
		<g>
			<path fill="#545C66" d="M27.99,38.99c1.11,0,2,0.899,2,2c0,1.109-0.89,2-2,2c-1.1,0-2-0.891-2-2
				C25.99,39.89,26.891,38.99,27.99,38.99z"/>
		</g>
		<g>
			<path fill="#545C66" d="M36,38.99c1.1,0,2,0.899,2,2c0,1.109-0.9,2-2,2s-2-0.891-2-2C34,39.89,34.9,38.99,36,38.99z"/>
		</g>
	</g>
	<g>
		<path fill="none" stroke="#000000" stroke-width="2" stroke-linecap="round" stroke-linejoin="round" stroke-miterlimit="10" d="
			M36.004,17"/>
	</g>
	<g>
		<path fill="none" stroke="#000000" stroke-width="2" stroke-linecap="round" stroke-linejoin="round" stroke-miterlimit="10" d="
			M27.996,17"/>
	</g>
	<g>
		<path fill="none" stroke="#000000" stroke-width="2" stroke-linecap="round" stroke-linejoin="round" stroke-miterlimit="10" d="
			M19.988,12.996"/>
	</g>
</g>
</svg>
