<?xml version="1.0" encoding="utf-8"?>
<!-- Generator: Adobe Illustrator 16.0.0, SVG Export Plug-In . SVG Version: 6.00 Build 0)  -->
<!DOCTYPE svg PUBLIC "-//W3C//DTD SVG 1.1//EN" "http://www.w3.org/Graphics/SVG/1.1/DTD/svg11.dtd">
<svg version="1.1" id="icons" xmlns="http://www.w3.org/2000/svg" xmlns:xlink="http://www.w3.org/1999/xlink" x="0px" y="0px"
	 width="64px" height="64px" viewBox="0 0 64 64" enable-background="new 0 0 64 64" xml:space="preserve">
<g>
	<g>
		<path fill="#E6E9ED" d="M19.5,1c-4.42,0-8,3.58-8,8v28.99V55c0,4.41,3.58,8,8,8s8-3.59,8-8V37.99V9C27.5,4.58,23.92,1,19.5,1z"/>
	</g>
	<g>
		<path fill="#CCD1D9" d="M17.5,35.995c-0.553,0-1-0.447-1-1v-0.996c0-0.553,0.447-1,1-1s1,0.447,1,1v0.996
			C18.5,35.548,18.053,35.995,17.5,35.995z"/>
	</g>
	<g>
		<path fill="#CCD1D9" d="M17.5,42.999c-0.553,0-1-0.447-1-1v-1.004c0-0.553,0.447-1,1-1s1,0.447,1,1v1.004
			C18.5,42.552,18.053,42.999,17.5,42.999z"/>
	</g>
	<g>
		<path fill="#CCD1D9" d="M21.5,35.999c-0.553,0-1-0.447-1-1v-1c0-0.553,0.447-1,1-1s1,0.447,1,1v1
			C22.5,35.552,22.053,35.999,21.5,35.999z"/>
	</g>
	<g>
		<path fill="#CCD1D9" d="M21.5,42.999c-0.553,0-1-0.447-1-1v-1c0-0.553,0.447-1,1-1s1,0.447,1,1v1
			C22.5,42.552,22.053,42.999,21.5,42.999z"/>
	</g>
	<g>
		<path fill="#CCD1D9" d="M17.5,24.007c-0.553,0-1-0.447-1-1v-1.006c0-0.553,0.447-1,1-1s1,0.447,1,1v1.006
			C18.5,23.56,18.053,24.007,17.5,24.007z"/>
	</g>
	<g>
		<path fill="#CCD1D9" d="M21.5,24.007c-0.553,0-1-0.447-1-1v-1.006c0-0.553,0.447-1,1-1s1,0.447,1,1v1.006
			C22.5,23.56,22.053,24.007,21.5,24.007z"/>
	</g>
	<g>
		<path fill="#CCD1D9" d="M21.5,31.001c-0.553,0-1-0.447-1-1v-0.994c0-0.553,0.447-1,1-1s1,0.447,1,1v0.994
			C22.5,30.554,22.053,31.001,21.5,31.001z"/>
	</g>
	<g>
		<path fill="#CCD1D9" d="M17.5,31.001c-0.553,0-1-0.447-1-1v-0.994c0-0.553,0.447-1,1-1s1,0.447,1,1v0.994
			C18.5,30.554,18.053,31.001,17.5,31.001z"/>
	</g>
	<g>
		<path fill="#545C66" d="M17.5,30.007c-2.206,0-4-1.794-4-4s1.794-4,4-4c0.553,0,1,0.447,1,1s-0.447,1-1,1c-1.103,0-2,0.897-2,2
			s0.897,2,2,2c0.553,0,1,0.447,1,1S18.053,30.007,17.5,30.007z"/>
	</g>
	<g>
		<path fill="#545C66" d="M21.5,24.007h-4c-0.553,0-1-0.447-1-1s0.447-1,1-1h4c0.553,0,1,0.447,1,1S22.053,24.007,21.5,24.007z"/>
	</g>
	<g>
		<path fill="#545C66" d="M21.5,30.007h-4c-0.553,0-1-0.447-1-1s0.447-1,1-1h4c0.553,0,1,0.447,1,1S22.053,30.007,21.5,30.007z"/>
	</g>
	<g>
		<path fill="#545C66" d="M17.5,41.995c-2.206,0-4-1.794-4-4s1.794-4,4-4c0.553,0,1,0.447,1,1s-0.447,1-1,1c-1.103,0-2,0.897-2,2
			s0.897,2,2,2c0.553,0,1,0.447,1,1S18.053,41.995,17.5,41.995z"/>
	</g>
	<g>
		<path fill="#545C66" d="M21.5,35.995h-4c-0.553,0-1-0.447-1-1s0.447-1,1-1h4c0.553,0,1,0.447,1,1S22.053,35.995,21.5,35.995z"/>
	</g>
	<g>
		<path fill="#545C66" d="M21.5,41.995h-4c-0.553,0-1-0.447-1-1s0.447-1,1-1h4c0.553,0,1,0.447,1,1S22.053,41.995,21.5,41.995z"/>
	</g>
	<g>
		<path fill="#E6E9ED" d="M27.5,10c-0.553,0-1-0.447-1-1c0-3.859-3.141-7-7-7s-7,3.141-7,7c0,0.553-0.447,1-1,1s-1-0.447-1-1
			c0-4.963,4.037-9,9-9s9,4.037,9,9C28.5,9.553,28.053,10,27.5,10z"/>
	</g>
	<g>
		<path fill="#E6E9ED" d="M19.5,64c-4.963,0-9-4.037-9-9c0-0.553,0.447-1,1-1s1,0.447,1,1c0,3.859,3.141,7,7,7s7-3.141,7-7
			c0-0.553,0.447-1,1-1s1,0.447,1,1C28.5,59.963,24.463,64,19.5,64z"/>
	</g>
	<g>
		<path fill="#E6E9ED" d="M11.5,56c-0.553,0-1-0.447-1-1V9c0-0.553,0.447-1,1-1s1,0.447,1,1v46C12.5,55.553,12.053,56,11.5,56z"/>
	</g>
	<g>
		<path fill="#E6E9ED" d="M27.5,56c-0.553,0-1-0.447-1-1V9c0-0.553,0.447-1,1-1s1,0.447,1,1v46C28.5,55.553,28.053,56,27.5,56z"/>
	</g>
	<g>
		<path fill="#5D9CEC" d="M44.5,1c-4.42,0-8,3.58-8,8v46c0,4.41,3.58,8,8,8s8-3.59,8-8V9C52.5,4.58,48.92,1,44.5,1z"/>
	</g>
	<g>
		<path fill="#545C66" d="M14.5,37.99c0-1.66,1.34-3,3-3h4c-1.66,0-3,1.35-3,3c0,1.66,1.34,3,3,3h-4
			C15.84,40.99,14.5,39.65,14.5,37.99z"/>
	</g>
	<g>
		<path fill="#FFCE54" d="M44.51,27c2.76,0,5,2.24,5,5c0,2.75-2.24,5-5,5s-5-2.25-5-5C39.51,29.24,41.75,27,44.51,27z"/>
	</g>
	<g>
		<path fill="#545C66" d="M14.5,26c0-1.649,1.34-3,3-3h4c-1.66,0-3,1.351-3,3c0,1.66,1.34,3,3,3h-4C15.84,29,14.5,27.66,14.5,26z"/>
	</g>
	<g>
		<path fill="#656D78" d="M21.5,30.007c-0.553,0-1-0.447-1-1s0.447-1,1-1c1.103,0,2-0.897,2-2s-0.897-2-2-2c-0.553,0-1-0.447-1-1
			s0.447-1,1-1c2.206,0,4,1.794,4,4S23.706,30.007,21.5,30.007z"/>
	</g>
	<g>
		<path fill="#656D78" d="M21.5,30.007c-2.206,0-4-1.794-4-4s1.794-4,4-4c0.553,0,1,0.447,1,1s-0.447,1-1,1c-1.103,0-2,0.897-2,2
			s0.897,2,2,2c0.553,0,1,0.447,1,1S22.053,30.007,21.5,30.007z"/>
	</g>
	<g>
		<path fill="#656D78" d="M21.5,41.999c-2.206,0-4-1.794-4-4s1.794-4,4-4c0.553,0,1,0.447,1,1s-0.447,1-1,1c-1.103,0-2,0.897-2,2
			s0.897,2,2,2c0.553,0,1,0.447,1,1S22.053,41.999,21.5,41.999z"/>
	</g>
	<g>
		<path fill="#656D78" d="M21.5,41.995c-0.553,0-1-0.447-1-1s0.447-1,1-1c1.103,0,2-0.897,2-2s-0.897-2-2-2c-0.553,0-1-0.447-1-1
			s0.447-1,1-1c2.206,0,4,1.794,4,4S23.706,41.995,21.5,41.995z"/>
	</g>
	<g>
		<path fill="#CCD1D9" d="M24.497,10h-9.994c-0.553,0-1-0.447-1-1s0.447-1,1-1h9.994c0.553,0,1,0.447,1,1S25.05,10,24.497,10z"/>
	</g>
	<g>
		<path fill="#CCD1D9" d="M24.497,56h-9.994c-0.553,0-1-0.447-1-1s0.447-1,1-1h9.994c0.553,0,1,0.447,1,1S25.05,56,24.497,56z"/>
	</g>
	<g>
		<path fill="#5D9CEC" d="M52.5,10c-0.553,0-1-0.447-1-1c0-3.859-3.141-7-7-7s-7,3.141-7,7c0,0.553-0.447,1-1,1s-1-0.447-1-1
			c0-4.963,4.037-9,9-9s9,4.037,9,9C53.5,9.553,53.053,10,52.5,10z"/>
	</g>
	<g>
		<path fill="#5D9CEC" d="M44.5,64c-4.963,0-9-4.037-9-9c0-0.553,0.447-1,1-1s1,0.447,1,1c0,3.859,3.141,7,7,7s7-3.141,7-7
			c0-0.553,0.447-1,1-1s1,0.447,1,1C53.5,59.963,49.463,64,44.5,64z"/>
	</g>
	<g>
		<path fill="#5D9CEC" d="M36.5,56c-0.553,0-1-0.447-1-1V9c0-0.553,0.447-1,1-1s1,0.447,1,1v46C37.5,55.553,37.053,56,36.5,56z"/>
	</g>
	<g>
		<path fill="#5D9CEC" d="M52.5,56c-0.553,0-1-0.447-1-1V9c0-0.553,0.447-1,1-1s1,0.447,1,1v46C53.5,55.553,53.053,56,52.5,56z"/>
	</g>
	<g>
		<path fill="#87BCF4" d="M49.497,10h-9.994c-0.553,0-1-0.447-1-1s0.447-1,1-1h9.994c0.553,0,1,0.447,1,1S50.05,10,49.497,10z"/>
	</g>
	<g>
		<path fill="#87BCF4" d="M49.497,56h-9.994c-0.553,0-1-0.447-1-1s0.447-1,1-1h9.994c0.553,0,1,0.447,1,1S50.05,56,49.497,56z"/>
	</g>
	<g>
		<path fill="#FFCE54" d="M44.515,38c-3.309,0-6-2.691-6-6s2.691-6,6-6s6,2.691,6,6S47.823,38,44.515,38z M44.515,28
			c-2.206,0-4,1.794-4,4s1.794,4,4,4s4-1.794,4-4S46.721,28,44.515,28z"/>
	</g>
	<g>
		<path fill="#EDAB37" d="M43.512,33c-0.15,0-0.304-0.034-0.447-0.106c-0.493-0.247-0.693-0.848-0.445-1.342l1.002-1.999
			c0.246-0.493,0.85-0.693,1.342-0.445c0.493,0.247,0.693,0.848,0.445,1.342l-1.002,1.999C44.231,32.798,43.878,33,43.512,33z"/>
	</g>
	<g>
		<path fill="#EDAB37" d="M45.513,33h-2c-0.553,0-1-0.447-1-1s0.447-1,1-1h2c0.553,0,1,0.447,1,1S46.065,33,45.513,33z"/>
	</g>
	<g>
		<path fill="#EDAB37" d="M44.512,34.998c-0.15,0-0.303-0.034-0.446-0.105c-0.494-0.247-0.694-0.849-0.447-1.342l1-1.998
			c0.248-0.494,0.847-0.692,1.342-0.447c0.494,0.247,0.694,0.849,0.447,1.342l-1,1.998C45.231,34.796,44.879,34.998,44.512,34.998z"
			/>
	</g>
	<g>
		<path fill="#545C66" d="M21.5,23c1.66,0,3,1.351,3,3c0,1.66-1.34,3-3,3s-3-1.34-3-3C18.5,24.351,19.84,23,21.5,23z"/>
	</g>
	<g>
		<path fill="#545C66" d="M21.5,34.99c1.66,0,3,1.34,3,3s-1.34,3-3,3s-3-1.34-3-3C18.5,36.34,19.84,34.99,21.5,34.99z"/>
	</g>
</g>
</svg>
