<?xml version="1.0" encoding="utf-8"?>
<!-- Generator: Adobe Illustrator 16.0.0, SVG Export Plug-In . SVG Version: 6.00 Build 0)  -->
<!DOCTYPE svg PUBLIC "-//W3C//DTD SVG 1.1//EN" "http://www.w3.org/Graphics/SVG/1.1/DTD/svg11.dtd">
<svg version="1.1" id="icons" xmlns="http://www.w3.org/2000/svg" xmlns:xlink="http://www.w3.org/1999/xlink" x="0px" y="0px"
	 width="64px" height="64px" viewBox="0 0 64 64" enable-background="new 0 0 64 64" xml:space="preserve">
<g>
	<path fill="#5D9CEC" d="M42.87,18.12C41.39,8.7,39,2,39,2s-0.999-1-6.999-1S25,2,25,2s-2.391,6.7-3.87,16.12
		C20.479,22.32,20,27.07,20,32s0.47,9.66,1.13,13.86C22.6,55.29,25,62,25,62s1,1,7,1s7-1,7-1s2.399-6.71,3.87-16.14
		C43.53,41.66,44,36.93,44,32S43.52,22.32,42.87,18.12z"/>
	<path fill="#545C66" d="M40,45c0,0.14-0.01,0.27-0.021,0.41C39.77,47.43,38.069,49,36,49c-2.21,0-4-1.79-4-4c0-2.2,1.79-4,4-4
		S40,42.8,40,45z"/>
	<path fill="#E6E9ED" d="M28,41v8c-2.07,0-3.771-1.57-3.98-3.59C24.01,45.27,24,45.14,24,45C24,42.8,25.79,41,28,41z"/>
	<path fill="#E6E9ED" d="M28,14.98v8c-2.21,0-4-1.79-4-4c0-0.141,0.01-0.271,0.02-0.41C24.229,16.55,25.93,14.98,28,14.98z"/>
	<path fill="#E6E9ED" d="M28,14.98h8c-2.21,0-4,1.789-4,4c0,2.21,1.79,4,4,4h-8V14.98z"/>
	<path fill="#545C66" d="M39.979,18.57C39.99,18.71,40,18.84,40,18.98c0,2.21-1.79,4-4,4s-4-1.79-4-4c0-2.211,1.79-4,4-4
		C38.069,14.98,39.77,16.55,39.979,18.57z"/>
	<path fill="#E6E9ED" d="M28,41h8c-2.21,0-4,1.8-4,4c0,2.21,1.79,4,4,4h-8V41z"/>
	<path fill="#5D9CEC" d="M25.002,62.998c-0.41,0-0.796-0.255-0.941-0.663C24.01,62.193,18.996,47.988,18.996,32
		S24.01,1.807,24.061,1.665c0.186-0.52,0.758-0.791,1.278-0.604c0.52,0.186,0.79,0.758,0.604,1.278
		C25.895,2.477,20.996,16.37,20.996,32s4.898,29.523,4.947,29.661c0.186,0.521-0.085,1.093-0.604,1.278
		C25.228,62.979,25.113,62.998,25.002,62.998z"/>
	<path fill="#5D9CEC" d="M38.998,62.998c-0.111,0-0.226-0.019-0.337-0.059c-0.52-0.186-0.79-0.758-0.604-1.278
		C38.105,61.523,43.004,47.63,43.004,32S38.105,2.477,38.057,2.339c-0.186-0.521,0.085-1.093,0.604-1.278
		c0.521-0.187,1.094,0.085,1.278,0.604C39.99,1.807,45.004,16.012,45.004,32s-5.014,30.193-5.064,30.335
		C39.794,62.743,39.408,62.998,38.998,62.998z"/>
	<path fill="#5D9CEC" d="M25.002,3.002c-0.255,0-0.511-0.097-0.706-0.292c-0.391-0.39-0.393-1.022-0.002-1.414
		c0.388-0.389,1.915-1.295,7.705-1.295c5.787,0,7.317,0.905,7.706,1.294c0.391,0.391,0.391,1.023,0,1.414
		c-0.369,0.369-0.954,0.389-1.346,0.063c-0.136-0.083-1.403-0.771-6.36-0.771c-4.955,0-6.222,0.687-6.357,0.77
		C25.457,2.925,25.229,3.002,25.002,3.002z"/>
	<path fill="#5D9CEC" d="M32.002,63.999c-5.789,0-7.318-0.905-7.707-1.294c-0.391-0.391-0.391-1.024,0-1.414
		c0.369-0.369,0.953-0.388,1.346-0.063c0.136,0.084,1.403,0.771,6.361,0.771c4.955,0,6.222-0.687,6.356-0.77
		c0.392-0.327,0.977-0.307,1.346,0.061c0.391,0.39,0.392,1.023,0.002,1.414C39.318,63.094,37.79,63.999,32.002,63.999z"/>
	<g>
		<path fill="#E6E9ED" d="M27.998,50.006c-2.757,0-5-2.243-5-5s2.243-5,5-5c0.553,0,1,0.447,1,1s-0.447,1-1,1c-1.654,0-3,1.346-3,3
			s1.346,3,3,3c0.553,0,1,0.447,1,1S28.551,50.006,27.998,50.006z"/>
	</g>
	<g>
		<path fill="#E6E9ED" d="M36,50.006h-8.002c-0.553,0-1-0.447-1-1s0.447-1,1-1H36c0.553,0,1,0.447,1,1S36.553,50.006,36,50.006z"/>
	</g>
	<g>
		<path fill="#E6E9ED" d="M36,42.006h-8.002c-0.553,0-1-0.447-1-1s0.447-1,1-1H36c0.553,0,1,0.447,1,1S36.553,42.006,36,42.006z"/>
	</g>
	<g>
		<path fill="#E6E9ED" d="M27.998,23.98c-2.757,0-5-2.243-5-5s2.243-5,5-5c0.553,0,1,0.447,1,1s-0.447,1-1,1c-1.654,0-3,1.346-3,3
			s1.346,3,3,3c0.553,0,1,0.447,1,1S28.551,23.98,27.998,23.98z"/>
	</g>
	<g>
		<path fill="#E6E9ED" d="M36,23.98h-8.002c-0.553,0-1-0.447-1-1s0.447-1,1-1H36c0.553,0,1,0.447,1,1S36.553,23.98,36,23.98z"/>
	</g>
	<g>
		<path fill="#E6E9ED" d="M36,15.98h-8.002c-0.553,0-1-0.447-1-1s0.447-1,1-1H36c0.553,0,1,0.447,1,1S36.553,15.98,36,15.98z"/>
	</g>
	<path fill="#87BCF4" d="M27.998,24.981c-0.553,0-1-0.447-1-1V13.979c0-0.553,0.447-1,1-1s1,0.447,1,1v10.002
		C28.998,24.534,28.551,24.981,27.998,24.981z"/>
	<path fill="#87BCF4" d="M27.998,51.007c-0.553,0-1-0.447-1-1V40.005c0-0.553,0.447-1,1-1s1,0.447,1,1v10.002
		C28.998,50.56,28.551,51.007,27.998,51.007z"/>
	<g>
		<path fill="#656D78" d="M36,50.006c-2.757,0-5-2.243-5-5s2.243-5,5-5s5,2.243,5,5S38.757,50.006,36,50.006z M36,42.006
			c-1.654,0-3,1.346-3,3s1.346,3,3,3s3-1.346,3-3S37.654,42.006,36,42.006z"/>
	</g>
	<g>
		<path fill="#656D78" d="M36,23.98c-2.757,0-5-2.243-5-5s2.243-5,5-5s5,2.243,5,5S38.757,23.98,36,23.98z M36,15.98
			c-1.654,0-3,1.346-3,3s1.346,3,3,3s3-1.346,3-3S37.654,15.98,36,15.98z"/>
	</g>
</g>
</svg>
