<?xml version="1.0" encoding="utf-8"?>
<!-- Generator: Adobe Illustrator 16.0.0, SVG Export Plug-In . SVG Version: 6.00 Build 0)  -->
<!DOCTYPE svg PUBLIC "-//W3C//DTD SVG 1.1//EN" "http://www.w3.org/Graphics/SVG/1.1/DTD/svg11.dtd">
<svg version="1.1" id="icons" xmlns="http://www.w3.org/2000/svg" xmlns:xlink="http://www.w3.org/1999/xlink" x="0px" y="0px"
	 width="64px" height="64px" viewBox="0 0 64 64" enable-background="new 0 0 64 64" xml:space="preserve">
<g>
	<g>
		<path fill="#656D78" d="M27.002,63.999c-1.654,0-3-1.347-3-3.001c0-0.553,0.447-1,1-1s1,0.447,1,1c0,0.552,0.448,1.001,1,1.001
			c0.553,0,1.002-0.449,1.002-1.001c0-0.553,0.447-1,1-1s1,0.447,1,1C30.004,62.652,28.657,63.999,27.002,63.999z"/>
	</g>
	<g>
		<path fill="#656D78" d="M29.002,61.998c-0.553,0-1-0.447-1-1V47.006c0-0.553,0.447-1,1-1s1,0.447,1,1v13.992
			C30.002,61.551,29.555,61.998,29.002,61.998z"/>
	</g>
	<g>
		<path fill="#656D78" d="M25.002,61.998c-0.553,0-1-0.447-1-1V47.006c0-0.553,0.447-1,1-1s1,0.447,1,1v13.992
			C26.002,61.551,25.555,61.998,25.002,61.998z"/>
	</g>
	<g>
		<path fill="#FFD2A6" d="M21.002,6.001c-0.553,0-1-0.447-1-1c0-2.757,2.243-5,5-5c0.553,0,1,0.447,1,1s-0.447,1-1,1
			c-1.654,0-3,1.346-3,3C22.002,5.554,21.555,6.001,21.002,6.001z"/>
	</g>
	<g>
		<path fill="#FFD2A6" d="M32.994,6.001c-0.553,0-1-0.447-1-1c0-1.654-1.346-3-3-3c-0.553,0-1-0.447-1-1s0.447-1,1-1
			c2.757,0,5,2.243,5,5C33.994,5.554,33.547,6.001,32.994,6.001z"/>
	</g>
	<g>
		<path fill="#FFD2A6" d="M21.002,44.006c-0.553,0-1-0.447-1-1V5.001c0-0.553,0.447-1,1-1s1,0.447,1,1v38.005
			C22.002,43.559,21.555,44.006,21.002,44.006z"/>
	</g>
	<g>
		<path fill="#FFD2A6" d="M33,44.006c-0.553,0-1-0.447-1-1V5.001c0-0.553,0.447-1,1-1s1,0.447,1,1v38.005
			C34,43.559,33.553,44.006,33,44.006z"/>
	</g>
	<g>
		<path fill="#FFD2A6" d="M28.994,2.001h-3.992c-0.553,0-1-0.447-1-1s0.447-1,1-1h3.992c0.553,0,1,0.447,1,1
			S29.547,2.001,28.994,2.001z"/>
	</g>
	<g>
		<path fill="#FFD2A6" d="M25.002,48.006c-0.553,0-1-0.447-1-1c0-1.654-1.346-3-3-3c-0.553,0-1-0.447-1-1s0.447-1,1-1
			c2.757,0,5,2.243,5,5C26.002,47.559,25.555,48.006,25.002,48.006z"/>
	</g>
	<g>
		<path fill="#FFD2A6" d="M29.002,48.006c-0.553,0-1-0.447-1-1c0-2.757,2.243-5,5-5c0.553,0,1,0.447,1,1s-0.447,1-1,1
			c-1.654,0-3,1.346-3,3C30.002,47.559,29.555,48.006,29.002,48.006z"/>
	</g>
	<g>
		<g>
			<rect x="25" y="56.99" fill="#656D78" width="4" height="3.01"/>
		</g>
		<g>
			<rect x="25" y="48" fill="#656D78" width="4" height="3"/>
		</g>
		<g>
			<path fill="#656D78" d="M29,60v1c0,1.1-0.89,2-2,2c-1.1,0-2-0.9-2-2v-1H29z"/>
		</g>
		<g>
			<path fill="#FFD2A6" d="M29,47.01V48h-4v-0.99c0-2.21-1.79-4-4-4V5c0-2.21,1.79-4,4-4h3.99c2.22,0,4,1.79,4,4H33v38.01
				C30.79,43.01,29,44.8,29,47.01z"/>
		</g>
		<g>
			<rect x="25" y="51" fill="#656D78" width="4" height="3"/>
		</g>
		<g>
			<rect x="25" y="54" fill="#656D78" width="4" height="2.99"/>
		</g>
		<g>
			<path fill="#ED5565" d="M41.83,49.17l-5.66,5.65c-1.56-1.561-1.56-4.09,0-5.65C37.73,47.6,40.26,47.6,41.83,49.17z"/>
		</g>
		<g>
			<path fill="#ED5565" d="M41.83,49.17c1.56,1.561,1.56,4.09,0,5.65c-1.57,1.56-4.1,1.56-5.66,0L41.83,49.17z"/>
		</g>
	</g>
	<rect x="24.001" y="46.999" fill="#656D78" width="6.002" height="2"/>
	<rect x="24.001" y="50" fill="#545C66" width="6.002" height="2"/>
	<rect x="24.001" y="53.001" fill="#545C66" width="6.002" height="2"/>
	<rect x="24.001" y="56.002" fill="#545C66" width="6.002" height="2"/>
	<rect x="24.001" y="59.003" fill="#545C66" width="6.002" height="2"/>
	<g>
		<path fill="#965353" d="M27.002,41c-0.553,0-1-0.447-1-1V6c0-0.553,0.447-1,1-1s1,0.447,1,1v34C28.002,40.553,27.555,41,27.002,41
			z"/>
	</g>
	<g>
		<path fill="#ED5565" d="M38.997,56.993c-1.336,0-2.591-0.521-3.535-1.465c-0.943-0.943-1.464-2.199-1.464-3.535
			s0.521-2.592,1.465-3.535c0.943-0.944,2.198-1.465,3.534-1.465s2.592,0.521,3.536,1.465c0.944,0.943,1.465,2.199,1.465,3.535
			s-0.521,2.592-1.465,3.535C41.589,56.473,40.333,56.993,38.997,56.993z M38.997,48.993c-0.801,0-1.554,0.312-2.119,0.879
			c-0.567,0.566-0.88,1.319-0.88,2.121s0.313,1.555,0.879,2.121c1.134,1.136,3.11,1.132,4.242,0
			c0.566-0.566,0.879-1.319,0.879-2.121s-0.313-1.555-0.879-2.121S39.799,48.993,38.997,48.993z"/>
	</g>
	<g>
		<path fill="#DA4453" d="M36.17,55.821c-0.256,0-0.512-0.098-0.707-0.293c-0.391-0.391-0.391-1.023,0-1.414l5.656-5.656
			c0.391-0.391,1.023-0.391,1.414,0s0.391,1.023,0,1.414l-5.656,5.656C36.682,55.724,36.426,55.821,36.17,55.821z"/>
	</g>
</g>
</svg>
