<?xml version="1.0" encoding="utf-8"?>
<!-- Generator: Adobe Illustrator 16.0.0, SVG Export Plug-In . SVG Version: 6.00 Build 0)  -->
<!DOCTYPE svg PUBLIC "-//W3C//DTD SVG 1.1//EN" "http://www.w3.org/Graphics/SVG/1.1/DTD/svg11.dtd">
<svg version="1.1" id="icons" xmlns="http://www.w3.org/2000/svg" xmlns:xlink="http://www.w3.org/1999/xlink" x="0px" y="0px"
	 width="64px" height="64px" viewBox="0 0 64 64" enable-background="new 0 0 64 64" xml:space="preserve">
<g>
	<g>
		<path fill="#AC92EC" d="M28.007,7.49c-0.448,0-0.855-0.303-0.969-0.758c-0.135-0.536,0.191-1.078,0.728-1.212l7.996-1.997
			c0.534-0.136,1.078,0.191,1.212,0.728c0.135,0.536-0.191,1.078-0.728,1.212L28.25,7.46C28.169,7.48,28.087,7.49,28.007,7.49z"/>
	</g>
	<g>
		<polygon fill="#AC92EC" points="28.011,6.493 16.011,32.493 21.011,39.493 36.001,45.493 36.001,32.493 36.001,4.493 		"/>
	</g>
	<g>
		<path fill="#AC92EC" d="M16.006,33.492c-0.14,0-0.282-0.029-0.418-0.092c-0.502-0.231-0.721-0.826-0.489-1.327L27.1,6.071
			c0.232-0.502,0.824-0.721,1.327-0.489c0.502,0.231,0.721,0.826,0.489,1.327L16.915,32.911
			C16.746,33.277,16.384,33.492,16.006,33.492z"/>
	</g>
	<g>
		<path fill="#AC92EC" d="M36.004,46.494c-0.124,0-0.25-0.022-0.371-0.071l-14.997-6c-0.513-0.205-0.763-0.787-0.558-1.3
			c0.205-0.514,0.791-0.763,1.3-0.558l14.997,6c0.513,0.205,0.763,0.787,0.558,1.3C36.776,46.257,36.4,46.494,36.004,46.494z"/>
	</g>
	<g>
		<path fill="#AC92EC" d="M21.008,40.494c-0.313,0-0.619-0.146-0.814-0.419l-5-7.002c-0.321-0.449-0.217-1.074,0.232-1.395
			c0.449-0.321,1.073-0.218,1.395,0.232l5,7.002c0.321,0.449,0.217,1.074-0.232,1.395C21.412,40.434,21.209,40.494,21.008,40.494z"
			/>
	</g>
	<g>
		<path fill="#CCD1D9" d="M36.004,46.495c-0.553,0-1-0.447-1-1V2.494c0-0.553,0.447-1,1-1s1,0.447,1,1v43.001
			C37.004,46.048,36.557,46.495,36.004,46.495z"/>
	</g>
	<g>
		<g>
			<path fill="#E6E9ED" d="M16.002,49.495c-0.553,0-1-0.447-1-1v-2c0-0.553,0.447-1,1-1s1,0.447,1,1v2
				C17.002,49.048,16.555,49.495,16.002,49.495z"/>
		</g>
		<g>
			<path fill="#E6E9ED" d="M54,47.495H16.002c-0.553,0-1-0.447-1-1s0.447-1,1-1H54c0.553,0,1,0.447,1,1S54.553,47.495,54,47.495z"/>
		</g>
		<g>
			<path fill="#E6E9ED" d="M52.829,50.324c-0.256,0-0.512-0.098-0.707-0.293c-0.391-0.391-0.391-1.023,0-1.414
				C52.688,48.051,53,47.297,53,46.495c0-0.553,0.447-1,1-1s1,0.447,1,1c0,1.336-0.52,2.592-1.464,3.536
				C53.341,50.227,53.085,50.324,52.829,50.324z"/>
		</g>
	</g>
	<g>
		<path fill="#E6E9ED" d="M36.001,48.494l-2,2l-2-2l-2,2l-2-2l-2,2l-2-2l-2,2l-2-2l-2,2l-2-2v-2h20h18c0,1.11-0.45,2.11-1.17,2.83
			l-0.83-0.83l-2,2l-2-2l-2,2l-2-2l-2,2l-2-2l-2,2L36.001,48.494z"/>
	</g>
	<g>
		<polygon fill="#4A89DC" points="63.006,62.506 1.006,62.506 1.006,49.495 2.006,50.495 4.006,48.495 6.006,50.495 8.006,48.495 
			10.006,50.495 12.006,48.495 14.006,50.495 16.006,48.495 18.006,50.495 20.006,48.495 22.006,50.495 24.006,48.495 
			26.006,50.495 28.006,48.495 30.006,50.495 32.006,48.495 34.006,50.495 36.006,48.495 38.006,50.495 40.006,48.495 
			42.006,50.495 44.006,48.495 46.006,50.495 48.006,48.495 50.006,50.495 52.006,48.495 54.006,50.495 56.006,48.495 
			58.006,50.495 60.006,48.495 62.006,50.495 63.006,49.495 		"/>
	</g>
	<g>
		<g>
			<path fill="#5D9CEC" d="M2,51.495c-0.256,0-0.512-0.098-0.707-0.293l-1-1c-0.391-0.391-0.391-1.023,0-1.414s1.023-0.391,1.414,0
				l1,1c0.391,0.391,0.391,1.023,0,1.414C2.512,51.397,2.256,51.495,2,51.495z"/>
		</g>
		<g>
			<path fill="#5D9CEC" d="M2,51.495c-0.256,0-0.512-0.098-0.707-0.293c-0.391-0.391-0.391-1.023,0-1.414l2-2
				c0.391-0.391,1.023-0.391,1.414,0s0.391,1.023,0,1.414l-2,2C2.512,51.397,2.256,51.495,2,51.495z"/>
		</g>
		<g>
			<path fill="#5D9CEC" d="M6,51.495c-0.256,0-0.512-0.098-0.707-0.293l-2-2c-0.391-0.391-0.391-1.023,0-1.414s1.023-0.391,1.414,0
				l2,2c0.391,0.391,0.391,1.023,0,1.414C6.512,51.397,6.256,51.495,6,51.495z"/>
		</g>
		<g>
			<path fill="#5D9CEC" d="M6,51.495c-0.256,0-0.512-0.098-0.707-0.293c-0.391-0.391-0.391-1.023,0-1.414l2-2
				c0.391-0.391,1.023-0.391,1.414,0s0.391,1.023,0,1.414l-2,2C6.512,51.397,6.256,51.495,6,51.495z"/>
		</g>
		<g>
			<path fill="#5D9CEC" d="M10,51.495c-0.256,0-0.512-0.098-0.707-0.293l-2-2c-0.391-0.391-0.391-1.023,0-1.414s1.023-0.391,1.414,0
				l2,2c0.391,0.391,0.391,1.023,0,1.414C10.512,51.397,10.256,51.495,10,51.495z"/>
		</g>
		<g>
			<path fill="#5D9CEC" d="M10,51.495c-0.256,0-0.512-0.098-0.707-0.293c-0.391-0.391-0.391-1.023,0-1.414l2-2
				c0.391-0.391,1.023-0.391,1.414,0s0.391,1.023,0,1.414l-2,2C10.512,51.397,10.256,51.495,10,51.495z"/>
		</g>
		<g>
			<path fill="#5D9CEC" d="M14,51.495c-0.256,0-0.512-0.098-0.707-0.293c-0.391-0.391-0.391-1.023,0-1.414l2-2
				c0.391-0.391,1.023-0.391,1.414,0s0.391,1.023,0,1.414l-2,2C14.512,51.397,14.256,51.495,14,51.495z"/>
		</g>
		<g>
			<path fill="#5D9CEC" d="M18,51.495c-0.256,0-0.512-0.098-0.707-0.293l-2-2c-0.391-0.391-0.391-1.023,0-1.414s1.023-0.391,1.414,0
				l2,2c0.391,0.391,0.391,1.023,0,1.414C18.512,51.397,18.256,51.495,18,51.495z"/>
		</g>
		<g>
			<path fill="#5D9CEC" d="M13.984,51.495c-0.256,0-0.512-0.098-0.707-0.293l-2-2c-0.391-0.391-0.391-1.023,0-1.414
				s1.023-0.391,1.414,0l2,2c0.391,0.391,0.391,1.023,0,1.414C14.496,51.397,14.24,51.495,13.984,51.495z"/>
		</g>
		<g>
			<path fill="#5D9CEC" d="M18,51.495c-0.256,0-0.512-0.098-0.707-0.293c-0.391-0.391-0.391-1.023,0-1.414l2-2
				c0.391-0.391,1.023-0.391,1.414,0s0.391,1.023,0,1.414l-2,2C18.512,51.397,18.256,51.495,18,51.495z"/>
		</g>
		<g>
			<path fill="#5D9CEC" d="M22,51.495c-0.256,0-0.512-0.098-0.707-0.293l-2-2c-0.391-0.391-0.391-1.023,0-1.414s1.023-0.391,1.414,0
				l2,2c0.391,0.391,0.391,1.023,0,1.414C22.512,51.397,22.256,51.495,22,51.495z"/>
		</g>
		<g>
			<path fill="#5D9CEC" d="M22,51.495c-0.256,0-0.512-0.098-0.707-0.293c-0.391-0.391-0.391-1.023,0-1.414l2-2
				c0.391-0.391,1.023-0.391,1.414,0s0.391,1.023,0,1.414l-2,2C22.512,51.397,22.256,51.495,22,51.495z"/>
		</g>
		<g>
			<path fill="#5D9CEC" d="M26,51.495c-0.256,0-0.512-0.098-0.707-0.293l-2-2c-0.391-0.391-0.391-1.023,0-1.414s1.023-0.391,1.414,0
				l2,2c0.391,0.391,0.391,1.023,0,1.414C26.512,51.397,26.256,51.495,26,51.495z"/>
		</g>
		<g>
			<path fill="#5D9CEC" d="M26,51.495c-0.256,0-0.512-0.098-0.707-0.293c-0.391-0.391-0.391-1.023,0-1.414l2-2
				c0.391-0.391,1.023-0.391,1.414,0s0.391,1.023,0,1.414l-2,2C26.512,51.397,26.256,51.495,26,51.495z"/>
		</g>
		<g>
			<path fill="#5D9CEC" d="M30,51.495c-0.256,0-0.512-0.098-0.707-0.293l-2-2c-0.391-0.391-0.391-1.023,0-1.414s1.023-0.391,1.414,0
				l2,2c0.391,0.391,0.391,1.023,0,1.414C30.512,51.397,30.256,51.495,30,51.495z"/>
		</g>
		<g>
			<path fill="#5D9CEC" d="M30,51.495c-0.256,0-0.512-0.098-0.707-0.293c-0.391-0.391-0.391-1.023,0-1.414l2-2
				c0.391-0.391,1.023-0.391,1.414,0s0.391,1.023,0,1.414l-2,2C30.512,51.397,30.256,51.495,30,51.495z"/>
		</g>
		<g>
			<path fill="#5D9CEC" d="M34,51.495c-0.256,0-0.512-0.098-0.707-0.293l-2-2c-0.391-0.391-0.391-1.023,0-1.414s1.023-0.391,1.414,0
				l2,2c0.391,0.391,0.391,1.023,0,1.414C34.512,51.397,34.256,51.495,34,51.495z"/>
		</g>
		<g>
			<path fill="#5D9CEC" d="M34,51.495c-0.256,0-0.512-0.098-0.707-0.293c-0.391-0.391-0.391-1.023,0-1.414l2-2
				c0.391-0.391,1.023-0.391,1.414,0s0.391,1.023,0,1.414l-2,2C34.512,51.397,34.256,51.495,34,51.495z"/>
		</g>
		<g>
			<path fill="#5D9CEC" d="M38,51.495c-0.256,0-0.512-0.098-0.707-0.293l-2-2c-0.391-0.391-0.391-1.023,0-1.414s1.023-0.391,1.414,0
				l2,2c0.391,0.391,0.391,1.023,0,1.414C38.512,51.397,38.256,51.495,38,51.495z"/>
		</g>
		<g>
			<path fill="#5D9CEC" d="M38,51.495c-0.256,0-0.512-0.098-0.707-0.293c-0.391-0.391-0.391-1.023,0-1.414l2-2
				c0.391-0.391,1.023-0.391,1.414,0s0.391,1.023,0,1.414l-2,2C38.512,51.397,38.256,51.495,38,51.495z"/>
		</g>
		<g>
			<path fill="#5D9CEC" d="M42,51.495c-0.256,0-0.512-0.098-0.707-0.293l-2-2c-0.391-0.391-0.391-1.023,0-1.414s1.023-0.391,1.414,0
				l2,2c0.391,0.391,0.391,1.023,0,1.414C42.512,51.397,42.256,51.495,42,51.495z"/>
		</g>
		<g>
			<path fill="#5D9CEC" d="M42,51.495c-0.256,0-0.512-0.098-0.707-0.293c-0.391-0.391-0.391-1.023,0-1.414l2-2
				c0.391-0.391,1.023-0.391,1.414,0s0.391,1.023,0,1.414l-2,2C42.512,51.397,42.256,51.495,42,51.495z"/>
		</g>
		<g>
			<path fill="#5D9CEC" d="M46,51.495c-0.256,0-0.512-0.098-0.707-0.293l-2-2c-0.391-0.391-0.391-1.023,0-1.414s1.023-0.391,1.414,0
				l2,2c0.391,0.391,0.391,1.023,0,1.414C46.512,51.397,46.256,51.495,46,51.495z"/>
		</g>
		<g>
			<path fill="#5D9CEC" d="M46,51.495c-0.256,0-0.512-0.098-0.707-0.293c-0.391-0.391-0.391-1.023,0-1.414l2-2
				c0.391-0.391,1.023-0.391,1.414,0s0.391,1.023,0,1.414l-2,2C46.512,51.397,46.256,51.495,46,51.495z"/>
		</g>
		<g>
			<path fill="#5D9CEC" d="M50,51.495c-0.256,0-0.512-0.098-0.707-0.293l-2-2c-0.391-0.391-0.391-1.023,0-1.414s1.023-0.391,1.414,0
				l2,2c0.391,0.391,0.391,1.023,0,1.414C50.512,51.397,50.256,51.495,50,51.495z"/>
		</g>
		<g>
			<path fill="#5D9CEC" d="M50,51.495c-0.256,0-0.512-0.098-0.707-0.293c-0.391-0.391-0.391-1.023,0-1.414l2-2
				c0.391-0.391,1.023-0.391,1.414,0s0.391,1.023,0,1.414l-2,2C50.512,51.397,50.256,51.495,50,51.495z"/>
		</g>
		<g>
			<path fill="#5D9CEC" d="M54,51.495c-0.256,0-0.512-0.098-0.707-0.293l-2-2c-0.391-0.391-0.391-1.023,0-1.414s1.023-0.391,1.414,0
				l2,2c0.391,0.391,0.391,1.023,0,1.414C54.512,51.397,54.256,51.495,54,51.495z"/>
		</g>
		<g>
			<path fill="#5D9CEC" d="M54,51.495c-0.256,0-0.512-0.098-0.707-0.293c-0.391-0.391-0.391-1.023,0-1.414l2-2
				c0.391-0.391,1.023-0.391,1.414,0s0.391,1.023,0,1.414l-2,2C54.512,51.397,54.256,51.495,54,51.495z"/>
		</g>
		<g>
			<path fill="#5D9CEC" d="M58,51.495c-0.256,0-0.512-0.098-0.707-0.293l-2-2c-0.391-0.391-0.391-1.023,0-1.414s1.023-0.391,1.414,0
				l2,2c0.391,0.391,0.391,1.023,0,1.414C58.512,51.397,58.256,51.495,58,51.495z"/>
		</g>
		<g>
			<path fill="#5D9CEC" d="M58,51.495c-0.256,0-0.512-0.098-0.707-0.293c-0.391-0.391-0.391-1.023,0-1.414l2-2
				c0.391-0.391,1.023-0.391,1.414,0s0.391,1.023,0,1.414l-2,2C58.512,51.397,58.256,51.495,58,51.495z"/>
		</g>
		<g>
			<path fill="#5D9CEC" d="M62,51.495c-0.256,0-0.512-0.098-0.707-0.293l-2-2c-0.391-0.391-0.391-1.023,0-1.414s1.023-0.391,1.414,0
				l2,2c0.391,0.391,0.391,1.023,0,1.414C62.512,51.397,62.256,51.495,62,51.495z"/>
		</g>
		<g>
			<path fill="#5D9CEC" d="M62,51.495c-0.256,0-0.512-0.098-0.707-0.293c-0.391-0.391-0.391-1.023,0-1.414l1-1
				c0.391-0.391,1.023-0.391,1.414,0s0.391,1.023,0,1.414l-1,1C62.512,51.397,62.256,51.495,62,51.495z"/>
		</g>
		<g>
			<g>
				<path fill="#5D9CEC" d="M32,58.493c-0.256,0-0.512-0.098-0.707-0.293c-0.391-0.391-0.391-1.023,0-1.414l2-2
					c0.391-0.391,1.023-0.391,1.414,0s0.391,1.023,0,1.414l-2,2C32.512,58.396,32.256,58.493,32,58.493z"/>
			</g>
			<g>
				<path fill="#5D9CEC" d="M36,58.493c-0.256,0-0.512-0.098-0.707-0.293l-2-2c-0.391-0.391-0.391-1.023,0-1.414
					s1.023-0.391,1.414,0l2,2c0.391,0.391,0.391,1.023,0,1.414C36.512,58.396,36.256,58.493,36,58.493z"/>
			</g>
			<g>
				<path fill="#5D9CEC" d="M36,58.493c-0.256,0-0.512-0.098-0.707-0.293c-0.391-0.391-0.391-1.023,0-1.414l2-2
					c0.391-0.391,1.023-0.391,1.414,0s0.391,1.023,0,1.414l-2,2C36.512,58.396,36.256,58.493,36,58.493z"/>
			</g>
			<g>
				<path fill="#5D9CEC" d="M40,58.493c-0.256,0-0.512-0.098-0.707-0.293l-2-2c-0.391-0.391-0.391-1.023,0-1.414
					s1.023-0.391,1.414,0l2,2c0.391,0.391,0.391,1.023,0,1.414C40.512,58.396,40.256,58.493,40,58.493z"/>
			</g>
			<g>
				<path fill="#5D9CEC" d="M40,58.493c-0.256,0-0.512-0.098-0.707-0.293c-0.391-0.391-0.391-1.023,0-1.414l2-2
					c0.391-0.391,1.023-0.391,1.414,0s0.391,1.023,0,1.414l-2,2C40.512,58.396,40.256,58.493,40,58.493z"/>
			</g>
			<g>
				<path fill="#5D9CEC" d="M44,58.493c-0.256,0-0.512-0.098-0.707-0.293l-2-2c-0.391-0.391-0.391-1.023,0-1.414
					s1.023-0.391,1.414,0l2,2c0.391,0.391,0.391,1.023,0,1.414C44.512,58.396,44.256,58.493,44,58.493z"/>
			</g>
			<g>
				<path fill="#5D9CEC" d="M44,58.493c-0.256,0-0.512-0.098-0.707-0.293c-0.391-0.391-0.391-1.023,0-1.414l2-2
					c0.391-0.391,1.023-0.391,1.414,0s0.391,1.023,0,1.414l-2,2C44.512,58.396,44.256,58.493,44,58.493z"/>
			</g>
			<g>
				<path fill="#5D9CEC" d="M48,58.493c-0.256,0-0.512-0.098-0.707-0.293l-2-2c-0.391-0.391-0.391-1.023,0-1.414
					s1.023-0.391,1.414,0l2,2c0.391,0.391,0.391,1.023,0,1.414C48.512,58.396,48.256,58.493,48,58.493z"/>
			</g>
			<g>
				<path fill="#5D9CEC" d="M48,58.493c-0.256,0-0.512-0.098-0.707-0.293c-0.391-0.391-0.391-1.023,0-1.414l2-2
					c0.391-0.391,1.023-0.391,1.414,0s0.391,1.023,0,1.414l-2,2C48.512,58.396,48.256,58.493,48,58.493z"/>
			</g>
			<g>
				<path fill="#5D9CEC" d="M52,58.493c-0.256,0-0.512-0.098-0.707-0.293l-2-2c-0.391-0.391-0.391-1.023,0-1.414
					s1.023-0.391,1.414,0l2,2c0.391,0.391,0.391,1.023,0,1.414C52.512,58.396,52.256,58.493,52,58.493z"/>
			</g>
		</g>
		<g>
			<g>
				<path fill="#5D9CEC" d="M12,62.491c-0.256,0-0.512-0.098-0.707-0.293c-0.391-0.391-0.391-1.023,0-1.414l2-2
					c0.391-0.391,1.023-0.391,1.414,0s0.391,1.023,0,1.414l-2,2C12.512,62.394,12.256,62.491,12,62.491z"/>
			</g>
			<g>
				<path fill="#5D9CEC" d="M16,62.491c-0.256,0-0.512-0.098-0.707-0.293l-2-2c-0.391-0.391-0.391-1.023,0-1.414
					s1.023-0.391,1.414,0l2,2c0.391,0.391,0.391,1.023,0,1.414C16.512,62.394,16.256,62.491,16,62.491z"/>
			</g>
			<g>
				<path fill="#5D9CEC" d="M16,62.491c-0.256,0-0.512-0.098-0.707-0.293c-0.391-0.391-0.391-1.023,0-1.414l2-2
					c0.391-0.391,1.023-0.391,1.414,0s0.391,1.023,0,1.414l-2,2C16.512,62.394,16.256,62.491,16,62.491z"/>
			</g>
			<g>
				<path fill="#5D9CEC" d="M20,62.491c-0.256,0-0.512-0.098-0.707-0.293l-2-2c-0.391-0.391-0.391-1.023,0-1.414
					s1.023-0.391,1.414,0l2,2c0.391,0.391,0.391,1.023,0,1.414C20.512,62.394,20.256,62.491,20,62.491z"/>
			</g>
			<g>
				<path fill="#5D9CEC" d="M20,62.491c-0.256,0-0.512-0.098-0.707-0.293c-0.391-0.391-0.391-1.023,0-1.414l2-2
					c0.391-0.391,1.023-0.391,1.414,0s0.391,1.023,0,1.414l-2,2C20.512,62.394,20.256,62.491,20,62.491z"/>
			</g>
			<g>
				<path fill="#5D9CEC" d="M24,62.491c-0.256,0-0.512-0.098-0.707-0.293l-2-2c-0.391-0.391-0.391-1.023,0-1.414
					s1.023-0.391,1.414,0l2,2c0.391,0.391,0.391,1.023,0,1.414C24.512,62.394,24.256,62.491,24,62.491z"/>
			</g>
		</g>
	</g>
	<g>
		<path fill="#656D78" d="M38.004,33.492H16.007c-0.553,0-1-0.447-1-1s0.447-1,1-1h21.997c0.553,0,1,0.447,1,1
			S38.557,33.492,38.004,33.492z"/>
	</g>
</g>
</svg>
