<?xml version="1.0" encoding="utf-8"?>
<!-- Generator: Adobe Illustrator 16.0.0, SVG Export Plug-In . SVG Version: 6.00 Build 0)  -->
<!DOCTYPE svg PUBLIC "-//W3C//DTD SVG 1.1//EN" "http://www.w3.org/Graphics/SVG/1.1/DTD/svg11.dtd">
<svg version="1.1" id="icons" xmlns="http://www.w3.org/2000/svg" xmlns:xlink="http://www.w3.org/1999/xlink" x="0px" y="0px"
	 width="64px" height="64px" viewBox="0 0 64 64" enable-background="new 0 0 64 64" xml:space="preserve">
<g>
	<g>
		<rect x="36" y="50.411" fill="#CCD1D9" width="6" height="3"/>
	</g>
	<g>
		<path fill="#EAC6BB" d="M39,11.422c0,2.8-1.65,5.21-4.02,6.32c-0.9,0.439-1.921,0.68-2.98,0.68c-1.07,0-2.08-0.24-2.99-0.68
			c-2.37-1.11-4.02-3.521-4.02-6.32v-0.01v-1.99H39v1.99V11.422z"/>
	</g>
	<g>
		<polygon fill="#656D78" points="32,40.422 26,40.422 26,33.412 26,31.412 32,31.412 38,31.412 38,33.412 38,40.422 37.95,40.422 
					"/>
	</g>
	<g>
		<path fill="#D3B1A9" d="M35,17.792v1.63h3c2.21,0,4,1.79,4,4v9.99c0,1.11-0.89,2-2,2c-1.1,0-2-0.89-2-2v-2h-6h-6v2
			c0,1.11-0.9,2-2,2c-1.11,0-2-0.89-2-2v-9.99c0-2.21,1.79-4,4-4h2.99v-1.63l0.02-0.05c0.91,0.439,1.92,0.68,2.99,0.68
			c1.06,0,2.08-0.24,2.98-0.68L35,17.792z"/>
	</g>
	<g>
		<path fill="#D3B1A9" d="M37.95,47.402c0-1.641-1.33-2.971-2.97-2.971c-1.65,0-2.98,1.33-2.98,2.971v-6.98h5.95H38v6.98H37.95z"/>
	</g>
	<g>
		<path fill="#D3B1A9" d="M29,44.402c-1.66,0-3,1.35-3,3v-6.98h6v6.98C32,45.752,30.65,44.402,29,44.402z"/>
	</g>
	<g>
		<rect x="22" y="50.411" fill="#CCD1D9" width="6" height="3"/>
	</g>
	<g>
		<path fill="#5D9CEC" d="M36,1.492c2.39,1.38,4,3.97,4,6.93v1h-1H24.99H24v-1h-0.01c0-2.96,1.609-5.55,4.01-6.93
			c1.17-0.68,2.54-1.07,4-1.07S34.83,0.813,36,1.492z"/>
	</g>
	<path fill="#C6A199" d="M30.997,40.42v7.992c0,0.553,0.447,1,1,1s1-0.447,1-1V40.42H30.997z"/>
	<path fill="#545C66" d="M31.997,35.416c-0.553,0-1,0.447-1,1v3.988h2v-3.988C32.997,35.863,32.55,35.416,31.997,35.416z"/>
	<g>
		<path d="M31.997,49.412h-5.999c-0.553,0-1-0.447-1-1s0.447-1,1-1h5.999c0.553,0,1,0.447,1,1S32.55,49.412,31.997,49.412z"/>
	</g>
	<g>
		<path d="M37.998,49.412h-6.001c-0.553,0-1-0.447-1-1s0.447-1,1-1h6.001c0.553,0,1,0.447,1,1S38.551,49.412,37.998,49.412z"/>
	</g>
	<g>
		<path fill="#5D9CEC" d="M39.001,10.422H24.998c-0.553,0-1-0.447-1-1s0.447-1,1-1h14.003c0.553,0,1,0.447,1,1
			S39.554,10.422,39.001,10.422z"/>
	</g>
	<path fill="#4A89DC" d="M31.997,5.424c0.553,0,1-0.447,1-1V0.488C32.67,0.447,32.338,0.422,32,0.422
		c-0.34,0-0.674,0.025-1.003,0.066v3.936C30.997,4.977,31.444,5.424,31.997,5.424z"/>
	<path fill="#4A89DC" d="M35.997,4.422c0.553,0,1-0.447,1-1V2.186C36.682,1.933,36.353,1.695,36,1.492
		c-0.319-0.186-0.656-0.345-1.003-0.484v2.414C34.997,3.975,35.444,4.422,35.997,4.422z"/>
	<path fill="#4A89DC" d="M27.997,4.422c0.553,0,1-0.447,1-1V1.01c-0.345,0.14-0.68,0.298-0.997,0.482
		c-0.354,0.204-0.686,0.441-1.003,0.695v1.234C26.997,3.975,27.444,4.422,27.997,4.422z"/>
	<g>
		<path fill="#CCD1D9" d="M27.998,54.417h-6.001c-0.553,0-1-0.447-1-1v-2.998c0-0.553,0.447-1,1-1h6.001c0.553,0,1,0.447,1,1v2.998
			C28.998,53.97,28.551,54.417,27.998,54.417z M22.997,52.417h4.001v-0.998h-4.001V52.417z"/>
	</g>
	<g>
		<path fill="#CCD1D9" d="M41.998,54.417h-6.001c-0.553,0-1-0.447-1-1v-2.998c0-0.553,0.447-1,1-1h6.001c0.553,0,1,0.447,1,1v2.998
			C42.998,53.97,42.551,54.417,41.998,54.417z M36.997,52.417h4.001v-0.998h-4.001V52.417z"/>
	</g>
	<g>
		<path fill="#656D78" d="M31.997,63.578c-0.553,0-1-0.447-1-1V51.422c0-0.553,0.447-1,1-1s1,0.447,1,1v11.156
			C32.997,63.131,32.55,63.578,31.997,63.578z"/>
	</g>
	<g>
		<path fill="#5D9CEC" d="M41.997,63.422c-0.553,0-1-0.447-1-1v-6.001c0-0.553,0.447-1,1-1s1,0.447,1,1v6.001
			C42.997,62.975,42.55,63.422,41.997,63.422z"/>
	</g>
	<g>
		<path fill="#5D9CEC" d="M35.997,63.422c-0.553,0-1-0.447-1-1v-6.001c0-0.553,0.447-1,1-1s1,0.447,1,1v6.001
			C36.997,62.975,36.55,63.422,35.997,63.422z"/>
	</g>
	<g>
		<path fill="#5D9CEC" d="M38.997,61.422c-0.553,0-1-0.447-1-1v-3.001c0-0.553,0.447-1,1-1s1,0.447,1,1v3.001
			C39.997,60.975,39.55,61.422,38.997,61.422z"/>
	</g>
	<g>
		<path fill="#5D9CEC" d="M27.997,63.422c-0.553,0-1-0.447-1-1v-6.001c0-0.553,0.447-1,1-1s1,0.447,1,1v6.001
			C28.997,62.975,28.55,63.422,27.997,63.422z"/>
	</g>
	<g>
		<path fill="#5D9CEC" d="M21.997,63.422c-0.553,0-1-0.447-1-1v-6.001c0-0.553,0.447-1,1-1s1,0.447,1,1v6.001
			C22.997,62.975,22.55,63.422,21.997,63.422z"/>
	</g>
	<g>
		<path fill="#5D9CEC" d="M24.997,61.422c-0.553,0-1-0.447-1-1v-3.001c0-0.553,0.447-1,1-1s1,0.447,1,1v3.001
			C25.997,60.975,25.55,61.422,24.997,61.422z"/>
	</g>
	<g>
		<path fill="#656D78" d="M53,55.426c-0.553,0-1-0.447-1-1v-9c0-0.553,0.447-1,1-1s1,0.447,1,1v9C54,54.979,53.553,55.426,53,55.426
			z"/>
	</g>
	<g>
		<path fill="#656D78" d="M55,48.426c-0.256,0-0.512-0.098-0.707-0.293l-2-2c-0.391-0.391-0.391-1.023,0-1.414s1.023-0.391,1.414,0
			l2,2c0.391,0.391,0.391,1.023,0,1.414C55.512,48.328,55.256,48.426,55,48.426z"/>
	</g>
	<g>
		<path fill="#656D78" d="M51.042,48.385c-0.256,0-0.512-0.098-0.707-0.293c-0.391-0.391-0.391-1.023,0-1.414l1.958-1.959
			c0.391-0.391,1.023-0.391,1.414,0s0.391,1.023,0,1.414l-1.958,1.959C51.554,48.287,51.298,48.385,51.042,48.385z"/>
	</g>
	<g>
		<path fill="#656D78" d="M46.994,51.422c-0.553,0-1-0.447-1-1V37.418c0-0.553,0.447-1,1-1s1,0.447,1,1v13.004
			C47.994,50.975,47.547,51.422,46.994,51.422z"/>
	</g>
	<g>
		<path fill="#656D78" d="M48.994,40.418c-0.256,0-0.512-0.098-0.707-0.293l-2-2c-0.391-0.391-0.391-1.023,0-1.414
			s1.023-0.391,1.414,0l2,2c0.391,0.391,0.391,1.023,0,1.414C49.506,40.32,49.25,40.418,48.994,40.418z"/>
	</g>
	<g>
		<path fill="#656D78" d="M45.036,40.377c-0.256,0-0.512-0.098-0.707-0.293c-0.391-0.391-0.391-1.023,0-1.414l1.958-1.959
			c0.391-0.391,1.023-0.391,1.414,0s0.391,1.023,0,1.414l-1.958,1.959C45.548,40.279,45.292,40.377,45.036,40.377z"/>
	</g>
	<g>
		<path fill="#656D78" d="M11,55.426c-0.553,0-1-0.447-1-1v-9c0-0.553,0.447-1,1-1s1,0.447,1,1v9C12,54.979,11.553,55.426,11,55.426
			z"/>
	</g>
	<g>
		<path fill="#656D78" d="M9,48.426c-0.256,0-0.512-0.098-0.707-0.293c-0.391-0.391-0.391-1.023,0-1.414l2-2
			c0.391-0.391,1.023-0.391,1.414,0s0.391,1.023,0,1.414l-2,2C9.512,48.328,9.256,48.426,9,48.426z"/>
	</g>
	<g>
		<path fill="#656D78" d="M12.958,48.385c-0.256,0-0.512-0.098-0.707-0.293l-1.958-1.959c-0.391-0.391-0.391-1.023,0-1.414
			s1.023-0.391,1.414,0l1.958,1.959c0.391,0.391,0.391,1.023,0,1.414C13.47,48.287,13.214,48.385,12.958,48.385z"/>
	</g>
	<g>
		<path fill="#656D78" d="M17.006,51.422c-0.553,0-1-0.447-1-1V37.418c0-0.553,0.447-1,1-1s1,0.447,1,1v13.004
			C18.006,50.975,17.559,51.422,17.006,51.422z"/>
	</g>
	<g>
		<path fill="#656D78" d="M15.006,40.418c-0.256,0-0.512-0.098-0.707-0.293c-0.391-0.391-0.391-1.023,0-1.414l2-2
			c0.391-0.391,1.023-0.391,1.414,0s0.391,1.023,0,1.414l-2,2C15.518,40.32,15.262,40.418,15.006,40.418z"/>
	</g>
	<g>
		<path fill="#656D78" d="M18.964,40.377c-0.256,0-0.512-0.098-0.707-0.293l-1.958-1.959c-0.391-0.391-0.391-1.023,0-1.414
			s1.023-0.391,1.414,0l1.958,1.959c0.391,0.391,0.391,1.023,0,1.414C19.476,40.279,19.22,40.377,18.964,40.377z"/>
	</g>
	<path fill="#C6A199" d="M38,25.423v5.989v2c0,0.74,0.404,1.375,0.997,1.721v-8.711C38.997,25.87,38.552,25.424,38,25.423z"/>
	<path fill="#C6A199" d="M25.986,25.423v5.989v2c0,0.74-0.404,1.375-0.997,1.721v-8.711C24.989,25.87,25.435,25.424,25.986,25.423z"
		/>
	<g>
		<path fill="#656D78" d="M32,47.402c0-1.641,1.33-2.971,2.98-2.971c1.64,0,2.97,1.33,2.97,2.971H38v1.01h-6V47.402z"/>
	</g>
	<g>
		<path fill="#656D78" d="M32,47.402v1.01h-6v-1.01c0-1.65,1.34-3,3-3C30.65,44.402,32,45.752,32,47.402z"/>
	</g>
	<path fill="#E6E9ED" d="M41.998,47.422H21.997c-0.553,0-1,0.447-1,1v2.998c0,0.553,0.447,1,1,1h20.001c0.553,0,1-0.447,1-1v-2.998
		C42.998,47.869,42.551,47.422,41.998,47.422z"/>
</g>
</svg>
