<?xml version="1.0" encoding="utf-8"?>
<!-- Generator: Adobe Illustrator 16.0.0, SVG Export Plug-In . SVG Version: 6.00 Build 0)  -->
<!DOCTYPE svg PUBLIC "-//W3C//DTD SVG 1.1//EN" "http://www.w3.org/Graphics/SVG/1.1/DTD/svg11.dtd">
<svg version="1.1" id="icons" xmlns="http://www.w3.org/2000/svg" xmlns:xlink="http://www.w3.org/1999/xlink" x="0px" y="0px"
	 width="64px" height="64px" viewBox="0 0 64 64" enable-background="new 0 0 64 64" xml:space="preserve">
<g>
	<g>
		<path fill="#CCD1D9" d="M53.496,38.996c-0.553,0-1-0.447-1-1v-28c0-0.553,0.447-1,1-1s1,0.447,1,1v28
			C54.496,38.549,54.049,38.996,53.496,38.996z"/>
	</g>
	<g>
		<path fill="#CCD1D9" d="M31.501,55.002c-0.553,0-1-0.447-1-1v-28c0-0.553,0.447-1,1-1s1,0.447,1,1v28
			C32.501,54.555,32.054,55.002,31.501,55.002z"/>
	</g>
	<g>
		<g>
			<path fill="#E6E9ED" d="M48.494,49h10c0,2.76-2.24,5-5,5S48.494,51.76,48.494,49z"/>
		</g>
		<g>
			<path fill="#E6E9ED" d="M58.494,49h-10c0-2.76,2.24-11.01,5-11.01S58.494,46.24,58.494,49z"/>
		</g>
		<g>
			<path fill="#AC92EC" d="M45.424,25.64c2.4,1.11,4.07,3.54,4.07,6.36c0,3.86-3.13,7-7,7c-3.86,0-7-3.14-7-7
				c0-2.82,1.67-5.25,4.07-6.35c0.31,1.34,1.5,2.34,2.93,2.34S45.124,26.98,45.424,25.64z"/>
		</g>
		<g>
			<path fill="#656D78" d="M45.424,25.64c-0.3,1.341-1.5,2.351-2.93,2.351s-2.62-1-2.93-2.34c0.89-0.42,1.88-0.65,2.93-0.65
				S44.534,25.23,45.424,25.64z"/>
		</g>
		<g>
			<path fill="#E6E9ED" d="M36.494,14.99h-10c0-2.76,2.24-5,5-5C34.264,9.99,36.494,12.23,36.494,14.99z"/>
		</g>
		<g>
			<path fill="#E6E9ED" d="M26.494,14.99h10c0,2.77-2.23,11.01-5,11.01C28.734,26,26.494,17.76,26.494,14.99z"/>
		</g>
		<g>
			<path fill="#E6E9ED" d="M8.504,46.99V61.5c0,0.83-0.68,1.5-1.5,1.5c-0.83,0-1.5-0.67-1.5-1.5V46.99H8.504z"/>
		</g>
		<g>
			<polygon fill="#D770AD" points="21.494,58.5 21.494,61.99 14.504,55 14.504,54.96 17.975,51.48 17.994,51.5 24.994,58.5 			"/>
		</g>
		<g>
			<polygon fill="#D770AD" points="21.494,40.97 17.994,44.46 14.504,40.97 18.004,37.48 			"/>
		</g>
		<g>
			<polygon fill="#D770AD" points="21.494,26.98 17.994,30.48 14.504,26.98 17.994,23.49 			"/>
		</g>
		<g>
			<polygon fill="#D770AD" points="21.494,13 17.994,16.49 9.494,8 9.494,1 			"/>
		</g>
		<g>
			<polygon fill="#EC87C0" points="21.494,13 21.494,19.99 21.494,20 17.994,23.49 14.504,26.98 14.504,19.99 17.994,16.49 			"/>
		</g>
		<g>
			<polygon fill="#EC87C0" points="18.004,37.48 14.504,40.97 14.504,33.97 17.994,30.48 21.494,26.98 21.494,33.98 			"/>
		</g>
		<g>
			<polygon fill="#EC87C0" points="21.494,40.97 21.494,47.96 21.494,47.97 17.975,51.48 14.504,54.96 14.504,47.96 17.994,44.46 
							"/>
		</g>
		<g>
			<polygon fill="#EC87C0" points="9.494,8 9.494,42 8.504,46.99 5.504,46.99 5.494,46.99 4.504,42 4.504,6 9.494,1 			"/>
		</g>
	</g>
	<g>
		<path fill="#E6E9ED" d="M31.501,27.002c-3.815,0-6-9.436-6-12.006c0-3.309,2.691-6,6-6s6,2.691,6,6
			C37.501,17.566,35.316,27.002,31.501,27.002z M31.501,10.996c-2.206,0-4,1.794-4,4c0,2.979,2.367,10.006,4,10.006
			s4-7.026,4-10.006C35.501,12.79,33.707,10.996,31.501,10.996z"/>
	</g>
	<g>
		<path fill="#CCD1D9" d="M36.501,15.996h-10c-0.553,0-1-0.447-1-1s0.447-1,1-1h10c0.553,0,1,0.447,1,1S37.054,15.996,36.501,15.996
			z"/>
	</g>
	<g>
		<path fill="#E6E9ED" d="M33.502,55.002H29.5c-0.553,0-1-0.447-1-1s0.447-1,1-1h4.002c0.553,0,1,0.447,1,1
			S34.055,55.002,33.502,55.002z"/>
	</g>
	<g>
		<path fill="#E6E9ED" d="M53.496,55.002c-3.309,0-6-2.691-6-6c0-2.57,2.185-12.006,6-12.006s6,9.436,6,12.006
			C59.496,52.311,56.805,55.002,53.496,55.002z M53.496,38.996c-1.633,0-4,7.026-4,10.006c0,2.206,1.794,4,4,4s4-1.794,4-4
			C57.496,46.022,55.129,38.996,53.496,38.996z"/>
	</g>
	<g>
		<path fill="#CCD1D9" d="M58.496,50.002h-10c-0.553,0-1-0.447-1-1s0.447-1,1-1h10c0.553,0,1,0.447,1,1S59.049,50.002,58.496,50.002
			z"/>
	</g>
	<g>
		<path fill="#E6E9ED" d="M55.497,10.996h-4.002c-0.553,0-1-0.447-1-1s0.447-1,1-1h4.002c0.553,0,1,0.447,1,1
			S56.05,10.996,55.497,10.996z"/>
	</g>
</g>
</svg>
