<?xml version="1.0" encoding="utf-8"?>
<!-- Generator: Adobe Illustrator 16.0.0, SVG Export Plug-In . SVG Version: 6.00 Build 0)  -->
<!DOCTYPE svg PUBLIC "-//W3C//DTD SVG 1.1//EN" "http://www.w3.org/Graphics/SVG/1.1/DTD/svg11.dtd">
<svg version="1.1" id="icons" xmlns="http://www.w3.org/2000/svg" xmlns:xlink="http://www.w3.org/1999/xlink" x="0px" y="0px"
	 width="64px" height="64px" viewBox="0 0 64 64" enable-background="new 0 0 64 64" xml:space="preserve">
<g>
	<g>
		<path fill="#FFCE54" d="M52,6v0.01L44.79,37H38.4L42,6c0-2.76,2.24-5,5-5S52,3.24,52,6z"/>
	</g>
	<g>
		<polygon fill="#FFCE54" points="43.39,43 42,49 37,49 37.7,43 		"/>
	</g>
	<g>
		<path fill="#FFCE54" d="M22,6l3.6,31h-6.39L12,6.01V6c0-2.76,2.24-5,5-5S22,3.24,22,6z"/>
	</g>
	<g>
		<path fill="#FFCE54" d="M32,6v31h-6.4L22,6c0-2.76,2.24-5,5-5S32,3.24,32,6z"/>
	</g>
	<g>
		<path fill="#FFCE54" d="M37,1c2.76,0,5,2.24,5,5l-3.6,31H32V6C32,3.24,34.24,1,37,1z"/>
	</g>
	<g>
		<polygon fill="#FFCE54" points="32,43 32,49 27,49 26.3,43 		"/>
	</g>
	<g>
		<polygon fill="#FFCE54" points="37.7,43 37,49 32,49 32,43 		"/>
	</g>
	<g>
		<polygon fill="#FFCE54" points="26.3,43 27,49 22,49 20.61,43 		"/>
	</g>
	<g>
		<path fill="#F6BB42" d="M22.001,50c-0.454,0-0.865-0.312-0.973-0.773L11.026,6.233c-0.126-0.538,0.209-1.075,0.747-1.2
			c0.536-0.129,1.075,0.209,1.2,0.747l10.002,42.993c0.126,0.538-0.209,1.075-0.747,1.2C22.152,49.992,22.076,50,22.001,50z"/>
	</g>
	<g>
		<path fill="#F6BB42" d="M41.999,50.001c-0.075,0-0.151-0.008-0.228-0.026c-0.538-0.125-0.873-0.662-0.747-1.2L51.026,5.781
			c0.125-0.539,0.663-0.878,1.2-0.747c0.538,0.125,0.873,0.662,0.747,1.2L42.972,49.228C42.864,49.689,42.453,50.001,41.999,50.001z
			"/>
	</g>
	<g>
		<path fill="#F6BB42" d="M22,7.001c-0.553,0-1-0.447-1-1c0-2.206-1.794-4-4-4s-4,1.794-4,4c0,0.553-0.447,1-1,1s-1-0.447-1-1
			c0-3.309,2.691-6,6-6s6,2.691,6,6C23,6.554,22.553,7.001,22,7.001z"/>
	</g>
	<g>
		<path fill="#F6BB42" d="M32,7.001c-0.553,0-1-0.447-1-1c0-2.206-1.794-4-4-4s-4,1.794-4,4c0,0.553-0.447,1-1,1s-1-0.447-1-1
			c0-3.309,2.691-6,6-6s6,2.691,6,6C33,6.554,32.553,7.001,32,7.001z"/>
	</g>
	<g>
		<path fill="#F6BB42" d="M42,7.001c-0.553,0-1-0.447-1-1c0-2.206-1.794-4-4-4s-4,1.794-4,4c0,0.553-0.447,1-1,1s-1-0.447-1-1
			c0-3.309,2.691-6,6-6s6,2.691,6,6C43,6.554,42.553,7.001,42,7.001z"/>
	</g>
	<g>
		<path fill="#F6BB42" d="M52,7.001c-0.553,0-1-0.447-1-1c0-2.206-1.794-4-4-4s-4,1.794-4,4c0,0.553-0.447,1-1,1s-1-0.447-1-1
			c0-3.309,2.691-6,6-6s6,2.691,6,6C53,6.554,52.553,7.001,52,7.001z"/>
	</g>
	<g>
		<path fill="#F6BB42" d="M26.995,50c-0.501,0-0.933-0.375-0.992-0.885l-5-42.999c-0.063-0.548,0.329-1.045,0.878-1.108
			c0.555-0.065,1.045,0.329,1.108,0.878l5,42.999c0.063,0.548-0.329,1.045-0.878,1.108C27.072,49.998,27.033,50,26.995,50z"/>
	</g>
	<g>
		<path fill="#F6BB42" d="M37.003,50c-0.038,0-0.077-0.002-0.116-0.007c-0.549-0.063-0.941-0.561-0.878-1.108l5-42.999
			c0.063-0.548,0.558-0.943,1.108-0.878c0.549,0.063,0.941,0.561,0.878,1.108l-5,42.999C37.937,49.625,37.504,50,37.003,50z"/>
	</g>
	<g>
		<path fill="#F6BB42" d="M43.395,44H20.605c-0.553,0-1-0.447-1-1s0.447-1,1-1h22.789c0.553,0,1,0.447,1,1S43.947,44,43.395,44z"/>
	</g>
	<g>
		<path fill="#F6BB42" d="M44.791,38.003h-25.58c-0.553,0-1-0.447-1-1s0.447-1,1-1h25.58c0.553,0,1,0.447,1,1
			S45.344,38.003,44.791,38.003z"/>
	</g>
	<g>
		<path fill="#F6BB42" d="M32,50.001c-0.553,0-1-0.447-1-1v-43c0-0.553,0.447-1,1-1s1,0.447,1,1v43
			C33,49.554,32.553,50.001,32,50.001z"/>
	</g>
	<g>
		<path fill="#E6E9ED" d="M42,49v4c0,5.52-4.48,10-10,10c-5.521,0-10-4.48-10-10v-4h5h5h5H42z"/>
	</g>
	<path fill="#E6E9ED" d="M32,63.999c-6.065,0-11-4.935-11-11c0-0.553,0.447-1,1-1s1,0.447,1,1c0,4.963,4.037,9,9,9s9-4.037,9-9
		c0-0.553,0.447-1,1-1s1,0.447,1,1C43,59.064,38.065,63.999,32,63.999z"/>
	<path fill="#E6E9ED" d="M22.002,53.999c-0.553,0-1-0.447-1-1V49c0-0.553,0.447-1,1-1s1,0.447,1,1v3.999
		C23.002,53.552,22.555,53.999,22.002,53.999z"/>
	<g>
		<path fill="#E6E9ED" d="M41.998,50H22.002c-0.553,0-1-0.447-1-1s0.447-1,1-1h19.996c0.553,0,1,0.447,1,1S42.551,50,41.998,50z"/>
	</g>
	<path fill="#E6E9ED" d="M41.998,53.999c-0.553,0-1-0.447-1-1V49c0-0.553,0.447-1,1-1s1,0.447,1,1v3.999
		C42.998,53.552,42.551,53.999,41.998,53.999z"/>
</g>
</svg>
