<?xml version="1.0" encoding="utf-8"?>
<!-- Generator: Adobe Illustrator 16.0.0, SVG Export Plug-In . SVG Version: 6.00 Build 0)  -->
<!DOCTYPE svg PUBLIC "-//W3C//DTD SVG 1.1//EN" "http://www.w3.org/Graphics/SVG/1.1/DTD/svg11.dtd">
<svg version="1.1" id="icons" xmlns="http://www.w3.org/2000/svg" xmlns:xlink="http://www.w3.org/1999/xlink" x="0px" y="0px"
	 width="64px" height="64px" viewBox="0 0 64 64" enable-background="new 0 0 64 64" xml:space="preserve">
<g>
	<g>
		<path fill="#CCD1D9" d="M36.005,39.021V59c0,2.21-1.79,4-4,4s-4-1.79-4-4V39.021H36.005z"/>
	</g>
	<g>
		<path fill="#CCD1D9" d="M35.999,59.998c-0.553,0-1-0.447-1-1V39.014c0-0.553,0.447-1,1-1s1,0.447,1,1v19.984
			C36.999,59.551,36.552,59.998,35.999,59.998z"/>
	</g>
	<g>
		<path fill="#CCD1D9" d="M27.999,60c-0.553,0-1-0.447-1-1V39.014c0-0.553,0.447-1,1-1s1,0.447,1,1V59
			C28.999,59.553,28.552,60,27.999,60z"/>
	</g>
	<g>
		<path fill="#CCD1D9" d="M31.998,64c-2.757,0-4.999-2.243-4.999-5c0-0.553,0.447-1,1-1s1,0.447,1,1c0,1.654,1.346,3,2.999,3
			c1.654,0,3.001-1.347,3.001-3.002c0-0.553,0.447-1,1-1s1,0.447,1,1C36.999,61.756,34.756,64,31.998,64z"/>
	</g>
	<g>
		<path fill="#E6E9ED" d="M27,40.014c-0.475,0-0.896-0.338-0.982-0.821l-2-10.998c-0.1-0.543,0.261-1.063,0.805-1.162
			c0.539-0.104,1.064,0.261,1.162,0.805l2,10.998c0.1,0.543-0.261,1.063-0.805,1.162C27.119,40.009,27.06,40.014,27,40.014z"/>
	</g>
	<g>
		<path fill="#E6E9ED" d="M36.998,40.014c-0.06,0-0.119-0.005-0.18-0.017c-0.544-0.099-0.904-0.619-0.805-1.162l2-10.996
			c0.098-0.544,0.622-0.91,1.162-0.805c0.544,0.099,0.904,0.619,0.805,1.162l-2,10.996C37.894,39.676,37.472,40.014,36.998,40.014z"
			/>
	</g>
	<g>
		<path fill="#E6E9ED" d="M36.997,40.014h-9.996c-0.553,0-1-0.447-1-1s0.447-1,1-1h9.996c0.553,0,1,0.447,1,1
			S37.55,40.014,36.997,40.014z"/>
	</g>
	<g>
		<path fill="#FC6E51" d="M31.993,29.023c-6.617,0-12-5.383-12-12c0-0.553,0.447-1,1-1s1,0.447,1,1c0,5.514,4.486,10,10,10
			c5.515,0,10.001-4.486,10.001-10c0-0.553,0.447-1,1-1s1,0.447,1,1C43.994,23.641,38.61,29.023,31.993,29.023z"/>
	</g>
	<g>
		<path fill="#FC6E51" d="M43.007,16.002c-0.553,0-1-0.447-1-1c0-7.168-5.832-13-13-13c-0.553,0-1-0.447-1-1s0.447-1,1-1
			c8.271,0,15,6.729,15,15C44.007,15.555,43.56,16.002,43.007,16.002z"/>
	</g>
	<g>
		<path fill="#FC6E51" d="M20.994,10c-0.553,0-1-0.447-1-1s0.447-1,1-1c3.859,0,7-3.141,7-7c0-0.553,0.447-1,1-1s1,0.447,1,1
			C29.994,5.963,25.957,10,20.994,10z"/>
	</g>
	<g>
		<path fill="#FC6E51" d="M20.993,18.023L20.993,18.023c-0.553,0-1-0.448-1-1L19.994,9c0-0.553,0.448-1,1-1l0,0c0.553,0,1,0.448,1,1
			l-0.001,8.023C21.993,17.576,21.545,18.023,20.993,18.023z"/>
	</g>
	<g>
		<path fill="#FC6E51" d="M43.007,18.023c-0.553,0-1-0.447-1-1v-2.021c0-0.553,0.447-1,1-1s1,0.447,1,1v2.021
			C44.007,17.576,43.56,18.023,43.007,18.023z"/>
	</g>
	<g>
		<path fill="#FC6E51" d="M43.005,15v2.03h-0.01c0,5.88-4.62,10.689-10.431,10.99h-1.14c-5.81-0.301-10.43-5.11-10.43-10.99V9
			c4.42,0,8-3.58,8-8h0.01C36.745,1,43.005,7.271,43.005,15z M39.005,17.03v-2.11c-0.04-4.39-2.92-8.12-6.89-9.42
			c-1.29,3.17-3.891,5.66-7.12,6.8v4.73c0,3.859,3.14,7,7,7c3.859,0,7-3.141,7-7H39.005z"/>
	</g>
	<g>
		<path fill="#FFCE54" d="M39.005,14.92v2.11h-0.01c0,3.859-3.141,7-7,7c-3.86,0-7-3.141-7-7V12.3c3.229-1.14,5.83-3.63,7.12-6.8
			C36.085,6.8,38.965,10.53,39.005,14.92z"/>
	</g>
	<g>
		<path fill="#E6E9ED" d="M38.995,28.021l-2,11h-0.99h-8h-1l-2-11h6.42c0.19,0.01,0.38,0.01,0.57,0.01c0.189,0,0.38,0,0.569-0.01
			H38.995z"/>
	</g>
	<g>
		<path fill="#F5F7FA" d="M39.998,29.021H24c-0.553,0-1-0.447-1-1s0.447-1,1-1h15.998c0.553,0,1,0.447,1,1
			S40.551,29.021,39.998,29.021z"/>
	</g>
	<g>
		<path fill="#FFCE54" d="M31.994,25.023c-4.412,0-8.001-3.589-8.001-8c0-0.553,0.447-1,1-1s1,0.447,1,1c0,3.309,2.692,6,6.001,6
			s6-2.691,6-6c0-0.553,0.447-1,1-1s1,0.447,1,1C39.994,21.435,36.405,25.023,31.994,25.023z M38.994,16c-0.553,0-1-0.447-1-1
			c0-0.035,0.004-0.09,0.009-0.138c-0.055-3.539-2.172-6.685-5.368-8.093c-1.496,3.01-4.113,5.342-7.307,6.474
			c-0.519,0.182-1.092-0.087-1.276-0.608c-0.185-0.521,0.088-1.092,0.608-1.276c2.964-1.052,5.342-3.324,6.524-6.234
			c0.198-0.487,0.737-0.739,1.238-0.574c4.493,1.472,7.54,5.634,7.581,10.357c0,0.047-0.006,0.12-0.013,0.175
			C39.949,15.596,39.519,16,38.994,16z"/>
	</g>
	<g>
		<path fill="#FFCE54" d="M24.993,18.023c-0.553,0-1-0.447-1-1v-4.723c0-0.553,0.447-1,1-1s1,0.447,1,1v4.723
			C25.993,17.576,25.546,18.023,24.993,18.023z"/>
	</g>
	<g>
		<path fill="#FFCE54" d="M39.004,18.023c-0.553,0-1-0.447-1-1v-2.107c0-0.553,0.447-1,1-1s1,0.447,1,1v2.107
			C40.004,17.576,39.557,18.023,39.004,18.023z"/>
	</g>
</g>
</svg>
