<?xml version="1.0" encoding="utf-8"?>
<!-- Generator: Adobe Illustrator 16.0.0, SVG Export Plug-In . SVG Version: 6.00 Build 0)  -->
<!DOCTYPE svg PUBLIC "-//W3C//DTD SVG 1.1//EN" "http://www.w3.org/Graphics/SVG/1.1/DTD/svg11.dtd">
<svg version="1.1" id="icons" xmlns="http://www.w3.org/2000/svg" xmlns:xlink="http://www.w3.org/1999/xlink" x="0px" y="0px"
	 width="64px" height="64px" viewBox="0 0 64 64" enable-background="new 0 0 64 64" xml:space="preserve">
<g>
	<g>
		<path fill="#CCD1D9" d="M32,40c-0.553,0-1-0.447-1-1v-4.002c0-0.553,0.447-1,1-1s1,0.447,1,1V39C33,39.553,32.553,40,32,40z"/>
	</g>
	<g>
		<g>
			<rect x="40" y="11.999" fill="#E6E9ED" width="4" height="5.001"/>
		</g>
		<g>
			<rect x="20" y="11.999" fill="#E6E9ED" width="4" height="5.001"/>
		</g>
	</g>
	<g>
		<polygon fill="#E6E9ED" points="22.01,35 14.01,56 7.01,56 15.01,35 		"/>
	</g>
	<g>
		<polygon fill="#545C66" points="35,39 35,56 29,56 29,39 32,39 		"/>
	</g>
	<g>
		<polygon fill="#E6E9ED" points="48.99,35 56.99,56 49.99,56 41.99,35 		"/>
	</g>
	<g>
		<path fill="#CCD1D9" d="M43,7c0.55,0,1,0.45,1,1v4c0,0.55-0.45,1-1,1h-2c-0.55,0-1-0.45-1-1V8c0-0.55,0.45-1,1-1H43z"/>
	</g>
	<g>
		<path fill="#545C66" d="M63,22v7l-8,6h-6.01h-7H32h-9.99h-7H9l-8-6v-6.99c0-1.109,0.89-2,2-2V20h58C62.11,20,63,20.9,63,22z"/>
	</g>
	<g>
		<path fill="#656D78" d="M63,19v3c0-1.1-0.89-2-2-2H3v0.01c-1.11,0-2,0.891-2,2V19c0-1.1,0.89-2,2-2h17h4h16h4h17
			C62.11,17,63,17.89,63,19z"/>
	</g>
	<g>
		<path fill="#CCD1D9" d="M23,7c0.55,0,1,0.45,1,1v4c0,0.55-0.45,1-1,1h-2c-0.55,0-1-0.45-1-1V8c0-0.55,0.45-1,1-1H23z"/>
	</g>
	<g>
		<path fill="#545C66" d="M35,57h-6c-0.553,0-1-0.447-1-1V39c0-0.553,0.447-1,1-1h6c0.553,0,1,0.447,1,1v17
			C36,56.553,35.553,57,35,57z M30,55h4V40h-4V55z"/>
	</g>
	<g>
		<path fill="#656D78" d="M63,57H1c-0.553,0-1-0.447-1-1s0.447-1,1-1h62c0.553,0,1,0.447,1,1S63.553,57,63,57z"/>
	</g>
</g>
</svg>
