<?xml version="1.0" encoding="utf-8"?>
<!-- Generator: Adobe Illustrator 16.0.0, SVG Export Plug-In . SVG Version: 6.00 Build 0)  -->
<!DOCTYPE svg PUBLIC "-//W3C//DTD SVG 1.1//EN" "http://www.w3.org/Graphics/SVG/1.1/DTD/svg11.dtd">
<svg version="1.1" id="icons" xmlns="http://www.w3.org/2000/svg" xmlns:xlink="http://www.w3.org/1999/xlink" x="0px" y="0px"
	 width="64px" height="64px" viewBox="0 0 64 64" enable-background="new 0 0 64 64" xml:space="preserve">
<g>
	<g>
		<path fill="#656D78" d="M32,62c0-1.94-1.57-3.5-3.5-3.5S25,60.06,25,62V44h7h7v18c0-1.94-1.57-3.5-3.5-3.5S32,60.06,32,62z"/>
	</g>
	<path fill="#545C66" d="M31.996,48.002c-0.553,0-1,0.447-1,1v12.997h2V49.002C32.996,48.449,32.549,48.002,31.996,48.002z"/>
	<g>
		<path fill="#656D78" d="M11.004,22c-0.553,0-1-0.447-1-1V1c0-0.553,0.447-1,1-1s1,0.447,1,1v20C12.004,21.553,11.557,22,11.004,22
			z"/>
	</g>
	<g>
		<path fill="#656D78" d="M52.996,22c-0.553,0-1-0.447-1-1V1c0-0.553,0.447-1,1-1s1,0.447,1,1v20C53.996,21.553,53.549,22,52.996,22
			z"/>
	</g>
	<g>
		<path fill="#965353" d="M40,12v2.97L37,13c0,0-2,1-5,1s-5-1-5-1l-3,1.97V12c0-4.42,3.58-8,8-8h4v4C38.21,8,40,9.79,40,12z"/>
	</g>
	<g>
		<path fill="#EAC6BB" d="M40,14.97V17c0,2.96-1.609,5.55-4,6.93C34.83,24.61,33.46,25,32,25s-2.83-0.39-4.01-1.07
			C25.6,22.54,24,19.96,24,17v-2.03L27,13c0,0,2,1,5,1s5-1,5-1L40,14.97z"/>
	</g>
	<g>
		<path fill="#D3B1A9" d="M32,25c1.46,0,2.83-0.39,4-1.07V26c0,2.21-1.79,4.01-4,4.01s-4.01-1.8-4.01-4.01v-2.07
			C29.17,24.61,30.54,25,32,25z"/>
	</g>
	<g>
		<g>
			<path fill="#D3B1A9" d="M11.51,26c-1.38,0-2.5,1.12-2.5,2.5c0,1.29,0.971,2.35,2.221,2.49c0.01,0,0.02,0,0.02,0
				C11.34,31,11.42,31,11.51,31H25v-5h-8.99H11.51z"/>
		</g>
		<g>
			<path fill="#D3B1A9" d="M52.49,26H48h-9v0.13V31h13.49c0.09,0,0.17,0,0.26-0.01c0,0,0.01,0,0.02,0
				c1.25-0.141,2.221-1.2,2.221-2.49C54.99,27.12,53.87,26,52.49,26z"/>
		</g>
	</g>
	<g>
		<path fill="#E6E9ED" d="M39,62v1h-7v-1c0-1.94,1.57-3.5,3.5-3.5S39,60.06,39,62z"/>
	</g>
	<g>
		<path fill="#E6E9ED" d="M32,62v1h-7v-1c0-1.94,1.57-3.5,3.5-3.5S32,60.06,32,62z"/>
	</g>
	<g>
		<path fill="#5D9CEC" d="M27.99,26c0,2.21,1.8,4.01,4.01,4.01s4-1.8,4-4.01h3v0.13V31v13h-7h-7V31v-5H27.99z"/>
	</g>
	<g>
		<path fill="#E6E9ED" d="M30.995,64h-4.998c-0.553,0-1-0.447-1-1s0.447-1,1-1h4.998c0.553,0,1,0.447,1,1S31.548,64,30.995,64z"/>
	</g>
	<g>
		<path fill="#E6E9ED" d="M37.999,64h-4.998c-0.553,0-1-0.447-1-1s0.447-1,1-1h4.998c0.553,0,1,0.447,1,1S38.552,64,37.999,64z"/>
	</g>
	<g>
		<path fill="#E6E9ED" d="M11.004,32.002c-3.309,0-6.001-2.692-6.001-6.002c0-3.309,2.692-6,6.001-6s6.001,2.691,6.001,6
			C17.005,29.31,14.313,32.002,11.004,32.002z M11.004,22c-2.206,0-4.001,1.794-4.001,4c0,2.207,1.795,4.002,4.001,4.002
			s4.001-1.795,4.001-4.002C15.005,23.794,13.21,22,11.004,22z"/>
	</g>
	<g>
		<path fill="#E6E9ED" d="M52.996,32.002c-3.309,0-6.001-2.692-6.001-6.002c0-3.309,2.692-6,6.001-6s6.001,2.691,6.001,6
			C58.997,29.31,56.305,32.002,52.996,32.002z M52.996,22c-2.206,0-4.001,1.794-4.001,4c0,2.207,1.795,4.002,4.001,4.002
			s4.001-1.795,4.001-4.002C56.997,23.794,55.202,22,52.996,22z"/>
	</g>
</g>
</svg>
