<?xml version="1.0" encoding="utf-8"?>
<!-- Generator: Adobe Illustrator 16.0.0, SVG Export Plug-In . SVG Version: 6.00 Build 0)  -->
<!DOCTYPE svg PUBLIC "-//W3C//DTD SVG 1.1//EN" "http://www.w3.org/Graphics/SVG/1.1/DTD/svg11.dtd">
<svg version="1.1" id="icons" xmlns="http://www.w3.org/2000/svg" xmlns:xlink="http://www.w3.org/1999/xlink" x="0px" y="0px"
	 width="64px" height="64px" viewBox="0 0 64 64" enable-background="new 0 0 64 64" xml:space="preserve">
<g>
	<g>
		<polygon fill="#A0D468" points="41,48 41.07,51 32,51 22.93,51 23,48 		"/>
	</g>
	<g>
		<path fill="#A0D468" d="M41,31v11H23V31v-5h4c0.01,2.76,2.24,4.99,5,4.99s4.99-2.23,5-4.99h4V31z"/>
	</g>
	<g>
		<path fill="#EAC6BB" d="M36,26h1c-0.01,2.76-2.24,4.99-5,4.99s-4.99-2.23-5-4.99h1v-2.94C29.2,23.66,30.57,24,32,24
			s2.8-0.34,4-0.94V26z"/>
	</g>
	<g>
		<rect x="45" y="40" fill="#DA4453" width="18" height="6"/>
	</g>
	<g>
		<path fill="#ED5565" d="M45,40v6c0,1.1-0.89,2-2,2h-2H23h-2c-1.11,0-2-0.9-2-2v-6c0,1.1,0.89,2,2,2h2h18h2C44.11,42,45,41.1,45,40
			z"/>
	</g>
	<g>
		<path fill="#EAC6BB" d="M59,19c0,6.63-5.37,12-12,12h-5.93H41v-5h6c3.87,0,7-3.13,7-7v-0.5c0-1.38,1.12-2.5,2.5-2.5
			s2.5,1.12,2.5,2.5V19z"/>
	</g>
	<polygon fill="#EAC6BB" points="32,60 23.73,60 24,63 32,63 40,63 40.27,60 	"/>
	<polygon fill="#656D78" points="32,51 22.93,51 23.73,60 32,60 40.27,60 41.07,51 	"/>
	<g>
		<path fill="#656D78" d="M32,1c4.97,0,9,4.03,9,9v1.03L38,9c0,0-2.01,1-5.5,1S26,9,26,9l-3,2.03V10C23,5.03,27.03,1,32,1z"/>
	</g>
	<g>
		<g>
			<path fill="#545C66" d="M32,1c-0.513,0-1.012,0.053-1.502,0.135c3.94,0.664,7.013,3.879,7.444,7.892C37.966,9.016,38,9,38,9
				l3,2.03V10C41,5.03,36.97,1,32,1z"/>
		</g>
	</g>
	<g>
		<path fill="#EAC6BB" d="M10,18.5V19c0,3.87,3.13,7,7,7h6v5h-0.07H17c-6.63,0-12-5.37-12-12v-0.5C5,17.12,6.12,16,7.5,16
			S10,17.12,10,18.5z"/>
	</g>
	<g>
		<rect x="1" y="40" fill="#DA4453" width="18" height="6"/>
	</g>
	<g>
		<path fill="#EAC6BB" d="M38,9l3,2.03V15c0,3.53-2.04,6.59-5,8.06C34.8,23.66,33.43,24,32,24s-2.8-0.34-4-0.94
			c-2.96-1.47-5-4.529-5-8.06v-3.97L26,9c0,0,3.01,1,6.5,1S38,9,38,9z"/>
	</g>
	<g>
		<path fill="#D3B1A9" d="M38,9l-0.003,0.001V15c0,3.53-2.04,6.59-5,8.06c-0.771,0.386-1.616,0.649-2.499,0.8
			C30.989,23.942,31.488,24,32,24c1.43,0,2.8-0.34,4-0.94c2.96-1.47,5-4.529,5-8.06v-3.97L38,9z"/>
	</g>
	<polygon fill="#545C66" points="31,51 31,60 32,60 33,60 33,51 32,51 	"/>
	<polygon fill="#D3B1A9" points="32,60 31,60 31,63 32,63 33,63 33,60 	"/>
</g>
</svg>
