<?xml version="1.0" encoding="utf-8"?>
<!-- Generator: Adobe Illustrator 16.0.0, SVG Export Plug-In . SVG Version: 6.00 Build 0)  -->
<!DOCTYPE svg PUBLIC "-//W3C//DTD SVG 1.1//EN" "http://www.w3.org/Graphics/SVG/1.1/DTD/svg11.dtd">
<svg version="1.1" id="icons" xmlns="http://www.w3.org/2000/svg" xmlns:xlink="http://www.w3.org/1999/xlink" x="0px" y="0px"
	 width="64px" height="64px" viewBox="0 0 64 64" enable-background="new 0 0 64 64" xml:space="preserve">
<g>
	<path fill="#5D9CEC" d="M62.001,62c0,0.55-0.45,1-1,1H3c-0.55,0-1-0.45-1-1v-9c0-0.55,0.45-1,1-1h58.001c0.55,0,1,0.45,1,1V62z"/>
	<g>
		<g>
			<path fill="#CCD1D9" d="M54.501,1c-0.82,0-1.5,0.67-1.5,1.5V10v42v3v8h3v-8v-3V10V2.5C56.001,1.67,55.331,1,54.501,1z"/>
		</g>
		<g>
			<path fill="#CCD1D9" d="M9.49,1c-0.83,0-1.5,0.67-1.5,1.5V10v42v3v8h3v-8v-3V10V2.5C10.99,1.67,10.32,1,9.49,1z"/>
		</g>
	</g>
	<g>
		<rect x="32" y="55" fill="#4A89DC" width="21.001" height="8"/>
	</g>
	<g>
		<rect x="56.001" y="55" fill="#4A89DC" width="6" height="8"/>
	</g>
	<g>
		<rect x="10.99" y="55" fill="#4A89DC" width="21.01" height="8"/>
	</g>
	<g>
		<rect x="2" y="55" fill="#4A89DC" width="5.99" height="8"/>
	</g>
	<g>
		<path fill="#E6E9ED" d="M61.008,11H3c-0.553,0-1-0.447-1-1s0.447-1,1-1h58.008c0.553,0,1,0.447,1,1S61.561,11,61.008,11z"/>
	</g>
	<g>
		<path fill="#545C66" d="M32,63.999c-0.553,0-1-0.447-1-1V1c0-0.553,0.447-1,1-1s1,0.447,1,1v61.999
			C33,63.552,32.553,63.999,32,63.999z"/>
	</g>
	<g>
		<path fill="#656D78" d="M63,64H1c-0.553,0-1-0.447-1-1s0.447-1,1-1h62c0.553,0,1,0.447,1,1S63.553,64,63,64z"/>
	</g>
</g>
</svg>
