<?xml version="1.0" encoding="utf-8"?>
<!-- Generator: Adobe Illustrator 16.0.0, SVG Export Plug-In . SVG Version: 6.00 Build 0)  -->
<!DOCTYPE svg PUBLIC "-//W3C//DTD SVG 1.1//EN" "http://www.w3.org/Graphics/SVG/1.1/DTD/svg11.dtd">
<svg version="1.1" id="icons" xmlns="http://www.w3.org/2000/svg" xmlns:xlink="http://www.w3.org/1999/xlink" x="0px" y="0px"
	 width="64px" height="64px" viewBox="0 0 64 64" enable-background="new 0 0 64 64" xml:space="preserve">
<g>
	<g>
		<g>
			<path fill="#965353" d="M35.495,44.506c3.03,0,5.5,2.461,5.5,5.5c0,3.031-2.47,5.5-5.5,5.5c-3.04,0-5.5-2.469-5.5-5.5
				C29.995,46.967,32.455,44.506,35.495,44.506z"/>
		</g>
		<g>
			<rect x="42.995" y="13.506" fill="#656D78" width="4" height="19"/>
		</g>
		<g>
			<rect x="42.995" y="32.506" fill="#965353" width="4" height="12"/>
		</g>
		<g>
			<rect x="42.995" y="4.496" fill="#965353" width="4" height="9.01"/>
		</g>
		<g>
			<path fill="#844747" d="M54.495,44.506c3.04,0,5.5,2.461,5.5,5.5c0,3.031-2.46,5.5-5.5,5.5h-19c3.03,0,5.5-2.469,5.5-5.5
				c0-3.039-2.47-5.5-5.5-5.5h7.5h4H54.495z"/>
		</g>
		<g>
			<path fill="#ED5565" d="M18.996,43.506c-3.87,0-7,3.129-7,7c0,3.859,3.13,7,7,7c3.86,0,7-3.141,7-7
				C25.996,46.635,22.856,43.506,18.996,43.506z"/>
		</g>
	</g>
	<g>
		<path fill="#E6E9ED" d="M21.001,33.502H5.003c-0.553,0-1-0.447-1-1s0.447-1,1-1h15.998c0.553,0,1,0.447,1,1
			S21.554,33.502,21.001,33.502z"/>
	</g>
	<g>
		<path fill="#E6E9ED" d="M21.001,59.502c-0.553,0-1-0.447-1-1v-26c0-0.553,0.447-1,1-1s1,0.447,1,1v26
			C22.001,59.055,21.554,59.502,21.001,59.502z"/>
	</g>
	<g>
		<path fill="#E6E9ED" d="M5.003,59.502c-0.553,0-1-0.447-1-1v-26c0-0.553,0.447-1,1-1s1,0.447,1,1v26
			C6.003,59.055,5.556,59.502,5.003,59.502z"/>
	</g>
	<g>
		<path fill="#A0D468" d="M63,59.504H1c-0.553,0-1-0.447-1-1s0.447-1,1-1h62c0.553,0,1,0.447,1,1S63.553,59.504,63,59.504z"/>
	</g>
</g>
</svg>
