<?xml version="1.0" encoding="utf-8"?>
<!-- Generator: Adobe Illustrator 16.0.0, SVG Export Plug-In . SVG Version: 6.00 Build 0)  -->
<!DOCTYPE svg PUBLIC "-//W3C//DTD SVG 1.1//EN" "http://www.w3.org/Graphics/SVG/1.1/DTD/svg11.dtd">
<svg version="1.1" id="icons" xmlns="http://www.w3.org/2000/svg" xmlns:xlink="http://www.w3.org/1999/xlink" x="0px" y="0px"
	 width="64px" height="64px" viewBox="0 0 64 64" enable-background="new 0 0 64 64" xml:space="preserve">
<g>
	<g>
		<path fill="#CCD1D9" d="M48.99,12.521v12.26C48.02,24.601,47.02,24.51,46,24.51h-0.01V12.521H48.99z"/>
	</g>
	<g>
		<path fill="#E6E9ED" d="M32.138,43.52c0.074,0.545-0.315,0.99-0.865,0.99H2c-0.55,0-1-0.45-1-1v-1c0-0.55,0.45-1,1-1l0,0
			c0.55,0,1.45,0,2,0h27.003C31.553,41.51,32.063,42.976,32.138,43.52z"/>
	</g>
	<g>
		<rect x="3" y="12.521" fill="#CCD1D9" width="3" height="28.979"/>
	</g>
	<g>
		<path fill="#5D9CEC" d="M49.99,5.49c0.55,0,1,0.45,1,1v5.02c0,0.55-0.45,1-1,1l0,0c-0.55,0-1.45,0-2,0H7c-0.55,0-1.45,0-2,0H2
			c-0.55,0-1-0.45-1-1V6.49c0-0.55,0.45-1,1-1H49.99z"/>
	</g>
	<g>
		<path fill="#656D78" d="M29.27,44.51c-0.18-0.979-0.27-1.979-0.27-3c0-9.39,7.6-16.989,16.99-17H46c1.02,0,2.02,0.091,2.99,0.271
			C56.95,26.181,63,33.141,63,41.51c0,9.391-7.61,17-17,17C37.63,58.51,30.68,52.47,29.27,44.51z M48.029,50.51h7.961v-3v-1
			c0-2.22-1.79-4-4-4h-1v-3v-2l-6-6l-5.49,5.5l-2.5,2.5L48.029,50.51z"/>
	</g>
	<g>
		<path fill="#CCD1D9" d="M48.033,50.502H36.997c-0.553,0-1-0.447-1-1s0.447-1,1-1h11.036c0.553,0,1,0.447,1,1
			S48.586,50.502,48.033,50.502z"/>
	</g>
	<g>
		<polygon fill="#E6E9ED" points="50.029,47.51 55.99,47.51 55.99,50.51 48.029,50.51 37,39.51 39.5,37.01 		"/>
	</g>
	<g>
		<path fill="#ED5565" d="M55.99,46.51v1h-5.961L39.5,37.01l5.49-5.5l6,6v2v3h1C54.2,42.51,55.99,44.29,55.99,46.51z"/>
	</g>
	<path fill="#E6E9ED" d="M49.992,38.503c-0.553,0-1,0.447-1,1s0.447,1,1,1h0.999v-2H49.992z"/>
</g>
</svg>
