<?xml version="1.0" encoding="utf-8"?>
<!-- Generator: Adobe Illustrator 16.0.0, SVG Export Plug-In . SVG Version: 6.00 Build 0)  -->
<!DOCTYPE svg PUBLIC "-//W3C//DTD SVG 1.1//EN" "http://www.w3.org/Graphics/SVG/1.1/DTD/svg11.dtd">
<svg version="1.1" id="icons" xmlns="http://www.w3.org/2000/svg" xmlns:xlink="http://www.w3.org/1999/xlink" x="0px" y="0px"
	 width="64px" height="64px" viewBox="0 0 64 64" enable-background="new 0 0 64 64" xml:space="preserve">
<g>
	<rect x="17.995" y="1" fill="#CCD1D9" width="28" height="62"/>
	<g>
		<path fill="#656D78" d="M42.995,5c0,0.55,0,1.45,0,2v9c0,0.55-0.45,1-1,1h-20c-0.55,0-1-0.45-1-1V4c0-0.55,0.45-1,1-1h20
			c0.55,0,1,0.45,1,1V5z"/>
	</g>
	<g>
		<path fill="#656D78" d="M24.005,53v2h-0.01c0,2.39,1.05,4.53,2.71,6h-3.7c-1.11,0-2-0.891-2-2V46l0.991-1h2.009V53z"/>
	</g>
	<g>
		<path fill="#967ADC" d="M39.995,45v8h-4v-0.01V51c0-0.91-0.41-1.74-1.061-2.28c0.65-0.71,1.061-1.66,1.061-2.72v-6
			c0-0.91-0.41-1.73-1.061-2.28c0.65-0.71,1.061-1.66,1.061-2.72v-6c0-0.91-0.41-1.73-1.061-2.28c0.65-0.71,1.061-1.66,1.061-2.72
			v-5.99c0-0.92-0.41-1.74-1.061-2.29c0.65-0.71,1.061-1.66,1.061-2.72c0-2.21-1.79-4-4-4V6h8v11V45z"/>
	</g>
	<g>
		<path fill="#656D78" d="M31.995,50c1.159,0,2.199-0.49,2.939-1.28c0.65,0.54,1.061,1.37,1.061,2.28v1.99V53h-7.99v-0.01V51
			c0-0.92,0.41-1.74,1.06-2.28C29.795,49.51,30.835,50,31.995,50z"/>
	</g>
	<g>
		<rect x="24.005" y="3" fill="#AC92EC" width="7.99" height="3"/>
	</g>
	<g>
		<path fill="#967ADC" d="M28.005,52.99V53h-4v-8V17V6h7.99v3c-2.211,0-4,1.79-4,4c0,1.06,0.409,2.01,1.069,2.72
			c-0.649,0.55-1.06,1.37-1.06,2.28v5.8c-0.01,0.07-0.01,0.13-0.01,0.2c0,1.06,0.409,2.01,1.069,2.72
			c-0.649,0.55-1.06,1.37-1.06,2.28v5.8c-0.01,0.07-0.01,0.13-0.01,0.2c0,1.06,0.409,2.01,1.069,2.72
			c-0.649,0.55-1.06,1.37-1.06,2.28v5.8c-0.01,0.07-0.01,0.13-0.01,0.2c0,1.06,0.409,2.01,1.069,2.72
			c-0.649,0.54-1.06,1.36-1.06,2.28V52.99z"/>
	</g>
	<g>
		<path fill="#656D78" d="M35.995,24c0-2.21-1.79-4-4-4c-2.141,0-3.891,1.68-3.99,3.8V18c0-0.91,0.41-1.73,1.06-2.28
			c0.73,0.79,1.771,1.28,2.931,1.28c1.159,0,2.199-0.49,2.939-1.28c0.65,0.55,1.061,1.37,1.061,2.29V24z"/>
	</g>
	<g>
		<path fill="#AC92EC" d="M39.995,53v2c0,2.39-1.04,4.53-2.7,6h-0.011c-1.409,1.25-3.26,2-5.289,2c-2.03,0-3.881-0.75-5.28-2h-0.01
			c-1.66-1.47-2.71-3.61-2.71-6h0.01v-2h4h7.99H39.995z"/>
	</g>
	<g>
		<rect x="45.995" y="1" fill="#E6E9ED" width="3.01" height="62"/>
	</g>
	<g>
		<path fill="#E6E9ED" d="M31.995,9c2.21,0,4,1.79,4,4c0,1.06-0.41,2.01-1.061,2.72c-0.74,0.79-1.78,1.28-2.939,1.28
			c-1.16,0-2.2-0.49-2.931-1.28c-0.66-0.71-1.069-1.66-1.069-2.72C27.995,10.79,29.784,9,31.995,9z"/>
	</g>
	<g>
		<path fill="#656D78" d="M35.995,46c0-2.21-1.79-4-4-4c-2.141,0-3.891,1.68-3.99,3.8V40c0-0.91,0.41-1.73,1.06-2.28
			c0.73,0.79,1.771,1.28,2.931,1.28c1.159,0,2.199-0.49,2.939-1.28c0.65,0.55,1.061,1.37,1.061,2.28V46z"/>
	</g>
	<g>
		<path fill="#E6E9ED" d="M28.005,23.8c0.1-2.12,1.85-3.8,3.99-3.8c2.21,0,4,1.79,4,4c0,1.06-0.41,2.01-1.061,2.72
			c-0.74,0.79-1.78,1.28-2.939,1.28c-1.16,0-2.2-0.49-2.931-1.28c-0.66-0.71-1.069-1.66-1.069-2.72
			C27.995,23.93,27.995,23.87,28.005,23.8z"/>
	</g>
	<g>
		<path fill="#E6E9ED" d="M28.005,45.8c0.1-2.12,1.85-3.8,3.99-3.8c2.21,0,4,1.79,4,4c0,1.06-0.41,2.01-1.061,2.72
			c-0.74,0.79-1.78,1.28-2.939,1.28c-1.16,0-2.2-0.49-2.931-1.28c-0.66-0.71-1.069-1.66-1.069-2.72
			C27.995,45.93,27.995,45.87,28.005,45.8z"/>
	</g>
	<g>
		<rect x="31.995" y="3" fill="#AC92EC" width="8" height="3"/>
	</g>
	<g>
		<path fill="#656D78" d="M42.995,46v13c0,1.109-0.891,2-2,2h-3.7c1.66-1.47,2.7-3.61,2.7-6v-2v-8h2.001L42.995,46z"/>
	</g>
	<g>
		<path fill="#656D78" d="M35.995,35c0-2.21-1.79-4-4-4c-2.141,0-3.891,1.68-3.99,3.8V29c0-0.91,0.41-1.73,1.06-2.28
			c0.73,0.79,1.771,1.28,2.931,1.28c1.159,0,2.199-0.49,2.939-1.28c0.65,0.55,1.061,1.37,1.061,2.28V35z"/>
	</g>
	<g>
		<path fill="#E6E9ED" d="M28.005,34.8c0.1-2.12,1.85-3.8,3.99-3.8c2.21,0,4,1.79,4,4c0,1.06-0.41,2.01-1.061,2.72
			c-0.74,0.79-1.78,1.28-2.939,1.28c-1.16,0-2.2-0.49-2.931-1.28c-0.66-0.71-1.069-1.66-1.069-2.72
			C27.995,34.93,27.995,34.87,28.005,34.8z"/>
	</g>
	<g>
		<rect x="14.995" y="1" fill="#E6E9ED" width="3" height="62"/>
	</g>
	<path fill="#967ADC" d="M26.002,3V2.001c0-0.553-0.447-1-1-1s-1,0.447-1,1V3H26.002z"/>
	<path fill="#967ADC" d="M39.995,3V2.001c0-0.553-0.447-1-1-1s-1,0.447-1,1V3H39.995z"/>
	<rect x="30.999" y="3.001" fill="#967ADC" width="2" height="3.001"/>
	<circle fill="#656D78" cx="22.005" cy="46" r="1"/>
	<circle fill="#656D78" cx="41.995" cy="46" r="1"/>
</g>
</svg>
