<?xml version="1.0" encoding="utf-8"?>
<!-- Generator: Adobe Illustrator 16.0.0, SVG Export Plug-In . SVG Version: 6.00 Build 0)  -->
<!DOCTYPE svg PUBLIC "-//W3C//DTD SVG 1.1//EN" "http://www.w3.org/Graphics/SVG/1.1/DTD/svg11.dtd">
<svg version="1.1" id="icons" xmlns="http://www.w3.org/2000/svg" xmlns:xlink="http://www.w3.org/1999/xlink" x="0px" y="0px"
	 width="64px" height="64px" viewBox="0 0 64 64" enable-background="new 0 0 64 64" xml:space="preserve">
<g>
	<g>
		<path fill="#AAB2BD" d="M40.988,49.499H27.004c-0.553,0-1-0.447-1-1s0.447-1,1-1h13.984c0.553,0,1,0.447,1,1
			S41.541,49.499,40.988,49.499z"/>
	</g>
	<g>
		<path fill="#AAB2BD" d="M40.99,31.505H30.008c-0.553,0-1-0.447-1-1s0.447-1,1-1H40.99c0.553,0,1,0.447,1,1
			S41.543,31.505,40.99,31.505z"/>
	</g>
	<g>
		<path fill="#AAB2BD" d="M40.988,49.499c-0.553,0-1-0.447-1-1s0.447-1,1-1c4.41,0,8-3.589,8-8s-3.59-8-8-8c-0.553,0-1-0.447-1-1
			s0.447-1,1-1c5.514,0,10,4.486,10,10S46.502,49.499,40.988,49.499z"/>
	</g>
	<g>
		<path fill="#AAB2BD" d="M30,31.501c-5.514,0-10-4.486-10-10s4.486-10,10-10c0.553,0,1,0.447,1,1s-0.447,1-1,1c-4.41,0-8,3.589-8,8
			s3.59,8,8,8c0.553,0,1,0.447,1,1S30.553,31.501,30,31.501z"/>
	</g>
	<g>
		<path fill="#AAB2BD" d="M48,13.501H30c-0.553,0-1-0.447-1-1s0.447-1,1-1h18c0.553,0,1,0.447,1,1S48.553,13.501,48,13.501z"/>
	</g>
	<g>
		<path fill="#CCD1D9" d="M23,52.5c-0.186,0-0.367-0.013-0.547-0.038c-0.547-0.075-0.928-0.58-0.852-1.128
			c0.074-0.547,0.584-0.934,1.127-0.853c0.09,0.012,0.18,0.019,0.271,0.019c1.104,0,2-0.897,2-2s-0.896-2-2-2
			c-0.092,0-0.186,0.006-0.275,0.018c-0.557,0.073-1.051-0.313-1.121-0.86c-0.072-0.547,0.313-1.05,0.859-1.122
			C22.639,44.512,22.818,44.5,23,44.5c2.207,0,4,1.794,4,4S25.207,52.5,23,52.5z"/>
	</g>
	<g>
		<g>
			<polygon fill="#656D78" points="62.996,4.5 62.996,20.5 60.006,20.5 59.996,20.5 59.996,4.5 			"/>
		</g>
		<g>
			<path fill="#CCD1D9" d="M22.996,45.5c1.66,0,3,1.34,3,3s-1.34,3-3,3c-0.129,0-0.27-0.01-0.41-0.03
				c0.271-0.95,0.41-1.939,0.41-2.97s-0.139-2.03-0.41-2.98h0.01C22.727,45.51,22.867,45.5,22.996,45.5z"/>
		</g>
		<g>
			<path fill="#E6E9ED" d="M22.996,48.5c0,1.03-0.139,2.02-0.41,2.97c-1.289,4.63-5.539,8.03-10.59,8.03c-6.07,0-11-4.931-11-11
				c0-6.08,4.93-11,11-11c5.051,0,9.291,3.39,10.59,8.02C22.857,46.47,22.996,47.47,22.996,48.5z"/>
		</g>
	</g>
	<g>
		<path fill="#E6E9ED" d="M12,60.499c-6.617,0-12-5.383-12-12s5.383-12,12-12s12,5.383,12,12S18.617,60.499,12,60.499z M12,38.499
			c-5.514,0-10,4.486-10,10s4.486,10,10,10s10-4.486,10-10S17.514,38.499,12,38.499z"/>
	</g>
	<g>
		<path fill="#E6E9ED" d="M56,21.501c-4.963,0-9-4.037-9-9s4.037-9,9-9c0.553,0,1,0.447,1,1s-0.447,1-1,1c-3.859,0-7,3.141-7,7
			s3.141,7,7,7c0.553,0,1,0.447,1,1S56.553,21.501,56,21.501z"/>
	</g>
	<g>
		<path fill="#E6E9ED" d="M60.004,21.501H56c-0.553,0-1-0.447-1-1s0.447-1,1-1h4.004c0.553,0,1,0.447,1,1
			S60.557,21.501,60.004,21.501z"/>
	</g>
	<g>
		<path fill="#E6E9ED" d="M60,5.501h-4c-0.553,0-1-0.447-1-1s0.447-1,1-1h4c0.553,0,1,0.447,1,1S60.553,5.501,60,5.501z"/>
	</g>
	<g>
		<path fill="#656D78" d="M63,21.501h-3c-0.553,0-1-0.447-1-1v-16c0-0.553,0.447-1,1-1h3c0.553,0,1,0.447,1,1v16
			C64,21.054,63.553,21.501,63,21.501z M61,19.501h1v-14h-1V19.501z"/>
	</g>
</g>
</svg>
