<?xml version="1.0" encoding="utf-8"?>
<!-- Generator: Adobe Illustrator 16.0.0, SVG Export Plug-In . SVG Version: 6.00 Build 0)  -->
<!DOCTYPE svg PUBLIC "-//W3C//DTD SVG 1.1//EN" "http://www.w3.org/Graphics/SVG/1.1/DTD/svg11.dtd">
<svg version="1.1" id="icons" xmlns="http://www.w3.org/2000/svg" xmlns:xlink="http://www.w3.org/1999/xlink" x="0px" y="0px"
	 width="64px" height="64px" viewBox="0 0 64 64" enable-background="new 0 0 64 64" xml:space="preserve">
<g>
	<g>
		<g>
			<path fill="#EAC6BB" d="M37.996,23.456v4.99c0,2.96-1.609,5.55-4,6.93v18.08h-8v-18.08c-2.391-1.38-4-3.97-4-6.93v-4.99v-2.01
				h4.01h1.99c1.109,0,2,0.899,2,2v0.01c0,1.1,0.9,2,2,2c1.109,0,2-0.9,2-2c0,1.1,0.9,2,2,2S37.996,24.556,37.996,23.456z"/>
		</g>
		<path fill="#D3B1A9" d="M37.996,21.97c-0.455-0.612-1.178-1.014-2-1.014c-1.381,0-2.5,1.119-2.5,2.5s1.119,2.5,2.5,2.5
			c0.822,0,1.545-0.401,2-1.014V21.97z"/>
		<circle fill="#D3B1A9" cx="31.996" cy="23.456" r="2.5"/>
		<g>
			<path fill="#EAC6BB" d="M33.996,19.446v4.01c0,1.1-0.891,2-2,2c-1.1,0-2-0.9-2-2v-0.01v-4c0-1.101,0.9-2,2-2
				C33.105,17.446,33.996,18.346,33.996,19.446z"/>
		</g>
		<g>
			<path fill="#EAC6BB" d="M26.006,19.446v2h-4.01v-1v-1c0-1.101,0.9-2,2-2c1.08,0,1.951,0.84,2.01,1.899
				C26.006,19.376,26.006,19.416,26.006,19.446z"/>
		</g>
		<g>
			<path fill="#EAC6BB" d="M37.996,20.446v3.01c0,1.1-0.9,2-2,2s-2-0.9-2-2v-4.01c0-1.101,0.9-2,2-2c1.109,0,2,0.899,2,2V20.446z"/>
		</g>
		<g>
			<path fill="#EAC6BB" d="M29.996,19.446v4c0-1.101-0.891-2-2-2h-1.99v-2c0-0.03,0-0.07,0-0.101c0.051-1.06,0.92-1.899,1.99-1.899
				C29.105,17.446,29.996,18.346,29.996,19.446z"/>
		</g>
		<rect x="25.488" y="25.453" fill="#D3B1A9" width="0.5" height="2.16"/>
		<circle fill="#D3B1A9" cx="25.738" cy="27.613" r="0.25"/>
		<path fill="#D3B1A9" d="M33.746,24.405c0.154-0.284,0.25-0.604,0.25-0.949c0,0.344,0.096,0.663,0.25,0.946V18.5
			c-0.154,0.283-0.25,0.603-0.25,0.946c0-0.345-0.096-0.665-0.25-0.949V24.405z"/>
		<path fill="#D3B1A9" d="M29.746,24.405c0.154-0.284,0.25-0.604,0.25-0.949c0,0.344,0.096,0.663,0.25,0.946V18.5
			c-0.154,0.283-0.25,0.603-0.25,0.946c0-0.345-0.096-0.665-0.25-0.949V24.405z"/>
		<path fill="#D3B1A9" d="M25.746,24.405c0.154-0.284,0.25-0.604,0.25-0.949c0,0.344,0.096,0.663,0.25,0.946V18.5
			c-0.154,0.283-0.25,0.603-0.25,0.946c0-0.345-0.096-0.665-0.25-0.949V24.405z"/>
		<path fill="#D3B1A9" d="M27.99,20.95h-6v1h6c0.828,0,1.5,0.673,1.5,1.5c0,0.829-0.672,1.503-1.5,1.503h-2.002
			c-0.275,0-0.5,0.224-0.5,0.5v0.5h1h1.135h0.367c1.379,0,2.5-1.123,2.5-2.503C30.49,22.071,29.369,20.95,27.99,20.95z"/>
		<path fill="#EAC6BB" d="M27.994,21.456h-6.012v4h5.012h1c1.1,0,2-0.891,2-2C29.994,22.355,29.094,21.456,27.994,21.456z"/>
	</g>
	<g>
		<g>
			<polygon fill="#E6E9ED" points="62,20.456 64,21.956 62,23.466 45,23.466 45,23.456 45,20.456 			"/>
		</g>
		<g>
			<polygon fill="#656D78" points="45,23.456 45,23.466 37.99,23.466 37.99,20.456 45,20.456 			"/>
		</g>
		<g>
			<polygon fill="#656D78" points="21.99,21.456 21.99,23.466 15.01,23.466 15.01,23.456 15.01,20.456 21.99,20.456 			"/>
		</g>
		<g>
			<polygon fill="#E6E9ED" points="15.01,23.456 15.01,23.466 1,23.466 1,20.456 15.01,20.456 			"/>
		</g>
	</g>
	<g>
		<path fill="#E6E9ED" d="M1,23.694c-0.553,0-1-0.447-1-1v-1.158c0-0.553,0.447-1,1-1s1,0.447,1,1v1.158
			C2,23.247,1.553,23.694,1,23.694z"/>
	</g>
	<g>
		<path fill="#E6E9ED" d="M30.014,12.544H11.006c-0.553,0-1-0.447-1-1s0.447-1,1-1h19.008c0.553,0,1,0.447,1,1
			S30.566,12.544,30.014,12.544z"/>
	</g>
	<g>
		<path fill="#E6E9ED" d="M58.002,29.543H45c-0.553,0-1-0.447-1-1s0.447-1,1-1h13.002c0.553,0,1,0.447,1,1
			S58.555,29.543,58.002,29.543z"/>
	</g>
	<g>
		<path fill="#E6E9ED" d="M48.992,33.547h-7.996c-0.553,0-1-0.447-1-1s0.447-1,1-1h7.996c0.553,0,1,0.447,1,1
			S49.545,33.547,48.992,33.547z"/>
	</g>
	<g>
		<path fill="#E6E9ED" d="M13.006,16.534H5.004c-0.553,0-1-0.447-1-1s0.447-1,1-1h8.002c0.553,0,1,0.447,1,1
			S13.559,16.534,13.006,16.534z"/>
	</g>
</g>
</svg>
