<?xml version="1.0" encoding="utf-8"?>
<!-- Generator: Adobe Illustrator 16.0.0, SVG Export Plug-In . SVG Version: 6.00 Build 0)  -->
<!DOCTYPE svg PUBLIC "-//W3C//DTD SVG 1.1//EN" "http://www.w3.org/Graphics/SVG/1.1/DTD/svg11.dtd">
<svg version="1.1" id="icons" xmlns="http://www.w3.org/2000/svg" xmlns:xlink="http://www.w3.org/1999/xlink" x="0px" y="0px"
	 width="64px" height="64px" viewBox="0 0 64 64" enable-background="new 0 0 64 64" xml:space="preserve">
<g>
	<g>
		<path fill="#E6E9ED" d="M61.99,23.993c0.55,0,1,0.45,1,1v3.01c0,0.55-0.45,1-1,1h-2.001c-0.55,0-1-0.45-1-1v-3.01
			c0-0.55,0.45-1,1-1H61.99z"/>
	</g>
	<g>
		<path fill="#EAC6BB" d="M10,23.993h0.01v1.01v0.01h-6v-1.02H4c0-1.65,1.34-3,3-3S10,22.343,10,23.993z"/>
	</g>
	<g>
		<path fill="#ED5565" d="M53.99,3.003v46c0,1.1-0.9,2-2,2h-2c-1.101,0-2-0.9-2-2v-20v-5.01V3.003c0-1.1,0.899-2,2-2h2
			C53.09,1.003,53.99,1.903,53.99,3.003z"/>
	</g>
	<g>
		<path fill="#EAC6BB" d="M22,28.013c0,0.03,0,0.05,0.01,0.08c-0.04,1.62-1.38,2.92-3.01,2.92c-1.62,0-2.96-1.3-2.99-2.92
			c0-0.03,0-0.05,0-0.08c0-0.05,0-0.1-0.01-0.149l0.01-3.86L16,23.993c0-1.65,1.34-3,3-3c1.65,0,3,1.35,3,3l0.01,0.01l-0.01,4
			V28.013z"/>
	</g>
	<g>
		<path fill="#EAC6BB" d="M22.01,28.093C22,28.063,22,28.043,22,28.013v-0.01l0.01-4L22,23.993c0-1.65,1.35-3,3-3c1.66,0,3,1.35,3,3
			h0.02v4.02H28c0,1.66-1.34,3-3,3C23.38,31.013,22.04,29.713,22.01,28.093z"/>
	</g>
	<g>
		<path fill="#EAC6BB" d="M28.02,29.003v7.01c0,4.01-1.97,7.57-5,9.75v17.23h-14v-17.21C5.98,43.603,4,40.033,4,36.013v-7.01v-1
			l0.01-2.99h6h3c1.601,0,2.92,1.271,2.99,2.851c0.01,0.05,0.01,0.1,0.01,0.149c0,0.03,0,0.05,0,0.08c0.03,1.62,1.37,2.92,2.99,2.92
			c1.63,0,2.97-1.3,3.01-2.92c0.03,1.62,1.37,2.92,2.99,2.92c1.66,0,3-1.34,3-3h0.02V29.003z"/>
	</g>
	<g>
		<polygon fill="#E6E9ED" points="47.99,23.993 47.99,29.003 28.02,29.003 28.02,28.013 28.02,23.993 		"/>
	</g>
	<g>
		<path fill="#EAC6BB" d="M16.01,24.003L16,27.863c-0.07-1.58-1.39-2.851-2.99-2.851h-3v-0.01v-1.01H10c0-1.65,1.34-3,3-3
			c1.65,0,3,1.35,3,3L16.01,24.003z"/>
	</g>
	<g>
		<path fill="#DA4453" d="M59.99,29.003v20c0,1.1-0.9,2-2,2H56c-1.1,0-2-0.9-2-2v-46c0-1.1,0.9-2,2-2h1.99c1.1,0,2,0.9,2,2v20.99
			V29.003z"/>
	</g>
	<g>
		<polygon fill="#E6E9ED" points="3.99,23.993 4,23.993 4.01,23.993 4.01,25.013 4,28.003 4,29.003 3.99,29.003 1.01,29.003 
			1.01,23.993 		"/>
	</g>
	<g>
		<g>
			<path fill="#656D78" d="M41.996,51.999c-0.553,0-1-0.447-1-1V33.994c0-0.553,0.447-1,1-1s1,0.447,1,1v17.005
				C42.996,51.552,42.549,51.999,41.996,51.999z"/>
		</g>
		<g>
			<path fill="#656D78" d="M43.996,36.993c-0.256,0-0.512-0.098-0.707-0.293l-2-1.999c-0.391-0.391-0.391-1.023,0-1.414
				s1.023-0.391,1.414,0l2,1.999c0.391,0.391,0.391,1.023,0,1.414C44.508,36.896,44.252,36.993,43.996,36.993z"/>
		</g>
		<g>
			<path fill="#656D78" d="M39.998,36.993c-0.256,0-0.512-0.098-0.707-0.293c-0.391-0.391-0.391-1.023,0-1.414l1.998-1.999
				c0.391-0.391,1.023-0.391,1.414,0s0.391,1.023,0,1.414L40.705,36.7C40.51,36.896,40.254,36.993,39.998,36.993z"/>
		</g>
		<g>
			<path fill="#656D78" d="M33.992,51.999c-0.553,0-1-0.447-1-1V33.994c0-0.553,0.447-1,1-1s1,0.447,1,1v17.005
				C34.992,51.552,34.545,51.999,33.992,51.999z"/>
		</g>
		<g>
			<path fill="#656D78" d="M35.992,36.993c-0.256,0-0.512-0.098-0.707-0.293l-2-1.999c-0.391-0.391-0.391-1.023,0-1.414
				s1.023-0.391,1.414,0l2,1.999c0.391,0.391,0.391,1.023,0,1.414C36.504,36.896,36.248,36.993,35.992,36.993z"/>
		</g>
		<g>
			<path fill="#656D78" d="M31.994,36.993c-0.256,0-0.512-0.098-0.707-0.293c-0.391-0.391-0.391-1.023,0-1.414l1.998-1.999
				c0.391-0.391,1.023-0.391,1.414,0s0.391,1.023,0,1.414L32.701,36.7C32.506,36.896,32.25,36.993,31.994,36.993z"/>
		</g>
	</g>
	<g>
		<path fill="#EAC6BB" d="M12.995,21.003c-1.66,0-3,1.34-3,3c0-1.66-1.341-3-3-3c-1.66,0-3,1.34-3,3h0.01v1.02v1.99v0.99v7.01v1
			h-0.01c0,4.029,1.979,7.59,5.02,9.77v17.195v0.02h14v-0.02V45.763c3.03-2.182,5-5.73,5-9.75v-7.99v-4.02h-0.01c0-1.66-1.351-3-3-3
			c-1.66,0-3.01,1.34-3.01,3c0-1.66-1.341-3-3-3c-1.66,0-3,1.34-3,3C15.995,22.343,14.654,21.003,12.995,21.003z"/>
		<path fill="#EAC6BB" d="M12.995,21.003c-1.66,0-3,1.34-3,3c0-1.66-1.341-3-3-3c-1.66,0-3,1.34-3,3h0.01v1.02v1.99v0.99v7.01v1
			h-0.01c0,4.029,1.979,7.59,5.02,9.77v17.195v0.02h14v-0.02V45.763c3.03-2.182,5-5.73,5-9.75v-7.99v-4.02h-0.01c0-1.66-1.351-3-3-3
			c-1.66,0-3.01,1.34-3.01,3c0-1.66-1.341-3-3-3c-1.66,0-3,1.34-3,3C15.995,22.343,14.654,21.003,12.995,21.003z"/>
		<circle fill="#D3B1A9" cx="19.01" cy="28.093" r="4"/>
		<path fill="#D3B1A9" d="M28.01,25.472v5.242c-0.733,0.838-1.798,1.379-3,1.379c-2.21,0-4-1.791-4-4c0-2.211,1.79-4,4-4
			C26.212,24.093,27.276,24.632,28.01,25.472z"/>
		<path fill="#EAC6BB" d="M19.005,31.091c1.63,0,2.97-1.309,3.01-2.92c-0.01-0.029-0.01-0.049-0.01-0.08v-0.02l0.01-4h-0.01
			c0-1.66-1.351-3-3-3c-1.66,0-3,1.34-3,3h0.01l-0.01,3.871c0.01,0.049,0.01,0.1,0.01,0.148c0,0.031,0,0.051,0,0.08
			C16.045,29.782,17.385,31.091,19.005,31.091z"/>
		<path fill="#EAC6BB" d="M22.015,28.171c0.03,1.611,1.37,2.92,2.99,2.92c1.659,0,3-1.35,3-3h0.02v-0.02v-3h-0.01v-1h-0.01
			c0-1.66-1.341-3-3-3c-1.65,0-3,1.34-3,3h0.01l-0.01,4v0.02C22.005,28.122,22.005,28.142,22.015,28.171z"/>
		<path fill="#EAC6BB" d="M4.015,25.081h6v-0.01v-1h-0.01c0-1.66-1.341-3-3-3c-1.61,0-2.921,1.26-2.99,2.85v1.15V25.081z"/>
		<path fill="#EAC6BB" d="M13.015,25.091c1.6,0,2.92,1.26,2.99,2.852l0.01-3.871h-0.01c0-1.66-1.351-3-3-3c-1.66,0-3,1.34-3,3h0.01
			v1v0.01h3V25.091z"/>
		<circle fill="#D3B1A9" cx="13.01" cy="28.093" r="4"/>
		<path fill="#EAC6BB" d="M16.018,28.097c0-1.629-1.31-2.969-2.92-3.01c-0.03,0.01-0.05,0.01-0.08,0.01h-0.02l-4-0.01v0.01
			c-1.66,0-3,1.352-3,3c0,1.66,1.34,3,3,3v-0.01l3.87,0.01c0.05-0.01,0.1-0.01,0.149-0.01c0.03,0,0.05,0,0.08,0
			C14.708,31.058,16.018,29.718,16.018,28.097z"/>
		<rect x="4.015" y="24.093" fill="#D3B1A9" width="8.995" height="1"/>
		<rect x="10.508" y="31.091" fill="#D3B1A9" width="2.502" height="1"/>
		<polygon fill="#D3B1A9" points="9.508,36.083 9.508,31.591 10.005,31.091 10.508,31.091 10.508,36.083 		"/>
		<circle fill="#D3B1A9" cx="10.005" cy="36.083" r="0.5"/>
		<circle fill="#D3B1A9" cx="10.005" cy="31.591" r="0.5"/>
		<path fill="#D3B1A9" d="M22.015,28.171c-0.015,0.582-0.203,1.123-0.51,1.578v-7.33c0.314,0.475,0.5,1.041,0.5,1.652
			c0-0.611,0.186-1.178,0.5-1.652v7.311C22.208,29.276,22.025,28.745,22.015,28.171z"/>
		<path fill="#D3B1A9" d="M10.505,24.415h-1v-1.996c0.314,0.475,0.5,1.041,0.5,1.652c0-0.611,0.186-1.178,0.5-1.652V24.415z"/>
		<path fill="#D3B1A9" d="M16.505,26.878l-1-0.828v-3.631c0.314,0.475,0.5,1.041,0.5,1.652c0-0.611,0.186-1.178,0.5-1.652V26.878z"
			/>
	</g>
</g>
</svg>
