<?xml version="1.0" encoding="utf-8"?>
<!-- Generator: Adobe Illustrator 16.0.0, SVG Export Plug-In . SVG Version: 6.00 Build 0)  -->
<!DOCTYPE svg PUBLIC "-//W3C//DTD SVG 1.1//EN" "http://www.w3.org/Graphics/SVG/1.1/DTD/svg11.dtd">
<svg version="1.1" id="icons" xmlns="http://www.w3.org/2000/svg" xmlns:xlink="http://www.w3.org/1999/xlink" x="0px" y="0px"
	 width="64px" height="64px" viewBox="0 0 64 64" enable-background="new 0 0 64 64" xml:space="preserve">
<g>
	<g>
		<path fill="#CCD1D9" d="M52.748,35.383c-0.258,0-0.516-0.099-0.711-0.297c-0.389-0.393-0.385-1.026,0.008-1.414
			c0.957-0.946,1.781-2.012,2.448-3.168c0.276-0.479,0.888-0.643,1.366-0.366s0.643,0.888,0.366,1.366
			c-0.757,1.311-1.69,2.519-2.774,3.59C53.256,35.287,53.002,35.383,52.748,35.383z"/>
	</g>
	<g>
		<path fill="#CCD1D9" d="M46.811,41.32c-0.256,0-0.512-0.098-0.707-0.293c-0.391-0.391-0.391-1.023,0-1.414l5.938-5.938
			c0.391-0.391,1.023-0.391,1.414,0s0.391,1.023,0,1.414l-5.938,5.938C47.322,41.223,47.066,41.32,46.811,41.32z"/>
	</g>
	<g>
		<path fill="#CCD1D9" d="M1.502,14.004c-0.256,0-0.512-0.098-0.707-0.293c-0.391-0.391-0.391-1.024,0-1.414l6.006-6.005
			c0.188-0.188,0.441-0.293,0.707-0.293l34.008-0.001c0.553,0,1,0.448,1,1s-0.447,1-1,1L7.922,7.999l-5.713,5.712
			C2.014,13.906,1.758,14.004,1.502,14.004z"/>
	</g>
	<g>
		<path fill="#CCD1D9" d="M57.376,21.999c-0.497,0-0.929-0.37-0.991-0.876C55.453,13.642,49.056,8,41.502,8c-0.553,0-1-0.448-1-1
			s0.447-1,1-1c8.561,0,15.812,6.395,16.867,14.875c0.068,0.548-0.32,1.048-0.869,1.116C57.459,21.997,57.417,21.999,57.376,21.999z
			"/>
	</g>
	<g>
		<g>
			<path fill="#CCD1D9" d="M53.7,30.992h1.66v0.01c-0.721,1.24-1.601,2.37-2.61,3.38l-5.94,5.931c2.9-2.891,4.69-6.891,4.69-11.311
				c0-8.84-7.16-15.99-15.99-16H35.5h-5.97l6.01-6.01h5.96c0.01,0,0.01,0,0.02,0c8.15,0.01,14.87,6.12,15.86,14H53.7
				c0.52,1.57,0.8,3.26,0.8,5.01C54.5,27.742,54.22,29.422,53.7,30.992z"/>
		</g>
		<g>
			<path fill="#E6E9ED" d="M58.5,20.992c2.76,0,5,2.24,5,5s-2.24,5-5,5h-3.14H53.7c0.52-1.57,0.8-3.25,0.8-4.99
				c0-1.75-0.28-3.439-0.8-5.01h3.68H58.5z"/>
		</g>
		<g>
			<polygon fill="#656D78" points="35.54,6.992 29.53,13.002 20.52,13.002 26.53,6.992 			"/>
		</g>
		<g>
			<polygon fill="#CCD1D9" points="26.53,6.992 20.52,13.002 1.5,13.002 7.51,6.992 			"/>
		</g>
		<g>
			<path fill="#CCD1D9" d="M35.5,16.982c6.62,0,12,5.37,12,12s-5.38,12-12,12c-6.63,0-12-5.37-12-12S28.87,16.982,35.5,16.982z
				 M41.5,28.982c0-3.311-2.69-6-6-6s-6,2.689-6,6c0,3.31,2.69,6,6,6S41.5,32.292,41.5,28.982z"/>
		</g>
		<g>
			<path fill="#E6E9ED" d="M35.5,22.982c3.31,0,6,2.689,6,6c0,3.31-2.69,6-6,6s-6-2.69-6-6C29.5,25.672,32.19,22.982,35.5,22.982z"
				/>
		</g>
		<g>
			<path fill="#E6E9ED" d="M35.51,13.002c8.83,0.01,15.99,7.16,15.99,16c0,4.42-1.79,8.42-4.69,11.311
				c-2.89,2.899-6.89,4.689-11.31,4.689c-8.84,0-16-7.16-16-16h-18v-16h19.02h9.011h5.97H35.51z M47.5,28.982c0-6.63-5.38-12-12-12
				c-6.63,0-12,5.37-12,12s5.37,12,12,12C42.12,40.982,47.5,35.612,47.5,28.982z"/>
		</g>
	</g>
	<g>
		<path fill="#E6E9ED" d="M35.496,46.006c-9.374,0-17-7.626-17-17c0-0.553,0.447-1,1-1s1,0.447,1,1c0,8.271,6.729,15,15,15
			s15-6.729,15-15c0-8.271-6.729-15-15-15c-0.553,0-1-0.448-1-1s0.447-1,1-1c9.374,0,17,7.626,17,17S44.87,46.006,35.496,46.006z"/>
	</g>
	<g>
		<path fill="#656D78" d="M58.5,58.002c-0.553,0-1-0.447-1-1V26.004c0-0.552,0.447-1,1-1s1,0.448,1,1v30.998
			C59.5,57.555,59.053,58.002,58.5,58.002z"/>
	</g>
	<g>
		<path fill="#E6E9ED" d="M19.496,30.006H1.5c-0.266,0-0.52-0.105-0.707-0.293S0.5,29.271,0.5,29.006l0.002-16.002
			c0-0.552,0.448-1,1-1h34.006c0.553,0,1,0.448,1,1s-0.447,1-1,1H2.502L2.5,28.006h16.996c0.553,0,1,0.447,1,1
			S20.049,30.006,19.496,30.006z"/>
	</g>
	<rect x="17.875" y="11.001" fill="#CCD1D9" width="19.063" height="1.004"/>
</g>
</svg>
