<?xml version="1.0" encoding="utf-8"?>
<!-- Generator: Adobe Illustrator 16.0.0, SVG Export Plug-In . SVG Version: 6.00 Build 0)  -->
<!DOCTYPE svg PUBLIC "-//W3C//DTD SVG 1.1//EN" "http://www.w3.org/Graphics/SVG/1.1/DTD/svg11.dtd">
<svg version="1.1" id="icons" xmlns="http://www.w3.org/2000/svg" xmlns:xlink="http://www.w3.org/1999/xlink" x="0px" y="0px"
	 width="64px" height="64px" viewBox="0 0 64 64" enable-background="new 0 0 64 64" xml:space="preserve">
<g>
	<circle fill="#656D78" cx="24.505" cy="34.5" r="21"/>
	<g>
		<path fill="#E6E9ED" d="M59.495,50.5c0.55,0,1,0.451,1,1v3c0,0.551-0.45,1-1,1h-42c-0.55,0-1-0.449-1-1v-3c0-0.549,0.45-1,1-1
			H39.23c0.55,0,1.45,0,2,0H59.495z"/>
	</g>
	<g>
		<path fill="#DA4453" d="M29.495,55.5v7c0,0.551-0.45,1-1,1h-3c-0.551,0-1-0.449-1-1v-19c0-0.549,0.449-1,1-1h3c0.55,0,1,0.451,1,1
			v7V55.5z"/>
	</g>
	<g>
		<path fill="#ED5565" d="M51.495,42.5c0.55,0,1,0.451,1,1v19c0,0.551-0.45,1-1,1h-3c-0.551,0-1-0.449-1-1v-7v-5v-7
			c0-0.549,0.449-1,1-1H51.495z"/>
	</g>
	<g>
		<path fill="#ED5565" d="M23.495,42.5c0.55,0,1,0.451,1,1v19c0,0.551-0.45,1-1,1h-3c-0.551,0-1-0.449-1-1v-12v-7
			c0-0.549,0.449-1,1-1H23.495z"/>
	</g>
	<g>
		<path fill="#DA4453" d="M57.495,43.5v19c0,0.551-0.45,1-1,1h-3c-0.551,0-1-0.449-1-1v-19c0-0.549,0.449-1,1-1h3
			C57.045,42.5,57.495,42.951,57.495,43.5z"/>
	</g>
	<g>
		<path fill="#545C66" d="M41.495,22.16c-1.37-1.9-3.061-3.561-4.99-4.9V5.5h-24v11.76c-1.931,1.34-3.62,3-4.99,4.9h-0.01V5.5
			c0-2.77,2.24-5,5-5h24c2.76,0,5,2.23,5,5v16.66H41.495z"/>
	</g>
</g>
</svg>
