<?xml version="1.0" encoding="utf-8"?>
<!-- Generator: Adobe Illustrator 16.0.0, SVG Export Plug-In . SVG Version: 6.00 Build 0)  -->
<!DOCTYPE svg PUBLIC "-//W3C//DTD SVG 1.1//EN" "http://www.w3.org/Graphics/SVG/1.1/DTD/svg11.dtd">
<svg version="1.1" id="icons" xmlns="http://www.w3.org/2000/svg" xmlns:xlink="http://www.w3.org/1999/xlink" x="0px" y="0px"
	 width="64px" height="64px" viewBox="0 0 64 64" enable-background="new 0 0 64 64" xml:space="preserve">
<g>
	<g>
		<path fill="#434A54" d="M27.511,4.996c-0.553,0-1-0.447-1-1v-1c0-0.552,0.447-1,1-1s1,0.448,1,1v1
			C28.511,4.549,28.063,4.996,27.511,4.996z"/>
	</g>
	<g>
		<path fill="#EAC6BB" d="M12.513,21.994v4c0,5.76,3.23,10.75,7.99,13.26c2.09,1.11,4.47,1.74,7.01,1.74c2.521,0,4.9-0.62,6.99-1.73
			c4.65-2.449,7.86-7.279,8-12.88v-4.39H12.513z"/>
	</g>
	<g>
		<path fill="#D3B1A9" d="M38.499,21.994v4.39c-0.14,5.601-3.35,10.431-8,12.88c-1.527,0.812-3.21,1.357-4.988,1.595
			c0.654,0.087,1.322,0.136,2.002,0.136c2.521,0,4.9-0.62,6.99-1.73c4.65-2.449,7.86-7.279,8-12.88v-4.39H38.499z"/>
	</g>
	<g>
		<path fill="#656D78" d="M27.513,17.994c-8.18,0-12.72,1.5-15,2.66v-2.66c0-8.28,6.71-15,15-15c8.28,0,15,6.72,15,15v2.66h-0.01
			C40.213,19.484,35.683,17.994,27.513,17.994z M30.513,10.994c0-1.65-1.34-3-3-3s-3,1.35-3,3c0,1.66,1.34,3,3,3
			S30.513,12.654,30.513,10.994z"/>
	</g>
	<g>
		<g>
			<path fill="#545C66" d="M27.513,2.994c-0.681,0-1.346,0.062-2.003,0.149c7.333,0.98,12.999,7.251,12.999,14.851v1.2
				c1.76,0.459,3.065,0.985,3.994,1.46h0.01v-2.66C42.513,9.714,35.793,2.994,27.513,2.994z"/>
		</g>
	</g>
	<g>
		<path fill="#965353" d="M38.513,27.004v2c0,2.76-2.24,5-5,5h-3.5c-1.39,0-2.5-1.12-2.5-2.5c0-1.39,1.11-2.5,2.5-2.5h6.5
			c1.101,0,1.99-0.899,1.99-2H38.513z"/>
	</g>
	<g>
		<path fill="#965353" d="M16.513,29.004v-2c0,1.101,0.891,2,2,2h6.5c1.38,0,2.5,1.11,2.5,2.5c0,1.38-1.12,2.5-2.5,2.5h-3.5
			C18.743,34.004,16.513,31.764,16.513,29.004z"/>
	</g>
	<g>
		<path fill="#545C66" d="M27.513,7.994c1.66,0,3,1.35,3,3c0,1.66-1.34,3-3,3s-3-1.34-3-3C24.513,9.344,25.853,7.994,27.513,7.994z"
			/>
	</g>
	<g>
		<path fill="#E6E9ED" d="M42.503,20.654c-2.279-1.16-6.817-2.659-14.99-2.66l0,0c-0.002,0-0.003,0-0.005,0s-0.003,0-0.005,0l0,0
			c-8.173,0.001-12.711,1.5-14.99,2.66c-1.45,0.74-2,1.34-2,1.34h2h14.99h0.01h14.99h2C44.503,21.994,43.953,21.395,42.503,20.654z"
			/>
	</g>
	<path fill="#ED5565" d="M34.503,45.004l-3.91,2l-3.05-2l-3.04,2l-4-2h-6.99c-4.43,0-8.01,3.58-8.01,8l0.01,9h20.99v-0.001h3v0.001
		h11.99v-17H34.503z"/>
	<g>
		<path fill="#965353" d="M38.509,26.002L38.509,26.002h-0.002c-0.553,0-1,0.447-1,1c0,0.55-0.447,0.998-0.998,0.998H31.01
			c-1.93,0-3.5,1.57-3.5,3.5s1.57,3.5,3.5,3.5h2.499c3.309,0,6-2.691,6-6v-1.998C39.509,26.449,39.062,26.002,38.509,26.002z"/>
		<path fill="#965353" d="M24.008,28h-5.499c-0.551,0-0.998-0.448-0.998-0.998c0-0.553-0.447-1-1-1H16.51h-0.001
			c-0.553,0-1,0.447-1,1V29c0,3.309,2.691,6,6,6h2.499c1.93,0,3.5-1.57,3.5-3.5S25.938,28,24.008,28z"/>
	</g>
	<g>
		<g>
			<polygon fill="#E6E9ED" points="41.493,44.003 41.493,40.003 44.492,40.003 54.502,40.003 57.501,40.003 57.501,61.003 
				41.493,61.003 			"/>
		</g>
		<g>
			<path fill="#656D78" d="M57.497,62.003H41.495c-0.553,0-1-0.447-1-1V40.001c0-0.553,0.447-1,1-1h16.002c0.553,0,1,0.447,1,1
				v21.002C58.497,61.556,58.05,62.003,57.497,62.003z M42.495,60.003h14.002V41.001H42.495V60.003z"/>
		</g>
		<g>
			<path fill="#8CC152" d="M48.496,55.003c-0.256,0-0.512-0.098-0.707-0.293l-2.002-2.002c-0.391-0.391-0.391-1.023,0-1.414
				s1.023-0.391,1.414,0l2.002,2.002c0.391,0.391,0.391,1.023,0,1.414C49.008,54.905,48.752,55.003,48.496,55.003z"/>
		</g>
		<g>
			<path fill="#8CC152" d="M48.496,55.003c-0.256,0-0.512-0.098-0.707-0.293c-0.391-0.391-0.391-1.023,0-1.414l5.002-5.002
				c0.391-0.391,1.023-0.391,1.414,0s0.391,1.023,0,1.414l-5.002,5.002C49.008,54.905,48.752,55.003,48.496,55.003z"/>
		</g>
		<g>
			<polygon fill="#FFCE54" points="54.502,39.002 53.492,42.002 45.492,42.002 44.492,39.002 			"/>
		</g>
	</g>
	<path fill="#656D78" d="M32.585,45.004l-5.078,7.262l-5.078-7.262h-2.44l6.699,9.58c0.187,0.268,0.493,0.427,0.819,0.427
		s0.633-0.159,0.819-0.427l6.699-9.58H32.585z"/>
	<g>
		<path fill="#E6E9ED" d="M34.503,39.274v5.729l-3.91,2l-3.05-2l-3.04,2l-4-2v-5.74v-0.01c2.09,1.11,4.47,1.74,7.01,1.74
			c2.521,0,4.9-0.62,6.99-1.73V39.274z"/>
	</g>
	<path fill="#CCD1D9" d="M30.003,57.504c0-0.275-0.225-0.5-0.5-0.5h-2c-0.275,0-0.5,0.225-0.5,0.5v2.999c0,0.275,0.225,0.5,0.5,0.5
		h2c0.275,0,0.5-0.225,0.5-0.5V57.504z"/>
	<g>
		<path fill="#E6E9ED" d="M27.993,55.054c1.149,0.23,2.01,1.24,2.01,2.45c0,1.38-1.12,2.5-2.5,2.5c-0.17,0-0.34-0.02-0.5-0.05
			c-1.14-0.229-2-1.24-2-2.45c0-1.38,1.12-2.5,2.5-2.5C27.673,55.004,27.833,55.024,27.993,55.054z"/>
	</g>
</g>
</svg>
