<?xml version="1.0" encoding="utf-8"?>
<!-- Generator: Adobe Illustrator 16.0.0, SVG Export Plug-In . SVG Version: 6.00 Build 0)  -->
<!DOCTYPE svg PUBLIC "-//W3C//DTD SVG 1.1//EN" "http://www.w3.org/Graphics/SVG/1.1/DTD/svg11.dtd">
<svg version="1.1" id="icons" xmlns="http://www.w3.org/2000/svg" xmlns:xlink="http://www.w3.org/1999/xlink" x="0px" y="0px"
	 width="64px" height="64px" viewBox="0 0 64 64" enable-background="new 0 0 64 64" xml:space="preserve">
<g>
	<g>
		<path fill="#CCD1D9" d="M7.998,13.493H4.002c-0.553,0-1-0.448-1-1s0.447-1,1-1h3.996c0.553,0,1,0.448,1,1
			S8.551,13.493,7.998,13.493z"/>
	</g>
	<g>
		<path fill="#CCD1D9" d="M7.998,21.493H4.002c-0.553,0-1-0.448-1-1s0.447-1,1-1h3.996c0.553,0,1,0.448,1,1
			S8.551,21.493,7.998,21.493z"/>
	</g>
	<g>
		<path fill="#CCD1D9" d="M60,13.493h-4c-0.553,0-1-0.448-1-1s0.447-1,1-1h4c0.553,0,1,0.448,1,1S60.553,13.493,60,13.493z"/>
	</g>
	<g>
		<path fill="#CCD1D9" d="M60,21.493h-4c-0.553,0-1-0.448-1-1s0.447-1,1-1h4c0.553,0,1,0.448,1,1S60.553,21.493,60,21.493z"/>
	</g>
	<g>
		<path fill="#E6E9ED" d="M62.999,9.995v45.51h-3V39.484v-2.989v-16v-8v-2.5v-0.01c0.01-0.83,0.67-1.49,1.5-1.49s1.49,0.66,1.5,1.49
			V9.995z"/>
	</g>
	<g>
		<polygon fill="#656D78" points="36.99,39.484 48,55.505 16,55.505 27,39.484 		"/>
	</g>
	<g>
		<path fill="#E6E9ED" d="M4.001,39.484v16.021h-3V9.995v-0.01c0.01-0.83,0.67-1.49,1.5-1.49s1.49,0.66,1.5,1.49v0.01v2.5v8v16
			V39.484z"/>
	</g>
	<g>
		<polygon fill="#A0D468" points="59.999,39.484 59.999,55.505 48,55.505 36.99,39.484 		"/>
	</g>
	<g>
		<polygon fill="#A0D468" points="27,39.484 16,55.505 4.001,55.505 4.001,39.484 		"/>
	</g>
	<path fill="#E6E9ED" d="M56,21.495c0,0.55-0.45,1-1,1H9c-0.55,0-1-0.45-1-1v-10c0-0.55,0.45-1,1-1h46c0.55,0,1,0.45,1,1V21.495z"/>
	<g>
		<rect x="44" y="10.495" fill="#656D78" width="6" height="6"/>
	</g>
	<path fill="#656D78" d="M50,22.495h5c0.55,0,1-0.45,1-1v-1v-4h-6V22.495z"/>
	<g>
		<rect x="26" y="16.495" fill="#656D78" width="6" height="6"/>
	</g>
	<g>
		<rect x="20" y="10.495" fill="#656D78" width="6" height="6"/>
	</g>
	<path fill="#656D78" d="M14,10.495H9c-0.55,0-1,0.45-1,1v1v4h6V10.495z"/>
	<g>
		<rect x="14" y="16.495" fill="#656D78" width="6" height="6"/>
	</g>
	<g>
		<rect x="38" y="16.495" fill="#656D78" width="6" height="6"/>
	</g>
	<g>
		<rect x="32" y="10.495" fill="#656D78" width="6" height="6"/>
	</g>
</g>
</svg>
