<?xml version="1.0" encoding="utf-8"?>
<!-- Generator: Adobe Illustrator 16.0.0, SVG Export Plug-In . SVG Version: 6.00 Build 0)  -->
<!DOCTYPE svg PUBLIC "-//W3C//DTD SVG 1.1//EN" "http://www.w3.org/Graphics/SVG/1.1/DTD/svg11.dtd">
<svg version="1.1" id="icons" xmlns="http://www.w3.org/2000/svg" xmlns:xlink="http://www.w3.org/1999/xlink" x="0px" y="0px"
	 width="64px" height="64px" viewBox="0 0 64 64" enable-background="new 0 0 64 64" xml:space="preserve">
<g>
	<g>
		<path fill="#F6BB42" d="M37.751,13.006c-0.553,0-1-0.447-1-1V8c0-0.552,0.447-1,1-1s1,0.448,1,1v4.006
			C38.751,12.559,38.304,13.006,37.751,13.006z"/>
	</g>
	<g>
		<path fill="#F6BB42" d="M39.751,9h-4.002c-0.553,0-1-0.447-1-1c0-0.552,0.447-1,1-1h4.002c0.553,0,1,0.448,1,1
			C40.751,8.553,40.304,9,39.751,9z"/>
	</g>
	<g>
		<path fill="#F6BB42" d="M37.75,13.002c-3.309,0-6-2.691-6-6c0-3.31,2.691-6.002,6-6.002s6,2.692,6,6.002
			C43.75,10.311,41.059,13.002,37.75,13.002z M37.75,3c-2.206,0-4,1.795-4,4.002c0,2.205,1.794,4,4,4s4-1.795,4-4
			C41.75,4.795,39.956,3,37.75,3z"/>
	</g>
	<g>
		<path fill="#EAC6BB" d="M51.75,33h1c1.66,0,3,1.34,3,3s-1.34,3-3,3h-1c-0.92,0-1.75-0.42-2.31-1.07
			c-0.431-0.52-0.69-1.189-0.69-1.93C48.75,34.34,50.09,33,51.75,33z"/>
	</g>
	<g>
		<path fill="#EAC6BB" d="M49.44,16.07C50,15.42,50.83,15,51.75,15h1c1.66,0,3,1.34,3,3s-1.34,3-3,3h-1c-1.66,0-3-1.34-3-3
			C48.75,17.26,49.01,16.59,49.44,16.07z"/>
	</g>
	<g>
		<path fill="#EAC6BB" d="M51.75,33c-0.81,0-1.54-0.32-2.07-0.83c-0.569-0.55-0.93-1.32-0.93-2.17c0-1.66,1.34-3,3-3h1
			c1.66,0,3,1.34,3,3c0,1.65-1.34,3-3,3H51.75z"/>
	</g>
	<g>
		<path fill="#EAC6BB" d="M51.75,27c-1.66,0-3-1.34-3-3c0-0.85,0.36-1.62,0.93-2.17c0.53-0.52,1.261-0.83,2.07-0.83h1
			c1.66,0,3,1.34,3,3s-1.34,3-3,3H51.75z"/>
	</g>
	<g>
		<path fill="#E6E9ED" d="M37.75,25.01h-0.01c-1.11,0-2,0.891-2,2c0,1.1,0.89,2,2,2c1.1,0,2-0.9,2-2
			C39.74,25.9,38.85,25.02,37.75,25.01z M48.75,24c0,1.66,1.34,3,3,3c-1.66,0-3,1.34-3,3c0,0.85,0.36,1.62,0.93,2.17
			c-2,4.609-6.59,7.84-11.93,7.84c-7.18,0-13-5.82-13-13.01c0-7.17,5.82-13,13-13c5.34,0,9.93,3.221,11.93,7.83
			C49.11,22.38,48.75,23.15,48.75,24z"/>
	</g>
	<g>
		<path fill="#D3B1A9" d="M37.75,43.01c4.61,0,8.77-1.96,11.69-5.08C50,38.58,50.83,39,51.75,39l-15,16.3l-19-6.61V16
			c2.59,0,4.8,1.641,5.64,3.939C22.34,22.07,21.75,24.46,21.75,27C21.75,35.84,28.91,43.01,37.75,43.01z"/>
	</g>
	<g>
		<path fill="#FFCE54" d="M51.75,33c-1.66,0-3,1.34-3,3c0,0.74,0.26,1.41,0.69,1.93c-2.921,3.12-7.08,5.08-11.69,5.08
			c-8.84,0-16-7.17-16-16.01c0-2.54,0.59-4.93,1.64-7.061C26,14.641,31.45,11,37.75,11c4.61,0,8.76,1.96,11.69,5.07
			c-0.431,0.52-0.69,1.189-0.69,1.93c0,1.66,1.34,3,3,3c-0.81,0-1.54,0.311-2.07,0.83c-2-4.609-6.59-7.83-11.93-7.83
			c-7.18,0-13,5.83-13,13c0,7.189,5.82,13.01,13,13.01c5.34,0,9.93-3.23,11.93-7.84C50.21,32.68,50.94,33,51.75,33z"/>
	</g>
	<g>
		<polygon fill="#656D78" points="36.75,55.3 38.75,56 35.25,63 8.25,63 15.75,48 17.75,48.689 		"/>
	</g>
	<g>
		<path fill="#FFCE54" d="M17.78,56c-0.553,0-1.005-0.447-1.005-1s0.442-1,0.994-1h0.011c0.552,0,1,0.447,1,1S18.332,56,17.78,56z"
			/>
	</g>
	<g>
		<path fill="#545C66" d="M37.75,26.008c-0.553,0-1-0.447-1-1V18c0-0.553,0.447-1,1-1s1,0.447,1,1v7.008
			C38.75,25.561,38.303,26.008,37.75,26.008z"/>
	</g>
	<g>
		<path fill="#CCD1D9" d="M39.736,34.001h-3.973c-0.553,0-1-0.447-1-1c0-0.552,0.447-1,1-1h3.973c0.553,0,1,0.448,1,1
			C40.736,33.554,40.289,34.001,39.736,34.001z"/>
	</g>
	<g>
		<path fill="#656D78" d="M37.752,24.51c1.375,0.013,2.488,1.113,2.488,2.5c0,1.375-1.125,2.5-2.5,2.5c-1.388,0-2.5-1.125-2.5-2.5
			c0-1.387,1.112-2.5,2.5-2.5H37.752z"/>
	</g>
</g>
</svg>
